<svg width="600" height="625" viewBox="0 0 600 625" fill="none" xmlns="http://www.w3.org/2000/svg">
<g opacity="0.2">
<g opacity="0.5">
<circle cx="304" cy="308" r="197.5" stroke="#FAC7EF" stroke-width="5"/>
<circle cx="304" cy="303" r="247.5" stroke="#FAC7EF" stroke-width="5"/>
<circle cx="300" cy="300" r="297.5" stroke="#FAC7EF" stroke-width="5"/>
</g>
<g opacity="0.75">
<path d="M543.433 438.037C542.582 438.528 541.688 439.88 541.583 442.835C541.553 443.504 541.26 444.134 540.768 444.589C540.276 445.043 539.624 445.285 538.954 445.261C538.285 445.237 537.652 444.95 537.193 444.462C536.734 443.974 536.486 443.325 536.504 442.655C536.633 439.036 537.778 435.435 540.892 433.636C544.016 431.833 547.719 432.653 550.924 434.361C551.519 434.678 551.964 435.218 552.16 435.863C552.356 436.508 552.288 437.205 551.971 437.8C551.654 438.395 551.113 438.839 550.468 439.035C549.823 439.232 549.127 439.164 548.532 438.847C545.913 437.447 544.287 437.549 543.433 438.037ZM557.057 442.438C557.314 442.225 557.611 442.065 557.93 441.967C558.249 441.869 558.584 441.835 558.916 441.866C559.248 441.898 559.571 441.995 559.866 442.151C560.161 442.307 560.422 442.52 560.635 442.777C562.619 445.185 564.399 447.756 565.954 450.461C569.478 456.567 571.65 462.822 572.236 468.067C572.527 470.686 572.439 473.179 571.829 475.317C571.209 477.469 570.01 479.417 567.997 480.579C565.561 481.985 562.746 481.789 560.174 480.85C557.592 479.908 554.932 478.13 552.398 475.815C551.908 475.359 551.617 474.728 551.59 474.059C551.563 473.39 551.801 472.737 552.252 472.242C552.703 471.748 553.332 471.451 554.001 471.417C554.669 471.383 555.324 471.615 555.824 472.061C558.06 474.101 560.157 475.436 561.912 476.073C563.681 476.717 564.792 476.564 565.456 476.178C566.012 475.856 566.574 475.202 566.94 473.918C567.313 472.617 567.432 470.835 567.184 468.632C566.693 464.231 564.812 458.647 561.55 453.003C560.137 450.547 558.522 448.213 556.721 446.026C556.509 445.769 556.349 445.473 556.251 445.154C556.153 444.835 556.118 444.499 556.15 444.167C556.181 443.835 556.278 443.512 556.434 443.217C556.59 442.922 556.803 442.661 557.06 442.448" fill="#FAC7EF"/>
<path d="M576.129 457.804C576.129 456.821 575.404 455.368 572.9 453.806C572.617 453.629 572.371 453.398 572.177 453.126C571.983 452.854 571.845 452.547 571.77 452.222C571.694 451.896 571.684 451.559 571.739 451.23C571.794 450.901 571.914 450.585 572.09 450.302C572.448 449.73 573.017 449.324 573.674 449.172C574 449.097 574.337 449.086 574.666 449.141C574.995 449.196 575.311 449.316 575.594 449.492C578.664 451.414 581.211 454.205 581.211 457.804C581.211 461.409 578.65 464.207 575.567 466.129C574.995 466.472 574.312 466.576 573.663 466.42C573.015 466.264 572.455 465.859 572.102 465.293C571.75 464.727 571.634 464.046 571.779 463.395C571.925 462.745 572.32 462.177 572.88 461.815C575.401 460.243 576.129 458.786 576.129 457.804ZM565.5 467.399C565.556 467.728 565.547 468.065 565.472 468.39C565.398 468.716 565.26 469.023 565.067 469.295C564.874 469.568 564.629 469.799 564.346 469.977C564.064 470.154 563.749 470.274 563.42 470.33C560.342 470.841 557.226 471.095 554.106 471.089C547.058 471.089 540.553 469.845 535.718 467.728C533.302 466.674 531.191 465.349 529.646 463.75C528.084 462.144 527 460.125 527 457.804C527 454.991 528.579 452.654 530.676 450.892C532.784 449.126 535.657 447.714 538.927 446.677C539.569 446.473 540.266 446.532 540.865 446.843C541.161 446.996 541.424 447.206 541.639 447.462C541.855 447.717 542.017 448.012 542.118 448.33C542.219 448.648 542.257 448.983 542.228 449.316C542.2 449.648 542.106 449.972 541.953 450.269C541.799 450.565 541.589 450.828 541.333 451.043C541.078 451.258 540.783 451.421 540.465 451.522C537.585 452.437 535.376 453.585 533.946 454.788C532.502 455.994 532.082 457.035 532.082 457.804C532.082 458.447 532.37 459.261 533.299 460.22C534.241 461.192 535.725 462.185 537.754 463.072C541.81 464.848 547.587 466.007 554.106 466.007C557.104 466.007 559.957 465.763 562.569 465.319C562.899 465.263 563.235 465.272 563.561 465.347C563.886 465.421 564.194 465.559 564.466 465.752C564.738 465.945 564.969 466.19 565.147 466.473C565.324 466.755 565.444 467.07 565.5 467.399Z" fill="#FAC7EF"/>
<path d="M543.507 476.181C544.354 476.673 545.977 476.771 548.586 475.385C548.881 475.229 549.204 475.131 549.536 475.1C549.868 475.068 550.204 475.102 550.523 475.199C550.842 475.297 551.139 475.457 551.396 475.669C551.654 475.881 551.867 476.142 552.024 476.437C552.18 476.732 552.277 477.055 552.309 477.387C552.341 477.719 552.307 478.055 552.209 478.374C552.112 478.693 551.952 478.99 551.74 479.247C551.527 479.505 551.266 479.718 550.972 479.875C547.773 481.572 544.08 482.382 540.966 480.586C537.842 478.78 536.697 475.165 536.578 471.533C536.566 470.865 536.817 470.22 537.276 469.736C537.736 469.252 538.367 468.968 539.034 468.946C539.701 468.924 540.35 469.165 540.841 469.617C541.332 470.069 541.625 470.697 541.657 471.363C541.759 474.328 542.654 475.69 543.507 476.181ZM540.512 462.178C539.88 461.943 539.368 461.467 539.087 460.855C538.806 460.242 538.78 459.543 539.015 458.912C540.038 456.15 541.376 453.297 543.013 450.465C546.536 444.359 550.867 439.351 555.115 436.221C557.236 434.659 559.439 433.49 561.597 432.951C563.769 432.409 566.059 432.473 568.069 433.636C570.508 435.042 571.741 437.576 572.216 440.276C572.693 442.984 572.48 446.175 571.741 449.526C571.682 449.863 571.554 450.185 571.367 450.472C571.18 450.758 570.937 451.004 570.652 451.195C570.368 451.385 570.048 451.516 569.711 451.58C569.375 451.643 569.029 451.638 568.695 451.565C568.361 451.492 568.044 451.351 567.766 451.153C567.487 450.954 567.251 450.701 567.072 450.41C566.893 450.118 566.775 449.792 566.725 449.454C566.675 449.115 566.694 448.77 566.781 448.439C567.428 445.484 567.537 442.997 567.211 441.154C566.886 439.304 566.195 438.42 565.531 438.037C564.975 437.715 564.125 437.556 562.83 437.881C561.516 438.21 559.916 438.999 558.131 440.314C554.566 442.936 550.67 447.361 547.414 453.006C545.99 455.458 544.774 458.025 543.778 460.68C543.544 461.312 543.068 461.825 542.455 462.105C541.843 462.386 541.144 462.412 540.512 462.178Z" fill="#FAC7EF"/>
<path d="M559.052 457.329C559.052 458.551 558.567 459.724 557.703 460.588C556.839 461.452 555.667 461.937 554.445 461.937C553.222 461.937 552.05 461.452 551.186 460.588C550.322 459.724 549.837 458.551 549.837 457.329C549.837 456.107 550.322 454.935 551.186 454.071C552.05 453.207 553.222 452.721 554.445 452.721C555.667 452.721 556.839 453.207 557.703 454.071C558.567 454.935 559.052 456.107 559.052 457.329Z" fill="#FAC7EF"/>
</g>
<path opacity="0.75" d="M199.062 457.016H240.938C243.005 457.046 244.498 457.871 245.483 459.059C246.469 460.247 246.949 461.799 246.984 463.286V506.714L246.973 506.993C246.887 508.394 246.408 509.828 245.483 510.941C244.498 512.129 243.005 512.954 240.938 512.984H199.062C195.868 513.009 193.058 510.417 193.016 506.714V463.286L193.027 462.942C193.234 459.423 195.967 456.992 199.062 457.016ZM199.062 460.342C198.305 460.348 197.602 460.617 197.086 461.118C196.569 461.62 196.239 462.353 196.222 463.286V506.715C196.239 507.647 196.569 508.38 197.086 508.882C197.602 509.383 198.304 509.652 199.062 509.658H240.939C242.089 509.571 242.811 509.138 243.247 508.573C243.683 508.009 243.833 507.317 243.847 506.715V463.286C243.833 462.684 243.683 461.991 243.247 461.427C242.838 460.898 242.179 460.484 241.15 460.362L240.939 460.342H199.062ZM210.135 487.302V502.071C209.938 503.583 209.384 504.831 208.462 505.713C207.539 506.595 206.247 507.114 204.571 507.163C203.266 507.201 202.083 506.928 201.062 506.323C200.045 505.721 199.188 504.788 198.53 503.505L201.672 501.521C201.673 501.523 201.674 501.524 201.675 501.525C201.681 501.537 201.69 501.554 201.702 501.575C201.727 501.619 201.763 501.681 201.81 501.757C201.902 501.909 202.035 502.114 202.195 502.33C202.356 502.546 202.545 502.772 202.75 502.965C202.955 503.157 203.177 503.317 203.403 503.398C203.642 503.484 204.01 503.542 204.399 503.524C204.789 503.506 205.201 503.412 205.527 503.191C205.826 502.989 206.021 502.619 206.142 502.302C206.202 502.143 206.244 501.997 206.271 501.891C206.284 501.837 206.294 501.794 206.3 501.764L206.309 501.72V487.302H210.135ZM216.492 487.585C220.555 486.039 223.672 488.007 224.594 490.279L221.658 492.263C221.215 491.445 220.283 490.613 219.205 490.553C218.714 490.525 218.238 490.645 217.882 490.945C217.525 491.246 217.289 491.725 217.274 492.414L217.287 492.598C217.334 493.011 217.496 493.335 217.755 493.61C218.05 493.924 218.469 494.174 218.979 494.424C220.001 494.924 221.39 495.422 222.907 496.418C224.018 497.148 224.676 497.79 225.082 498.501C225.488 499.212 225.643 499.994 225.746 501.002C225.898 502.495 225.627 505.072 222.798 506.374C221.257 507.083 219.119 507.308 217.131 506.82C215.147 506.334 213.314 505.138 212.374 503.005L215.448 501.164C216.227 502.686 217.619 503.447 218.917 503.575C220.218 503.704 221.428 503.198 221.826 502.184C222.02 501.69 222.02 501.269 221.863 500.896C221.707 500.523 221.396 500.2 220.973 499.897C220.126 499.293 218.821 498.768 217.38 498.105H217.381C216.126 497.434 214.19 496.38 213.609 493.806C213.171 491.861 213.563 488.926 216.493 487.586L216.492 487.585ZM230.804 487.158L234.105 493.507L234.12 493.534L234.134 493.507L237.436 487.158H241.188L236.241 496.85L236.237 496.857L236.241 496.864L241.602 507.056H237.849L234.134 500.207L234.12 500.182L234.105 500.207L230.391 507.056H226.638L231.998 496.864L232.002 496.857L231.998 496.85L226.982 487.158H230.804Z" fill="#FAC7EF" stroke="#FAC7EF" stroke-width="0.03125"/>
<path d="M305.223 34.4705H276.988C274.493 34.4705 272.471 36.4931 272.471 38.9882V67.2233C272.471 69.7183 274.493 71.7409 276.988 71.7409H305.223C307.718 71.7409 309.741 69.7183 309.741 67.2233V38.9882C309.741 36.4931 307.718 34.4705 305.223 34.4705Z" stroke="#FAC7EF" stroke-width="3" stroke-linecap="round" stroke-linejoin="round"/>
<path d="M302.964 51.4116H298.447C297.848 51.4116 297.273 51.6496 296.85 52.0732C296.426 52.4968 296.188 53.0714 296.188 53.6704V55.9292C296.188 56.5283 296.426 57.1029 296.85 57.5265C297.273 57.9501 297.848 58.1881 298.447 58.1881H300.706C301.305 58.1881 301.879 58.426 302.303 58.8496C302.726 59.2733 302.964 59.8478 302.964 60.4469V62.7057C302.964 63.3047 302.726 63.8793 302.303 64.3029C301.879 64.7265 301.305 64.9645 300.706 64.9645H296.188M285.459 51.4116V64.9645M280.941 51.4116H289.976" stroke="#FAC7EF" stroke-width="3" stroke-linecap="round" stroke-linejoin="round"/>
<g opacity="0.75">
<mask id="path-11-inside-1_265_97" fill="white">
<path d="M59.8326 236.167L35.8849 263.698L38.9159 267.183L62.8593 239.652L59.8326 236.167ZM35.8849 274.153L59.8283 301.688L62.8593 298.199L38.9159 270.668L35.8849 274.153ZM68.9255 301.684L92.8688 274.158L89.8379 270.668L65.8945 298.199L68.9255 301.684ZM92.8688 263.693L68.9255 236.167L65.8945 239.652L89.8379 267.183L92.8688 263.693ZM92.8688 274.158C93.4664 273.471 93.9405 272.651 94.2639 271.754C94.5873 270.856 94.7538 269.894 94.7538 268.923C94.7538 267.952 94.5873 266.99 94.2639 266.092C93.9405 265.195 93.4664 264.38 92.8688 263.693L89.8379 267.178C90.0375 267.407 90.1959 267.679 90.3039 267.978C90.412 268.278 90.4676 268.599 90.4676 268.923C90.4676 269.247 90.412 269.568 90.3039 269.868C90.1959 270.167 90.0375 270.439 89.8379 270.668L92.8688 274.158ZM59.8283 301.688C60.4255 302.376 61.1389 302.921 61.9193 303.293C62.6998 303.664 63.5363 303.856 64.3812 303.856C65.226 303.856 66.0626 303.664 66.843 303.293C67.6235 302.921 68.3326 302.376 68.9298 301.688L65.8945 298.203C65.6954 298.433 65.4631 298.615 65.2027 298.739C64.9423 298.864 64.6631 298.928 64.3812 298.928C64.0992 298.928 63.82 298.864 63.5596 298.739C63.2992 298.615 63.0627 298.433 62.8635 298.203L59.8283 301.688ZM35.8849 263.698C35.2874 264.385 34.8133 265.205 34.4899 266.102C34.1665 267 34 267.961 34 268.933C34 269.904 34.1665 270.866 34.4899 271.764C34.8133 272.661 35.2874 273.476 35.8849 274.163L38.9159 270.673C38.7163 270.444 38.5579 270.177 38.4499 269.877C38.3418 269.578 38.2862 269.257 38.2862 268.933C38.2862 268.609 38.3418 268.288 38.4499 267.988C38.5579 267.689 38.7163 267.412 38.9159 267.183L35.8849 263.698ZM62.8593 239.657C63.0584 239.428 63.2949 239.246 63.5553 239.121C63.8158 238.997 64.0949 238.933 64.3769 238.933C64.6588 238.933 64.938 238.997 65.1984 239.121C65.4589 239.246 65.6954 239.428 65.8945 239.657L68.9255 236.167C68.3283 235.48 67.6149 234.935 66.8344 234.563C66.054 234.191 65.2174 234 64.3726 234C63.5278 234 62.6912 234.191 61.9108 234.563C61.1303 234.935 60.4212 235.48 59.824 236.167L62.8593 239.657ZM54.2851 246.031L58.5722 250.96L61.6074 247.47L57.3204 242.541L54.2851 246.031ZM64.3769 256.604C63.8084 256.604 63.2632 256.345 62.8612 255.883C62.4592 255.42 62.2333 254.793 62.2333 254.14H57.9463C57.9463 256.101 58.6238 257.982 59.8298 259.368C61.0357 260.755 62.6714 261.534 64.3769 261.534V256.604ZM66.5204 254.14C66.5204 254.793 66.2946 255.42 65.8926 255.883C65.4906 256.345 64.9454 256.604 64.3769 256.604V261.534C66.0824 261.534 67.7181 260.755 68.924 259.368C70.13 257.982 70.8075 256.101 70.8075 254.14H66.5204ZM64.3769 251.675C64.9454 251.675 65.4906 251.935 65.8926 252.397C66.2946 252.859 66.5204 253.486 66.5204 254.14H70.8075C70.8075 252.179 70.13 250.298 68.924 248.911C67.7181 247.525 66.0824 246.746 64.3769 246.746V251.675ZM64.3769 246.746C62.6714 246.746 61.0357 247.525 59.8298 248.911C58.6238 250.298 57.9463 252.179 57.9463 254.14H62.2333C62.2333 253.486 62.4592 252.859 62.8612 252.397C63.2632 251.935 63.8084 251.675 64.3769 251.675V246.746ZM67.1463 260.814L73.577 268.208L76.6079 264.718L70.1773 257.324L67.1463 260.814ZM77.2381 271.393C76.6696 271.393 76.1244 271.133 75.7224 270.671C75.3204 270.208 75.0946 269.582 75.0946 268.928H70.8075C70.8075 270.889 71.485 272.77 72.691 274.156C73.897 275.543 75.5326 276.322 77.2381 276.322V271.393ZM79.3817 268.928C79.3817 269.582 79.1558 270.208 78.7538 270.671C78.3519 271.133 77.8066 271.393 77.2381 271.393V276.322C78.9436 276.322 80.5793 275.543 81.7853 274.156C82.9912 272.77 83.6688 270.889 83.6688 268.928H79.3817ZM77.2381 266.463C77.8066 266.463 78.3519 266.723 78.7538 267.185C79.1558 267.647 79.3817 268.274 79.3817 268.928H83.6688C83.6688 266.967 82.9912 265.086 81.7853 263.7C80.5793 262.313 78.9436 261.534 77.2381 261.534V266.463ZM77.2381 261.534C75.5326 261.534 73.897 262.313 72.691 263.7C71.485 265.086 70.8075 266.967 70.8075 268.928H75.0946C75.0946 268.274 75.3204 267.647 75.7224 267.185C76.1244 266.723 76.6696 266.463 77.2381 266.463V261.534ZM62.2333 259.069V278.787H66.5204V259.069H62.2333ZM64.3769 286.181C63.8084 286.181 63.2632 285.921 62.8612 285.459C62.4592 284.997 62.2333 284.37 62.2333 283.716H57.9463C57.9463 285.677 58.6238 287.558 59.8298 288.944C61.0357 290.331 62.6714 291.11 64.3769 291.11V286.181ZM66.5204 283.716C66.5204 284.37 66.2946 284.997 65.8926 285.459C65.4906 285.921 64.9454 286.181 64.3769 286.181V291.11C66.0824 291.11 67.7181 290.331 68.924 288.944C70.13 287.558 70.8075 285.677 70.8075 283.716H66.5204ZM64.3769 281.251C64.9454 281.251 65.4906 281.511 65.8926 281.973C66.2946 282.435 66.5204 283.062 66.5204 283.716H70.8075C70.8075 281.755 70.13 279.874 68.924 278.488C67.7181 277.101 66.0824 276.322 64.3769 276.322V281.251ZM64.3769 276.322C62.6714 276.322 61.0357 277.101 59.8298 278.488C58.6238 279.874 57.9463 281.755 57.9463 283.716H62.2333C62.2333 283.062 62.4592 282.435 62.8612 281.973C63.2632 281.511 63.8084 281.251 64.3769 281.251V276.322Z"/>
</mask>
<path d="M59.8326 236.167L35.8849 263.698L38.9159 267.183L62.8593 239.652L59.8326 236.167ZM35.8849 274.153L59.8283 301.688L62.8593 298.199L38.9159 270.668L35.8849 274.153ZM68.9255 301.684L92.8688 274.158L89.8379 270.668L65.8945 298.199L68.9255 301.684ZM92.8688 263.693L68.9255 236.167L65.8945 239.652L89.8379 267.183L92.8688 263.693ZM92.8688 274.158C93.4664 273.471 93.9405 272.651 94.2639 271.754C94.5873 270.856 94.7538 269.894 94.7538 268.923C94.7538 267.952 94.5873 266.99 94.2639 266.092C93.9405 265.195 93.4664 264.38 92.8688 263.693L89.8379 267.178C90.0375 267.407 90.1959 267.679 90.3039 267.978C90.412 268.278 90.4676 268.599 90.4676 268.923C90.4676 269.247 90.412 269.568 90.3039 269.868C90.1959 270.167 90.0375 270.439 89.8379 270.668L92.8688 274.158ZM59.8283 301.688C60.4255 302.376 61.1389 302.921 61.9193 303.293C62.6998 303.664 63.5363 303.856 64.3812 303.856C65.226 303.856 66.0626 303.664 66.843 303.293C67.6235 302.921 68.3326 302.376 68.9298 301.688L65.8945 298.203C65.6954 298.433 65.4631 298.615 65.2027 298.739C64.9423 298.864 64.6631 298.928 64.3812 298.928C64.0992 298.928 63.82 298.864 63.5596 298.739C63.2992 298.615 63.0627 298.433 62.8635 298.203L59.8283 301.688ZM35.8849 263.698C35.2874 264.385 34.8133 265.205 34.4899 266.102C34.1665 267 34 267.961 34 268.933C34 269.904 34.1665 270.866 34.4899 271.764C34.8133 272.661 35.2874 273.476 35.8849 274.163L38.9159 270.673C38.7163 270.444 38.5579 270.177 38.4499 269.877C38.3418 269.578 38.2862 269.257 38.2862 268.933C38.2862 268.609 38.3418 268.288 38.4499 267.988C38.5579 267.689 38.7163 267.412 38.9159 267.183L35.8849 263.698ZM62.8593 239.657C63.0584 239.428 63.2949 239.246 63.5553 239.121C63.8158 238.997 64.0949 238.933 64.3769 238.933C64.6588 238.933 64.938 238.997 65.1984 239.121C65.4589 239.246 65.6954 239.428 65.8945 239.657L68.9255 236.167C68.3283 235.48 67.6149 234.935 66.8344 234.563C66.054 234.191 65.2174 234 64.3726 234C63.5278 234 62.6912 234.191 61.9108 234.563C61.1303 234.935 60.4212 235.48 59.824 236.167L62.8593 239.657ZM54.2851 246.031L58.5722 250.96L61.6074 247.47L57.3204 242.541L54.2851 246.031ZM64.3769 256.604C63.8084 256.604 63.2632 256.345 62.8612 255.883C62.4592 255.42 62.2333 254.793 62.2333 254.14H57.9463C57.9463 256.101 58.6238 257.982 59.8298 259.368C61.0357 260.755 62.6714 261.534 64.3769 261.534V256.604ZM66.5204 254.14C66.5204 254.793 66.2946 255.42 65.8926 255.883C65.4906 256.345 64.9454 256.604 64.3769 256.604V261.534C66.0824 261.534 67.7181 260.755 68.924 259.368C70.13 257.982 70.8075 256.101 70.8075 254.14H66.5204ZM64.3769 251.675C64.9454 251.675 65.4906 251.935 65.8926 252.397C66.2946 252.859 66.5204 253.486 66.5204 254.14H70.8075C70.8075 252.179 70.13 250.298 68.924 248.911C67.7181 247.525 66.0824 246.746 64.3769 246.746V251.675ZM64.3769 246.746C62.6714 246.746 61.0357 247.525 59.8298 248.911C58.6238 250.298 57.9463 252.179 57.9463 254.14H62.2333C62.2333 253.486 62.4592 252.859 62.8612 252.397C63.2632 251.935 63.8084 251.675 64.3769 251.675V246.746ZM67.1463 260.814L73.577 268.208L76.6079 264.718L70.1773 257.324L67.1463 260.814ZM77.2381 271.393C76.6696 271.393 76.1244 271.133 75.7224 270.671C75.3204 270.208 75.0946 269.582 75.0946 268.928H70.8075C70.8075 270.889 71.485 272.77 72.691 274.156C73.897 275.543 75.5326 276.322 77.2381 276.322V271.393ZM79.3817 268.928C79.3817 269.582 79.1558 270.208 78.7538 270.671C78.3519 271.133 77.8066 271.393 77.2381 271.393V276.322C78.9436 276.322 80.5793 275.543 81.7853 274.156C82.9912 272.77 83.6688 270.889 83.6688 268.928H79.3817ZM77.2381 266.463C77.8066 266.463 78.3519 266.723 78.7538 267.185C79.1558 267.647 79.3817 268.274 79.3817 268.928H83.6688C83.6688 266.967 82.9912 265.086 81.7853 263.7C80.5793 262.313 78.9436 261.534 77.2381 261.534V266.463ZM77.2381 261.534C75.5326 261.534 73.897 262.313 72.691 263.7C71.485 265.086 70.8075 266.967 70.8075 268.928H75.0946C75.0946 268.274 75.3204 267.647 75.7224 267.185C76.1244 266.723 76.6696 266.463 77.2381 266.463V261.534ZM62.2333 259.069V278.787H66.5204V259.069H62.2333ZM64.3769 286.181C63.8084 286.181 63.2632 285.921 62.8612 285.459C62.4592 284.997 62.2333 284.37 62.2333 283.716H57.9463C57.9463 285.677 58.6238 287.558 59.8298 288.944C61.0357 290.331 62.6714 291.11 64.3769 291.11V286.181ZM66.5204 283.716C66.5204 284.37 66.2946 284.997 65.8926 285.459C65.4906 285.921 64.9454 286.181 64.3769 286.181V291.11C66.0824 291.11 67.7181 290.331 68.924 288.944C70.13 287.558 70.8075 285.677 70.8075 283.716H66.5204ZM64.3769 281.251C64.9454 281.251 65.4906 281.511 65.8926 281.973C66.2946 282.435 66.5204 283.062 66.5204 283.716H70.8075C70.8075 281.755 70.13 279.874 68.924 278.488C67.7181 277.101 66.0824 276.322 64.3769 276.322V281.251ZM64.3769 276.322C62.6714 276.322 61.0357 277.101 59.8298 278.488C58.6238 279.874 57.9463 281.755 57.9463 283.716H62.2333C62.2333 283.062 62.4592 282.435 62.8612 281.973C63.2632 281.511 63.8084 281.251 64.3769 281.251V276.322Z" fill="#FAC7EF"/>
<path d="M35.8849 263.698L36.2622 263.37L35.5072 264.025L35.8849 263.698ZM92.8688 274.158L92.4913 274.486L93.2466 273.83L92.8688 274.158ZM61.3459 237.907L60.9682 238.235L62.4815 239.98L62.8593 239.652L63.237 239.325L61.7237 237.58L61.3459 237.907ZM37.3983 265.443L37.776 265.115L36.2627 263.37L35.8849 263.698L35.5072 264.025L37.0205 265.77L37.3983 265.443ZM37.3983 272.413L37.7751 272.742L39.2927 271.002L38.9159 270.673L38.5391 270.344L37.0215 272.084L37.3983 272.413ZM61.3459 299.948L60.9691 299.62L59.4515 301.36L59.8283 301.688L60.2051 302.017L61.7227 300.277L61.3459 299.948ZM67.4079 299.948L67.7856 299.621L66.2723 297.876L65.8945 298.203L65.5168 298.531L67.0301 300.276L67.4079 299.948ZM91.3555 272.413L90.9778 272.741L92.4911 274.486L92.8688 274.158L93.2466 273.83L91.7332 272.085L91.3555 272.413ZM91.3555 265.443L90.9787 265.114L89.4611 266.854L89.8379 267.183L90.2147 267.512L91.7323 265.772L91.3555 265.443ZM67.4079 237.907L67.7847 238.236L69.3023 236.496L68.9255 236.167L68.5487 235.839L67.031 237.579L67.4079 237.907ZM35.8849 263.698L35.5077 264.026L38.5386 267.511L38.9159 267.183L39.2932 266.855L36.2622 263.37L35.8849 263.698ZM92.8688 274.158L93.2463 273.83L90.2154 270.34L89.8379 270.668L89.4604 270.996L92.4913 274.486L92.8688 274.158ZM62.2333 254.14V253.64H57.9463V254.14V254.64H62.2333V254.14ZM64.3769 261.534H64.8769V256.604H64.3769H63.8769V261.534H64.3769ZM70.8075 254.14V253.64H66.5204V254.14V254.64H70.8075V254.14ZM64.3769 246.746H63.8769V251.675H64.3769H64.8769V246.746H64.3769ZM75.0946 268.928V268.428H70.8075V268.928V269.428H75.0946V268.928ZM77.2381 276.322H77.7381V271.393H77.2381H76.7381V276.322H77.2381ZM83.6688 268.928V268.428H79.3817V268.928V269.428H83.6688V268.928ZM77.2381 261.534H76.7381V266.463H77.2381H77.7381V261.534H77.2381ZM62.2333 283.716V283.216H57.9463V283.716V284.216H62.2333V283.716ZM64.3769 291.11H64.8769V286.181H64.3769H63.8769V291.11H64.3769ZM70.8075 283.716V283.216H66.5204V283.716V284.216H70.8075V283.716ZM64.3769 276.322H63.8769V281.251H64.3769H64.8769V276.322H64.3769ZM62.8593 239.652L63.6138 240.309L64.1841 239.653L63.6143 238.997L62.8593 239.652ZM35.8849 263.698L36.6393 264.354L36.6394 264.354L35.8849 263.698ZM38.9159 270.673L39.6709 271.329L40.2415 270.672L39.6696 270.016L38.9159 270.673ZM65.8945 298.203L66.6486 297.547L65.893 296.679L65.1391 297.548L65.8945 298.203ZM92.8688 274.158L92.1145 273.501L92.1143 273.502L92.8688 274.158ZM89.8379 267.183L89.0833 267.839L89.8384 268.707L90.5929 267.839L89.8379 267.183ZM59.8326 236.167L60.5876 235.512L59.8332 234.643L59.0781 235.511L59.8326 236.167ZM38.9159 267.183L39.6696 267.84L39.6705 267.839L38.9159 267.183ZM35.8849 274.153L35.1304 273.497L34.5597 274.153L35.1303 274.809L35.8849 274.153ZM62.8593 298.199L63.6143 298.854L64.1841 298.198L63.6138 297.542L62.8593 298.199ZM38.9159 270.668L39.6705 270.012L38.9159 269.144L38.1614 270.012L38.9159 270.668ZM68.9255 301.684L68.1709 302.34L68.9254 303.207L69.68 302.34L68.9255 301.684ZM89.8379 270.668L89.0841 270.011L89.0833 270.012L89.8379 270.668ZM65.8945 298.199L65.14 297.542L64.5692 298.198L65.14 298.855L65.8945 298.199ZM65.8945 239.652L65.14 238.996L64.5692 239.652L65.14 240.309L65.8945 239.652ZM89.8379 267.178L89.0833 266.522L88.5119 267.179L89.0841 267.835L89.8379 267.178ZM68.9298 301.688L69.6845 302.344L70.2553 301.688L69.6839 301.032L68.9298 301.688ZM62.8635 298.203L63.6189 297.548L62.865 296.679L62.1095 297.547L62.8635 298.203ZM34 268.933H35H34ZM35.8849 274.163L35.1306 274.819L35.8857 275.687L36.64 274.819L35.8849 274.163ZM62.8593 239.657L62.1047 240.314L62.8602 241.182L63.6146 240.313L62.8593 239.657ZM65.8945 239.657L65.1391 240.313L65.8941 241.183L66.6495 240.313L65.8945 239.657ZM64.3726 234V235V234ZM59.824 236.167L59.0692 235.511L58.4989 236.168L59.0695 236.824L59.824 236.167ZM54.2851 246.031L53.5305 245.375L52.9598 246.031L53.5305 246.687L54.2851 246.031ZM58.5722 250.96L57.8176 251.617L58.5722 252.484L59.3267 251.617L58.5722 250.96ZM61.6074 247.47L62.362 248.127L62.9327 247.47L62.362 246.814L61.6074 247.47ZM57.3204 242.541L58.0749 241.885L57.3204 241.017L56.5658 241.885L57.3204 242.541ZM70.8075 254.14H71.8075H70.8075ZM64.3769 251.675V252.675V251.675ZM67.1463 260.814L66.3913 260.158L65.8215 260.815L66.3918 261.47L67.1463 260.814ZM73.577 268.208L72.8224 268.864L73.5775 269.733L74.332 268.864L73.577 268.208ZM76.6079 264.718L77.3629 265.374L77.9328 264.718L77.3625 264.062L76.6079 264.718ZM70.1773 257.324L70.9319 256.668L70.1768 255.8L69.4223 256.668L70.1773 257.324ZM70.8075 268.928H69.8075H70.8075ZM77.2381 276.322V277.322V276.322ZM83.6688 268.928H84.6688H83.6688ZM62.2333 259.069V258.069H61.2333V259.069H62.2333ZM62.2333 278.787H61.2333V279.787H62.2333V278.787ZM66.5204 278.787V279.787H67.5204V278.787H66.5204ZM66.5204 259.069H67.5204V258.069H66.5204V259.069ZM64.3769 291.11V292.11V291.11ZM70.8075 283.716H71.8075H70.8075ZM64.3769 276.322V275.322V276.322ZM59.8326 236.167L59.0781 235.511L35.1304 263.042L35.8849 263.698L36.6394 264.354L60.5871 236.824L59.8326 236.167ZM38.9159 267.183L39.6705 267.839L63.6138 240.309L62.8593 239.652L62.1047 238.996L38.1614 266.527L38.9159 267.183ZM62.8593 239.652L63.6143 238.997L60.5876 235.512L59.8326 236.167L59.0776 236.823L62.1042 240.308L62.8593 239.652ZM35.8849 274.153L35.1303 274.809L59.0737 302.345L59.8283 301.688L60.5829 301.032L36.6396 273.497L35.8849 274.153ZM59.8283 301.688L60.5833 302.344L63.6143 298.854L62.8593 298.199L62.1042 297.543L59.0733 301.033L59.8283 301.688ZM62.8593 298.199L63.6138 297.542L39.6705 270.012L38.9159 270.668L38.1614 271.324L62.1047 298.855L62.8593 298.199ZM38.9159 270.668L38.1614 270.012L35.1304 273.497L35.8849 274.153L36.6395 274.809L39.6705 271.324L38.9159 270.668ZM68.9255 301.684L69.68 302.34L93.6233 274.814L92.8688 274.158L92.1143 273.502L68.171 301.027L68.9255 301.684ZM89.8379 270.668L89.0833 270.012L65.14 297.542L65.8945 298.199L66.6491 298.855L90.5924 271.324L89.8379 270.668ZM65.8945 298.199L65.14 298.855L68.1709 302.34L68.9255 301.684L69.68 301.027L66.6491 297.542L65.8945 298.199ZM92.8688 263.693L93.6233 263.037L69.68 235.511L68.9255 236.167L68.171 236.824L92.1143 264.349L92.8688 263.693ZM68.9255 236.167L68.1709 235.511L65.14 238.996L65.8945 239.652L66.6491 240.309L69.68 236.824L68.9255 236.167ZM65.8945 239.652L65.14 240.309L89.0833 267.839L89.8379 267.183L90.5924 266.527L66.6491 238.996L65.8945 239.652ZM89.8379 267.183L90.5929 267.839L93.6238 264.349L92.8688 263.693L92.1138 263.037L89.0829 266.527L89.8379 267.183ZM92.8688 274.158L93.6232 274.814C94.307 274.029 94.8419 273.099 95.2046 272.093L94.2639 271.754L93.3231 271.415C93.039 272.203 92.6258 272.914 92.1145 273.501L92.8688 274.158ZM94.2639 271.754L95.2046 272.093C95.568 271.085 95.7538 270.008 95.7538 268.923H94.7538H93.7538C93.7538 269.781 93.6066 270.628 93.3231 271.415L94.2639 271.754ZM94.7538 268.923H95.7538C95.7538 267.838 95.568 266.761 95.2046 265.753L94.2639 266.092L93.3231 266.431C93.6066 267.218 93.7538 268.065 93.7538 268.923H94.7538ZM94.2639 266.092L95.2046 265.753C94.8413 264.745 94.3059 263.821 93.6232 263.036L92.8688 263.693L92.1145 264.349C92.627 264.938 93.0396 265.645 93.3231 266.431L94.2639 266.092ZM92.8688 263.693L92.1143 263.037L89.0833 266.522L89.8379 267.178L90.5924 267.834L93.6234 264.349L92.8688 263.693ZM89.8379 267.178L89.0841 267.835C89.1984 267.966 89.2953 268.129 89.3633 268.318L90.3039 267.978L91.2445 267.639C91.0965 267.229 90.8765 266.848 90.5916 266.521L89.8379 267.178ZM90.3039 267.978L89.3633 268.318C89.4314 268.506 89.4676 268.712 89.4676 268.923H90.4676H91.4676C91.4676 268.485 91.3926 268.049 91.2445 267.639L90.3039 267.978ZM90.4676 268.923H89.4676C89.4676 269.134 89.4314 269.34 89.3633 269.528L90.3039 269.868L91.2445 270.207C91.3926 269.797 91.4676 269.361 91.4676 268.923H90.4676ZM90.3039 269.868L89.3633 269.528C89.2953 269.717 89.1984 269.88 89.0841 270.011L89.8379 270.668L90.5916 271.325C90.8765 270.998 91.0965 270.617 91.2445 270.207L90.3039 269.868ZM59.8283 301.688L59.0735 302.344C59.7573 303.131 60.58 303.762 61.4892 304.195L61.9193 303.293L62.3495 302.39C61.6978 302.079 61.0937 301.62 60.5831 301.032L59.8283 301.688ZM61.9193 303.293L61.4892 304.195C62.4008 304.63 63.384 304.856 64.3812 304.856V303.856V302.856C63.6887 302.856 62.9988 302.699 62.3495 302.39L61.9193 303.293ZM64.3812 303.856V304.856C65.3784 304.856 66.3616 304.63 67.2732 304.195L66.843 303.293L66.4129 302.39C65.7635 302.699 65.0736 302.856 64.3812 302.856V303.856ZM66.843 303.293L67.2732 304.195C68.1842 303.761 69.0021 303.13 69.6845 302.344L68.9298 301.688L68.175 301.032C67.6631 301.622 67.0628 302.08 66.4129 302.39L66.843 303.293ZM68.9298 301.688L69.6839 301.032L66.6486 297.547L65.8945 298.203L65.1404 298.86L68.1757 302.345L68.9298 301.688ZM65.8945 298.203L65.1391 297.548C65.0211 297.684 64.8966 297.777 64.7721 297.837L65.2027 298.739L65.6333 299.642C66.0297 299.453 66.3697 299.182 66.6499 298.859L65.8945 298.203ZM65.2027 298.739L64.7721 297.837C64.6429 297.898 64.5106 297.928 64.3812 297.928V298.928V299.928C64.8157 299.928 65.2417 299.829 65.6333 299.642L65.2027 298.739ZM64.3812 298.928V297.928C64.2518 297.928 64.1194 297.898 63.9902 297.837L63.5596 298.739L63.129 299.642C63.5207 299.829 63.9467 299.928 64.3812 299.928V298.928ZM63.5596 298.739L63.9902 297.837C63.8605 297.775 63.7328 297.679 63.6189 297.548L62.8635 298.203L62.1082 298.859C62.3925 299.187 62.738 299.455 63.129 299.642L63.5596 298.739ZM62.8635 298.203L62.1095 297.547L59.0742 301.032L59.8283 301.688L60.5824 302.345L63.6176 298.86L62.8635 298.203ZM35.8849 263.698L35.1306 263.041C34.4468 263.827 33.9119 264.757 33.5491 265.763L34.4899 266.102L35.4307 266.441C35.7148 265.653 36.128 264.942 36.6393 264.354L35.8849 263.698ZM34.4899 266.102L33.5491 265.763C33.1858 266.771 33 267.848 33 268.933H34H35C35 268.075 35.1472 267.228 35.4307 266.441L34.4899 266.102ZM34 268.933H33C33 270.018 33.1858 271.094 33.5491 272.103L34.4899 271.764L35.4307 271.424C35.1472 270.638 35 269.791 35 268.933H34ZM34.4899 271.764L33.5491 272.103C33.9125 273.111 34.4479 274.035 35.1306 274.819L35.8849 274.163L36.6393 273.506C36.1268 272.918 35.7142 272.211 35.4307 271.424L34.4899 271.764ZM35.8849 274.163L36.64 274.819L39.6709 271.329L38.9159 270.673L38.1609 270.017L35.1299 273.507L35.8849 274.163ZM38.9159 270.673L39.6696 270.016C39.5518 269.881 39.4566 269.721 39.3905 269.538L38.4499 269.877L37.5092 270.217C37.6592 270.632 37.8808 271.007 38.1622 271.33L38.9159 270.673ZM38.4499 269.877L39.3905 269.538C39.3224 269.349 39.2862 269.143 39.2862 268.933H38.2862H37.2862C37.2862 269.371 37.3611 269.807 37.5092 270.217L38.4499 269.877ZM38.2862 268.933H39.2862C39.2862 268.722 39.3224 268.516 39.3905 268.328L38.4499 267.988L37.5092 267.649C37.3612 268.059 37.2862 268.495 37.2862 268.933H38.2862ZM38.4499 267.988L39.3905 268.328C39.4604 268.134 39.5588 267.967 39.6696 267.84L38.9159 267.183L38.1622 266.526C37.8738 266.856 37.6554 267.244 37.5092 267.649L38.4499 267.988ZM62.8593 239.657L63.6146 240.313C63.7285 240.181 63.8562 240.086 63.986 240.024L63.5553 239.121L63.1247 238.219C62.7337 238.406 62.3882 238.674 62.1039 239.002L62.8593 239.657ZM63.5553 239.121L63.986 240.024C64.1151 239.962 64.2475 239.933 64.3769 239.933V238.933V237.933C63.9424 237.933 63.5164 238.032 63.1247 238.219L63.5553 239.121ZM64.3769 238.933V239.933C64.5063 239.933 64.6386 239.962 64.7678 240.024L65.1984 239.121L65.6291 238.219C65.2374 238.032 64.8114 237.933 64.3769 237.933V238.933ZM65.1984 239.121L64.7678 240.024C64.8976 240.086 65.0253 240.181 65.1391 240.313L65.8945 239.657L66.6499 239.002C66.3655 238.674 66.0201 238.405 65.6291 238.219L65.1984 239.121ZM65.8945 239.657L66.6495 240.313L69.6805 236.823L68.9255 236.167L68.1705 235.512L65.1395 239.002L65.8945 239.657ZM68.9255 236.167L69.6802 235.511C68.9965 234.725 68.1738 234.094 67.2646 233.661L66.8344 234.563L66.4043 235.466C67.056 235.777 67.6601 236.236 68.1707 236.823L68.9255 236.167ZM66.8344 234.563L67.2646 233.661C66.353 233.226 65.3698 233 64.3726 233V234V235C65.0651 235 65.755 235.157 66.4043 235.466L66.8344 234.563ZM64.3726 234V233C63.3754 233 62.3922 233.226 61.4806 233.661L61.9108 234.563L62.3409 235.466C62.9902 235.157 63.6801 235 64.3726 235V234ZM61.9108 234.563L61.4806 233.661C60.5696 234.095 59.7517 234.726 59.0692 235.511L59.824 236.167L60.5788 236.823C61.0907 236.234 61.691 235.776 62.3409 235.466L61.9108 234.563ZM59.824 236.167L59.0695 236.824L62.1047 240.314L62.8593 239.657L63.6138 239.001L60.5786 235.511L59.824 236.167ZM54.2851 246.031L53.5305 246.687L57.8176 251.617L58.5722 250.96L59.3267 250.304L55.0397 245.375L54.2851 246.031ZM58.5722 250.96L59.3267 251.617L62.362 248.127L61.6074 247.47L60.8529 246.814L57.8176 250.304L58.5722 250.96ZM61.6074 247.47L62.362 246.814L58.0749 241.885L57.3204 242.541L56.5658 243.197L60.8529 248.127L61.6074 247.47ZM57.3204 242.541L56.5658 241.885L53.5305 245.375L54.2851 246.031L55.0397 246.687L58.0749 243.197L57.3204 242.541ZM64.3769 256.604V255.604C64.1222 255.604 63.8444 255.489 63.6157 255.226L62.8612 255.883L62.1066 256.539C62.6819 257.2 63.4945 257.604 64.3769 257.604V256.604ZM62.8612 255.883L63.6157 255.226C63.3832 254.959 63.2333 254.57 63.2333 254.14H62.2333H61.2333C61.2333 255.017 61.5352 255.882 62.1066 256.539L62.8612 255.883ZM57.9463 254.14H56.9463C56.9463 256.324 57.6998 258.443 59.0752 260.024L59.8298 259.368L60.5843 258.712C59.5478 257.52 58.9463 255.877 58.9463 254.14H57.9463ZM59.8298 259.368L59.0752 260.024C60.4545 261.61 62.3575 262.534 64.3769 262.534V261.534V260.534C62.9852 260.534 61.617 259.899 60.5843 258.712L59.8298 259.368ZM66.5204 254.14H65.5204C65.5204 254.57 65.3706 254.959 65.138 255.226L65.8926 255.883L66.6472 256.539C67.2186 255.882 67.5204 255.017 67.5204 254.14H66.5204ZM65.8926 255.883L65.138 255.226C64.9093 255.489 64.6315 255.604 64.3769 255.604V256.604V257.604C65.2592 257.604 66.0719 257.2 66.6472 256.539L65.8926 255.883ZM64.3769 261.534V262.534C66.3962 262.534 68.2993 261.61 69.6786 260.024L68.924 259.368L68.1695 258.712C67.1368 259.899 65.7685 260.534 64.3769 260.534V261.534ZM68.924 259.368L69.6786 260.024C71.054 258.443 71.8075 256.324 71.8075 254.14H70.8075H69.8075C69.8075 255.877 69.206 257.52 68.1695 258.712L68.924 259.368ZM64.3769 251.675V252.675C64.6315 252.675 64.9093 252.79 65.138 253.053L65.8926 252.397L66.6472 251.741C66.0719 251.079 65.2592 250.675 64.3769 250.675V251.675ZM65.8926 252.397L65.138 253.053C65.3706 253.321 65.5204 253.71 65.5204 254.14H66.5204H67.5204C67.5204 253.263 67.2186 252.398 66.6472 251.741L65.8926 252.397ZM70.8075 254.14H71.8075C71.8075 251.955 71.054 249.837 69.6786 248.255L68.924 248.911L68.1695 249.568C69.206 250.76 69.8075 252.402 69.8075 254.14H70.8075ZM68.924 248.911L69.6786 248.255C68.2993 246.669 66.3962 245.746 64.3769 245.746V246.746V247.746C65.7685 247.746 67.1368 248.38 68.1695 249.568L68.924 248.911ZM64.3769 246.746V245.746C62.3575 245.746 60.4544 246.669 59.0752 248.255L59.8298 248.911L60.5843 249.568C61.617 248.38 62.9852 247.746 64.3769 247.746V246.746ZM59.8298 248.911L59.0752 248.255C57.6998 249.837 56.9463 251.955 56.9463 254.14H57.9463H58.9463C58.9463 252.402 59.5478 250.76 60.5843 249.568L59.8298 248.911ZM62.2333 254.14H63.2333C63.2333 253.71 63.3832 253.321 63.6157 253.053L62.8612 252.397L62.1066 251.741C61.5352 252.398 61.2333 253.263 61.2333 254.14H62.2333ZM62.8612 252.397L63.6157 253.053C63.8444 252.79 64.1222 252.675 64.3769 252.675V251.675V250.675C63.4945 250.675 62.6819 251.079 62.1066 251.741L62.8612 252.397ZM67.1463 260.814L66.3918 261.47L72.8224 268.864L73.577 268.208L74.3315 267.552L67.9009 260.158L67.1463 260.814ZM73.577 268.208L74.332 268.864L77.3629 265.374L76.6079 264.718L75.8529 264.063L72.822 267.553L73.577 268.208ZM76.6079 264.718L77.3625 264.062L70.9319 256.668L70.1773 257.324L69.4228 257.98L75.8534 265.374L76.6079 264.718ZM70.1773 257.324L69.4223 256.668L66.3913 260.158L67.1463 260.814L67.9014 261.47L70.9323 257.98L70.1773 257.324ZM77.2381 271.393V270.393C76.9835 270.393 76.7057 270.277 76.477 270.014L75.7224 270.671L74.9679 271.327C75.5431 271.988 76.3558 272.393 77.2381 272.393V271.393ZM75.7224 270.671L76.477 270.014C76.2444 269.747 76.0946 269.358 76.0946 268.928H75.0946H74.0946C74.0946 269.805 74.3964 270.67 74.9679 271.327L75.7224 270.671ZM70.8075 268.928H69.8075C69.8075 271.113 70.561 273.231 71.9364 274.813L72.691 274.156L73.4456 273.5C72.409 272.308 71.8075 270.665 71.8075 268.928H70.8075ZM72.691 274.156L71.9364 274.813C73.3157 276.398 75.2188 277.322 77.2381 277.322V276.322V275.322C75.8465 275.322 74.4782 274.687 73.4456 273.5L72.691 274.156ZM79.3817 268.928H78.3817C78.3817 269.358 78.2319 269.747 77.9993 270.014L78.7538 270.671L79.5084 271.327C80.0798 270.67 80.3817 269.805 80.3817 268.928H79.3817ZM78.7538 270.671L77.9993 270.014C77.7706 270.277 77.4928 270.393 77.2381 270.393V271.393V272.393C78.1205 272.393 78.9331 271.988 79.5084 271.327L78.7538 270.671ZM77.2381 276.322V277.322C79.2575 277.322 81.1606 276.398 82.5398 274.813L81.7853 274.156L81.0307 273.5C79.998 274.687 78.6298 275.322 77.2381 275.322V276.322ZM81.7853 274.156L82.5398 274.813C83.9152 273.231 84.6688 271.113 84.6688 268.928H83.6688H82.6688C82.6688 270.665 82.0673 272.308 81.0307 273.5L81.7853 274.156ZM77.2381 266.463V267.463C77.4928 267.463 77.7706 267.578 77.9993 267.841L78.7538 267.185L79.5084 266.529C78.9331 265.867 78.1205 265.463 77.2381 265.463V266.463ZM78.7538 267.185L77.9993 267.841C78.2318 268.109 78.3817 268.498 78.3817 268.928H79.3817H80.3817C80.3817 268.051 80.0798 267.186 79.5084 266.529L78.7538 267.185ZM83.6688 268.928H84.6688C84.6688 266.743 83.9152 264.625 82.5398 263.043L81.7853 263.7L81.0307 264.356C82.0673 265.548 82.6688 267.191 82.6688 268.928H83.6688ZM81.7853 263.7L82.5398 263.043C81.1606 261.457 79.2575 260.534 77.2381 260.534V261.534V262.534C78.6298 262.534 79.998 263.168 81.0307 264.356L81.7853 263.7ZM77.2381 261.534V260.534C75.2188 260.534 73.3157 261.457 71.9364 263.043L72.691 263.7L73.4456 264.356C74.4782 263.168 75.8465 262.534 77.2381 262.534V261.534ZM72.691 263.7L71.9364 263.043C70.561 264.625 69.8075 266.743 69.8075 268.928H70.8075H71.8075C71.8075 267.191 72.409 265.548 73.4456 264.356L72.691 263.7ZM75.0946 268.928H76.0946C76.0946 268.498 76.2444 268.109 76.477 267.841L75.7224 267.185L74.9679 266.529C74.3964 267.186 74.0946 268.051 74.0946 268.928H75.0946ZM75.7224 267.185L76.477 267.841C76.7057 267.578 76.9835 267.463 77.2381 267.463V266.463V265.463C76.3558 265.463 75.5431 265.867 74.9679 266.529L75.7224 267.185ZM62.2333 259.069H61.2333V278.787H62.2333H63.2333V259.069H62.2333ZM62.2333 278.787V279.787H66.5204V278.787V277.787H62.2333V278.787ZM66.5204 278.787H67.5204V259.069H66.5204H65.5204V278.787H66.5204ZM66.5204 259.069V258.069H62.2333V259.069V260.069H66.5204V259.069ZM64.3769 286.181V285.181C64.1222 285.181 63.8444 285.066 63.6157 284.803L62.8612 285.459L62.1066 286.115C62.6819 286.777 63.4945 287.181 64.3769 287.181V286.181ZM62.8612 285.459L63.6157 284.803C63.3832 284.535 63.2333 284.146 63.2333 283.716H62.2333H61.2333C61.2333 284.593 61.5352 285.458 62.1066 286.115L62.8612 285.459ZM57.9463 283.716H56.9463C56.9463 285.901 57.6998 288.019 59.0752 289.601L59.8298 288.944L60.5843 288.288C59.5478 287.096 58.9463 285.453 58.9463 283.716H57.9463ZM59.8298 288.944L59.0752 289.601C60.4545 291.187 62.3575 292.11 64.3769 292.11V291.11V290.11C62.9852 290.11 61.617 289.476 60.5843 288.288L59.8298 288.944ZM66.5204 283.716H65.5204C65.5204 284.146 65.3706 284.535 65.138 284.803L65.8926 285.459L66.6472 286.115C67.2186 285.458 67.5204 284.593 67.5204 283.716H66.5204ZM65.8926 285.459L65.138 284.803C64.9093 285.066 64.6315 285.181 64.3769 285.181V286.181V287.181C65.2592 287.181 66.0719 286.777 66.6472 286.115L65.8926 285.459ZM64.3769 291.11V292.11C66.3962 292.11 68.2993 291.187 69.6786 289.601L68.924 288.944L68.1695 288.288C67.1368 289.476 65.7685 290.11 64.3769 290.11V291.11ZM68.924 288.944L69.6786 289.601C71.054 288.019 71.8075 285.901 71.8075 283.716H70.8075H69.8075C69.8075 285.453 69.206 287.096 68.1695 288.288L68.924 288.944ZM64.3769 281.251V282.251C64.6315 282.251 64.9093 282.366 65.138 282.629L65.8926 281.973L66.6472 281.317C66.0719 280.656 65.2592 280.251 64.3769 280.251V281.251ZM65.8926 281.973L65.138 282.629C65.3706 282.897 65.5204 283.286 65.5204 283.716H66.5204H67.5204C67.5204 282.839 67.2186 281.974 66.6472 281.317L65.8926 281.973ZM70.8075 283.716H71.8075C71.8075 281.531 71.054 279.413 69.6786 277.831L68.924 278.488L68.1695 279.144C69.206 280.336 69.8075 281.979 69.8075 283.716H70.8075ZM68.924 278.488L69.6786 277.831C68.2993 276.246 66.3962 275.322 64.3769 275.322V276.322V277.322C65.7685 277.322 67.1368 277.956 68.1695 279.144L68.924 278.488ZM64.3769 276.322V275.322C62.3575 275.322 60.4545 276.246 59.0752 277.831L59.8298 278.488L60.5843 279.144C61.617 277.956 62.9852 277.322 64.3769 277.322V276.322ZM59.8298 278.488L59.0752 277.831C57.6998 279.413 56.9463 281.531 56.9463 283.716H57.9463H58.9463C58.9463 281.979 59.5478 280.336 60.5843 279.144L59.8298 278.488ZM62.2333 283.716H63.2333C63.2333 283.286 63.3832 282.897 63.6157 282.629L62.8612 281.973L62.1066 281.317C61.5352 281.974 61.2333 282.839 61.2333 283.716H62.2333ZM62.8612 281.973L63.6157 282.629C63.8444 282.366 64.1222 282.251 64.3769 282.251V281.251V280.251C63.4945 280.251 62.6819 280.656 62.1066 281.317L62.8612 281.973Z" fill="#FAC7EF" mask="url(#path-11-inside-1_265_97)"/>
</g>
<g opacity="0.75">
<mask id="path-13-inside-2_265_97" fill="white">
<path d="M49.2199 500.773C48.4161 500.157 47.7248 499.371 46.9156 498.259C46.4957 497.668 46.0795 497.073 45.667 496.475C44.4265 494.704 43.6441 493.884 42.8376 493.548C42.4982 493.419 42.1848 493.213 41.9157 492.943C41.6466 492.672 41.4273 492.342 41.2707 491.973C41.1142 491.603 41.0235 491.202 41.004 490.791C40.9845 490.381 41.0366 489.97 41.1573 489.583C41.278 489.196 41.4648 488.841 41.7067 488.539C41.9485 488.236 42.2406 487.992 42.5657 487.821C42.8908 487.65 43.2424 487.556 43.5997 487.544C43.957 487.532 44.3128 487.602 44.6462 487.75C46.6611 488.582 48.0249 490.015 49.863 492.643C49.6111 492.282 50.774 493.958 51.0232 494.303C51.5323 495.002 51.9074 495.428 52.2021 495.653C52.7487 496.075 53.7776 496.256 55.2835 496.084C55.3478 494.907 55.5354 493.764 55.8247 492.71C47.8722 490.474 43.3708 484.577 43.3708 473.005C43.3708 469.185 44.3621 465.747 46.2056 462.863C45.6215 460.109 45.7099 456.778 47.0148 453.029C47.1629 452.605 47.3912 452.224 47.6831 451.914C47.9751 451.604 48.3234 451.372 48.7028 451.236C48.9198 451.162 49.0431 451.128 49.2601 451.091C51.4117 450.709 54.4502 451.615 58.4104 454.468C60.7703 453.832 63.1863 453.514 65.61 453.519C68.0536 453.519 70.4839 453.839 72.8016 454.468C76.7591 451.593 79.8056 450.687 81.9706 451.091C82.1992 451.132 82.3939 451.183 82.5547 451.245C82.9267 451.386 83.2672 451.619 83.5524 451.928C83.8376 452.237 84.0604 452.614 84.2052 453.032C85.5101 456.778 85.5985 460.106 85.0144 462.86C86.8659 465.744 87.8492 469.16 87.8492 473.005C87.8492 484.58 83.3639 490.458 75.4113 492.698C75.7463 493.977 75.9204 495.403 75.9204 496.95C75.9204 498.998 75.9151 500.952 75.9017 503.142C75.9017 503.727 75.8963 504.356 75.8883 505.317C76.4901 505.468 77.0284 505.852 77.4126 506.406C77.7968 506.959 78.0035 507.648 77.9978 508.356C77.9921 509.064 77.7745 509.748 77.3815 510.293C76.9885 510.839 76.4441 511.212 75.84 511.349C72.7855 512.049 70.5241 509.71 70.5241 506.651L70.5294 505.274L70.5428 503.102C70.5562 500.924 70.5643 498.983 70.5643 496.95C70.5643 494.802 70.0712 493.4 69.4228 492.757C67.6517 491 68.5493 487.661 70.8724 487.362C78.8196 486.336 82.4904 482.796 82.4904 473.005C82.4904 470.063 81.6544 467.632 80.0441 465.599C79.7052 465.17 79.4782 464.641 79.3891 464.071C79.3 463.501 79.3524 462.913 79.5403 462.376C79.9851 461.101 80.1727 459.428 79.7949 457.404L79.7681 457.413C78.4525 457.841 76.7939 458.769 74.7897 460.337C74.4665 460.589 74.0993 460.757 73.7137 460.829C73.3282 460.9 72.9337 460.874 72.5577 460.753C70.2962 460.032 67.9595 459.67 65.6127 459.677C63.228 459.677 60.8647 460.041 58.6676 460.756C58.2935 460.876 57.901 460.902 57.5175 460.83C57.1339 460.759 56.7684 460.593 56.4464 460.343C54.4288 458.781 52.7648 457.857 51.4358 457.425C51.0527 459.437 51.2429 461.104 51.685 462.376C51.8721 462.913 51.9238 463.5 51.8342 464.07C51.7446 464.639 51.5174 465.168 51.1786 465.596C49.579 467.614 48.7323 470.088 48.7323 473.002C48.7323 482.775 52.4058 486.336 60.3128 487.359C62.6305 487.658 63.5334 490.985 61.7731 492.744C61.2559 493.262 60.6209 494.999 60.6209 496.946V506.651C60.6209 509.686 58.3863 511.966 55.3692 511.359C54.7577 511.235 54.2024 510.871 53.7983 510.329C53.3942 509.787 53.1664 509.101 53.1537 508.387C53.1411 507.673 53.3444 506.977 53.7289 506.416C54.1135 505.856 54.6554 505.466 55.2621 505.314V502.264C52.8238 502.452 50.8115 501.993 49.2226 500.77"/>
</mask>
<path d="M49.2199 500.773C48.4161 500.157 47.7248 499.371 46.9156 498.259C46.4957 497.668 46.0795 497.073 45.667 496.475C44.4265 494.704 43.6441 493.884 42.8376 493.548C42.4982 493.419 42.1848 493.213 41.9157 492.943C41.6466 492.672 41.4273 492.342 41.2707 491.973C41.1142 491.603 41.0235 491.202 41.004 490.791C40.9845 490.381 41.0366 489.97 41.1573 489.583C41.278 489.196 41.4648 488.841 41.7067 488.539C41.9485 488.236 42.2406 487.992 42.5657 487.821C42.8908 487.65 43.2424 487.556 43.5997 487.544C43.957 487.532 44.3128 487.602 44.6462 487.75C46.6611 488.582 48.0249 490.015 49.863 492.643C49.6111 492.282 50.774 493.958 51.0232 494.303C51.5323 495.002 51.9074 495.428 52.2021 495.653C52.7487 496.075 53.7776 496.256 55.2835 496.084C55.3478 494.907 55.5354 493.764 55.8247 492.71C47.8722 490.474 43.3708 484.577 43.3708 473.005C43.3708 469.185 44.3621 465.747 46.2056 462.863C45.6215 460.109 45.7099 456.778 47.0148 453.029C47.1629 452.605 47.3912 452.224 47.6831 451.914C47.9751 451.604 48.3234 451.372 48.7028 451.236C48.9198 451.162 49.0431 451.128 49.2601 451.091C51.4117 450.709 54.4502 451.615 58.4104 454.468C60.7703 453.832 63.1863 453.514 65.61 453.519C68.0536 453.519 70.4839 453.839 72.8016 454.468C76.7591 451.593 79.8056 450.687 81.9706 451.091C82.1992 451.132 82.3939 451.183 82.5547 451.245C82.9267 451.386 83.2672 451.619 83.5524 451.928C83.8376 452.237 84.0604 452.614 84.2052 453.032C85.5101 456.778 85.5985 460.106 85.0144 462.86C86.8659 465.744 87.8492 469.16 87.8492 473.005C87.8492 484.58 83.3639 490.458 75.4113 492.698C75.7463 493.977 75.9204 495.403 75.9204 496.95C75.9204 498.998 75.9151 500.952 75.9017 503.142C75.9017 503.727 75.8963 504.356 75.8883 505.317C76.4901 505.468 77.0284 505.852 77.4126 506.406C77.7968 506.959 78.0035 507.648 77.9978 508.356C77.9921 509.064 77.7745 509.748 77.3815 510.293C76.9885 510.839 76.4441 511.212 75.84 511.349C72.7855 512.049 70.5241 509.71 70.5241 506.651L70.5294 505.274L70.5428 503.102C70.5562 500.924 70.5643 498.983 70.5643 496.95C70.5643 494.802 70.0712 493.4 69.4228 492.757C67.6517 491 68.5493 487.661 70.8724 487.362C78.8196 486.336 82.4904 482.796 82.4904 473.005C82.4904 470.063 81.6544 467.632 80.0441 465.599C79.7052 465.17 79.4782 464.641 79.3891 464.071C79.3 463.501 79.3524 462.913 79.5403 462.376C79.9851 461.101 80.1727 459.428 79.7949 457.404L79.7681 457.413C78.4525 457.841 76.7939 458.769 74.7897 460.337C74.4665 460.589 74.0993 460.757 73.7137 460.829C73.3282 460.9 72.9337 460.874 72.5577 460.753C70.2962 460.032 67.9595 459.67 65.6127 459.677C63.228 459.677 60.8647 460.041 58.6676 460.756C58.2935 460.876 57.901 460.902 57.5175 460.83C57.1339 460.759 56.7684 460.593 56.4464 460.343C54.4288 458.781 52.7648 457.857 51.4358 457.425C51.0527 459.437 51.2429 461.104 51.685 462.376C51.8721 462.913 51.9238 463.5 51.8342 464.07C51.7446 464.639 51.5174 465.168 51.1786 465.596C49.579 467.614 48.7323 470.088 48.7323 473.002C48.7323 482.775 52.4058 486.336 60.3128 487.359C62.6305 487.658 63.5334 490.985 61.7731 492.744C61.2559 493.262 60.6209 494.999 60.6209 496.946V506.651C60.6209 509.686 58.3863 511.966 55.3692 511.359C54.7577 511.235 54.2024 510.871 53.7983 510.329C53.3942 509.787 53.1664 509.101 53.1537 508.387C53.1411 507.673 53.3444 506.977 53.7289 506.416C54.1135 505.856 54.6554 505.466 55.2621 505.314V502.264C52.8238 502.452 50.8115 501.993 49.2226 500.77" fill="#FAC7EF"/>
<path d="M46.9156 498.259L46.1004 498.838L46.107 498.847L46.9156 498.259ZM45.667 496.475L46.4903 495.907L46.4861 495.901L45.667 496.475ZM42.8376 493.548L43.2219 492.625L43.2077 492.619L43.1932 492.614L42.8376 493.548ZM44.6462 487.75L44.2397 488.664L44.2521 488.669L44.2646 488.674L44.6462 487.75ZM49.863 492.643L49.0436 493.216L50.6827 492.07L49.863 492.643ZM51.0232 494.303L50.2125 494.889L50.2147 494.892L51.0232 494.303ZM52.2021 495.653L52.8133 494.861L52.8088 494.858L52.2021 495.653ZM55.2835 496.084L55.3973 497.077L56.2359 496.981L56.282 496.138L55.2835 496.084ZM55.8247 492.71L56.789 492.975L57.0522 492.017L56.0955 491.748L55.8247 492.71ZM46.2056 462.863L47.0481 463.402L47.2688 463.056L47.1838 462.656L46.2056 462.863ZM47.0148 453.029L46.0707 452.699L46.0703 452.7L47.0148 453.029ZM48.7028 451.236L48.3803 450.289L48.3726 450.292L48.365 450.295L48.7028 451.236ZM49.2601 451.091L49.4281 452.077L49.435 452.076L49.2601 451.091ZM58.4104 454.468L57.8259 455.279L58.2114 455.557L58.6703 455.433L58.4104 454.468ZM65.61 453.519L65.608 454.519H65.61V453.519ZM72.8016 454.468L72.5399 455.433L73.0019 455.558L73.3892 455.277L72.8016 454.468ZM81.9706 451.091L81.7873 452.074L81.7937 452.075L81.9706 451.091ZM82.5547 451.245L82.1968 452.179L82.2002 452.18L82.5547 451.245ZM84.2052 453.032L83.2602 453.359L83.2609 453.361L84.2052 453.032ZM85.0144 462.86L84.0362 462.652L83.9509 463.054L84.1729 463.4L85.0144 462.86ZM75.4113 492.698L75.1402 491.735L74.1952 492.002L74.444 492.951L75.4113 492.698ZM75.9017 503.142L74.9017 503.136V503.142H75.9017ZM75.8883 505.317L74.8883 505.309L74.8817 506.096L75.6455 506.287L75.8883 505.317ZM75.84 511.349L75.6176 510.375L75.6169 510.375L75.84 511.349ZM70.5241 506.651L69.5241 506.647V506.651H70.5241ZM70.5294 505.274L69.5294 505.268L69.5294 505.27L70.5294 505.274ZM70.5428 503.102L71.5428 503.108V503.108L70.5428 503.102ZM69.4228 492.757L70.1274 492.047L70.1269 492.046L69.4228 492.757ZM70.8724 487.362L71 488.354L71.0004 488.354L70.8724 487.362ZM80.0441 465.599L79.2598 466.219L79.2601 466.22L80.0441 465.599ZM79.5403 462.376L80.4843 462.706L80.4846 462.705L79.5403 462.376ZM79.7949 457.404L80.7779 457.22L80.5651 456.08L79.4688 456.458L79.7949 457.404ZM79.7681 457.413L80.0776 458.364L80.0859 458.361L80.0941 458.358L79.7681 457.413ZM74.7897 460.337L75.4049 461.125L75.4059 461.124L74.7897 460.337ZM72.5577 460.753L72.8662 459.801L72.8615 459.8L72.5577 460.753ZM65.6127 459.677V460.677L65.6159 460.677L65.6127 459.677ZM58.6676 460.756L58.9741 461.708L58.977 461.707L58.6676 460.756ZM56.4464 460.343L57.0593 459.553L57.0585 459.552L56.4464 460.343ZM51.4358 457.425L51.7445 456.474L50.6657 456.124L50.4535 457.238L51.4358 457.425ZM51.685 462.376L50.7404 462.704L50.7406 462.705L51.685 462.376ZM51.1786 465.596L51.9623 466.217L51.9625 466.217L51.1786 465.596ZM60.3128 487.359L60.1845 488.351L60.1849 488.351L60.3128 487.359ZM61.7731 492.744L61.0662 492.037L61.0656 492.037L61.7731 492.744ZM55.3692 511.359L55.1713 512.339L55.172 512.339L55.3692 511.359ZM55.2621 505.314L55.5051 506.284L56.2621 506.094V505.314H55.2621ZM55.2621 502.264H56.2621V501.184L55.1852 501.267L55.2621 502.264ZM49.2199 500.773L49.8283 499.979C49.1343 499.447 48.5087 498.749 47.7243 497.671L46.9156 498.259L46.107 498.847C46.9409 499.993 47.698 500.866 48.6116 501.567L49.2199 500.773ZM46.9156 498.259L47.7308 497.68C47.3136 497.092 46.9 496.502 46.4903 495.907L45.667 496.475L44.8438 497.043C45.2589 497.645 45.6778 498.243 46.1004 498.838L46.9156 498.259ZM45.667 496.475L46.4861 495.901C45.2591 494.149 44.33 493.086 43.2219 492.625L42.8376 493.548L42.4532 494.471C42.9581 494.682 43.5938 495.258 44.8479 497.049L45.667 496.475ZM42.8376 493.548L43.1932 492.614C42.9933 492.538 42.7988 492.413 42.6247 492.238L41.9157 492.943L41.2067 493.648C41.5707 494.014 42.0031 494.301 42.4819 494.483L42.8376 493.548ZM41.9157 492.943L42.6247 492.238C42.4502 492.062 42.3008 491.841 42.1915 491.583L41.2707 491.973L40.35 492.363C40.5538 492.844 40.8429 493.282 41.2067 493.648L41.9157 492.943ZM41.2707 491.973L42.1915 491.583C42.0821 491.325 42.0169 491.039 42.0029 490.744L41.004 490.791L40.0051 490.839C40.03 491.364 40.1462 491.882 40.35 492.363L41.2707 491.973ZM41.004 490.791L42.0029 490.744C41.9888 490.449 42.0266 490.155 42.1119 489.881L41.1573 489.583L40.2027 489.286C40.0467 489.786 39.9802 490.313 40.0051 490.839L41.004 490.791ZM41.1573 489.583L42.1119 489.881C42.1973 489.607 42.3271 489.364 42.4878 489.163L41.7067 488.539L40.9255 487.914C40.6025 488.318 40.3586 488.786 40.2027 489.286L41.1573 489.583ZM41.7067 488.539L42.4878 489.163C42.6483 488.962 42.8346 488.81 43.0309 488.707L42.5657 487.821L42.1006 486.936C41.6466 487.175 41.2488 487.51 40.9255 487.914L41.7067 488.539ZM42.5657 487.821L43.0309 488.707C43.2265 488.604 43.4312 488.55 43.6339 488.543L43.5997 487.544L43.5655 486.545C43.0536 486.562 42.5552 486.697 42.1006 486.936L42.5657 487.821ZM43.5997 487.544L43.6339 488.543C43.8365 488.536 44.0419 488.576 44.2397 488.664L44.6462 487.75L45.0526 486.836C44.5837 486.628 44.0774 486.527 43.5655 486.545L43.5997 487.544ZM44.6462 487.75L44.2646 488.674C46.0057 489.393 47.2327 490.627 49.0436 493.216L49.863 492.643L50.6825 492.069C48.8171 489.402 47.3165 487.771 45.0278 486.826L44.6462 487.75ZM49.863 492.643L50.6827 492.07C50.6671 492.047 50.6555 492.031 50.6485 492.021C50.6468 492.018 50.6442 492.015 50.6416 492.011C50.6404 492.01 50.6377 492.006 50.6343 492.001C50.6327 491.999 50.6293 491.994 50.6248 491.988C50.6226 491.985 50.6172 491.978 50.614 491.974C50.609 491.968 50.595 491.951 50.5859 491.94C50.5654 491.917 50.4569 491.815 50.3606 491.746C49.3623 491.707 48.8445 492.775 48.9102 492.99C48.9275 493.028 48.9545 493.08 48.963 493.095C48.9677 493.103 48.9755 493.115 48.9785 493.12C48.9876 493.135 48.9954 493.147 48.9955 493.147C48.9992 493.152 49.0027 493.157 49.0039 493.159C49.0149 493.175 49.0434 493.217 49.0811 493.271C49.1591 493.384 49.289 493.571 49.4345 493.78C49.7224 494.193 50.0816 494.707 50.2125 494.889L51.0232 494.303L51.8339 493.718C51.7157 493.554 51.3688 493.058 51.0759 492.637C50.931 492.429 50.8019 492.243 50.7249 492.132C50.6851 492.074 50.6621 492.041 50.6567 492.033C50.6559 492.032 50.6579 492.035 50.6607 492.039C50.6616 492.04 50.6632 492.043 50.6652 492.046C50.6666 492.048 50.6711 492.055 50.6767 492.064C50.6797 492.069 50.6875 492.082 50.6921 492.09C50.7005 492.104 50.7275 492.156 50.7448 492.194C50.8106 492.409 50.2927 493.477 49.2944 493.438C49.1982 493.369 49.0896 493.267 49.0692 493.244C49.0601 493.233 49.0462 493.216 49.0412 493.21C49.0381 493.206 49.0327 493.199 49.0306 493.196C49.0263 493.19 49.023 493.186 49.0216 493.184C49.0186 493.18 49.0164 493.177 49.016 493.176C49.0147 493.174 49.0142 493.174 49.0151 493.175C49.0186 493.18 49.0274 493.193 49.0433 493.215L49.863 492.643ZM51.0232 494.303L50.2147 494.892C50.7291 495.598 51.1762 496.127 51.5955 496.447L52.2021 495.653L52.8088 494.858C52.6386 494.728 52.3355 494.407 51.8317 493.715L51.0232 494.303ZM52.2021 495.653L51.591 496.444C52.4628 497.117 53.836 497.256 55.3973 497.077L55.2835 496.084L55.1697 495.09C53.7193 495.256 53.0347 495.032 52.8133 494.861L52.2021 495.653ZM55.2835 496.084L56.282 496.138C56.3425 495.031 56.519 493.958 56.789 492.975L55.8247 492.71L54.8604 492.445C54.5517 493.569 54.3531 494.783 54.285 496.029L55.2835 496.084ZM55.8247 492.71L56.0955 491.748C52.3036 490.681 49.4119 488.77 47.4493 485.806C45.474 482.824 44.3708 478.671 44.3708 473.005H43.3708H42.3708C42.3708 478.911 43.5183 483.493 45.7818 486.91C48.058 490.347 51.3934 492.503 55.554 493.673L55.8247 492.71ZM43.3708 473.005H44.3708C44.3708 469.362 45.3147 466.113 47.0481 463.402L46.2056 462.863L45.363 462.324C43.4096 465.38 42.3708 469.008 42.3708 473.005H43.3708ZM46.2056 462.863L47.1838 462.656C46.639 460.087 46.7119 456.941 47.9592 453.358L47.0148 453.029L46.0703 452.7C44.7078 456.615 44.6039 460.131 45.2273 463.07L46.2056 462.863ZM47.0148 453.029L47.9589 453.359C48.0633 453.059 48.2207 452.802 48.4112 452.599L47.6831 451.914L46.955 451.228C46.5617 451.646 46.2624 452.15 46.0707 452.699L47.0148 453.029ZM47.6831 451.914L48.4112 452.599C48.6014 452.397 48.8181 452.257 49.0407 452.177L48.7028 451.236L48.365 450.295C47.8287 450.487 47.3488 450.81 46.955 451.228L47.6831 451.914ZM48.7028 451.236L49.0253 452.182C49.2029 452.122 49.2738 452.103 49.4281 452.077L49.2601 451.091L49.0922 450.105C48.8124 450.153 48.6368 450.202 48.3803 450.289L48.7028 451.236ZM49.2601 451.091L49.435 452.076C51.1806 451.766 53.9339 452.475 57.8259 455.279L58.4104 454.468L58.9949 453.656C54.9664 450.754 51.6428 449.652 49.0853 450.106L49.2601 451.091ZM58.4104 454.468L58.6703 455.433C60.9455 454.821 63.2735 454.514 65.608 454.519L65.61 453.519L65.612 452.519C63.0991 452.514 60.595 452.844 58.1504 453.502L58.4104 454.468ZM65.61 453.519V454.519C67.9669 454.519 70.3091 454.828 72.5399 455.433L72.8016 454.468L73.0633 453.502C70.6587 452.85 68.1404 452.519 65.61 452.519V453.519ZM72.8016 454.468L73.3892 455.277C77.2777 452.452 80.0344 451.747 81.7873 452.074L81.9706 451.091L82.1538 450.108C79.5768 449.628 76.2405 450.734 72.2139 453.659L72.8016 454.468ZM81.9706 451.091L81.7937 452.075C81.9805 452.109 82.1109 452.146 82.1968 452.179L82.5547 451.245L82.9126 450.311C82.6769 450.221 82.418 450.155 82.1474 450.107L81.9706 451.091ZM82.5547 451.245L82.2002 452.18C82.4191 452.263 82.6317 452.405 82.8178 452.606L83.5524 451.928L84.287 451.249C83.9028 450.833 83.4342 450.509 82.9092 450.31L82.5547 451.245ZM83.5524 451.928L82.8178 452.606C83.0044 452.808 83.1581 453.064 83.2602 453.359L84.2052 453.032L85.1502 452.705C84.9627 452.163 84.6708 451.665 84.287 451.249L83.5524 451.928ZM84.2052 453.032L83.2609 453.361C84.508 456.941 84.581 460.083 84.0362 462.652L85.0144 462.86L85.9926 463.067C86.616 460.128 86.5122 456.615 85.1496 452.703L84.2052 453.032ZM85.0144 462.86L84.1729 463.4C85.9128 466.11 86.8492 469.336 86.8492 473.005H87.8492H88.8492C88.8492 468.984 87.8189 465.377 85.8559 462.32L85.0144 462.86ZM87.8492 473.005H86.8492C86.8492 478.673 85.7498 482.822 83.7786 485.8C81.8202 488.759 78.9328 490.667 75.1402 491.735L75.4113 492.698L75.6824 493.661C79.8424 492.489 83.174 490.338 85.4464 486.904C87.706 483.49 88.8492 478.912 88.8492 473.005H87.8492ZM75.4113 492.698L74.444 492.951C74.7545 494.137 74.9204 495.477 74.9204 496.95H75.9204H76.9204C76.9204 495.329 76.738 493.816 76.3787 492.445L75.4113 492.698ZM75.9204 496.95H74.9204C74.9204 498.996 74.9151 500.948 74.9017 503.136L75.9017 503.142L76.9016 503.148C76.9151 500.956 76.9204 499 76.9204 496.95H75.9204ZM75.9017 503.142H74.9017C74.9017 503.722 74.8964 504.346 74.8883 505.309L75.8883 505.317L76.8882 505.326C76.8963 504.366 76.9017 503.733 76.9017 503.142H75.9017ZM75.8883 505.317L75.6455 506.287C75.9914 506.374 76.3322 506.603 76.5911 506.976L77.4126 506.406L78.234 505.835C77.7246 505.101 76.9887 504.562 76.131 504.347L75.8883 505.317ZM77.4126 506.406L76.5911 506.976C76.8513 507.351 77.0019 507.835 76.9978 508.348L77.9978 508.356L78.9978 508.364C79.005 507.46 78.7423 506.567 78.234 505.835L77.4126 506.406ZM77.9978 508.356L76.9978 508.348C76.9937 508.861 76.8354 509.341 76.5703 509.709L77.3815 510.293L78.1927 510.878C78.7136 510.156 78.9905 509.267 78.9978 508.364L77.9978 508.356ZM77.3815 510.293L76.5703 509.709C76.3065 510.075 75.9636 510.296 75.6176 510.375L75.84 511.349L76.0625 512.324C76.9247 512.128 77.6705 511.603 78.1927 510.878L77.3815 510.293ZM75.84 511.349L75.6169 510.375C74.4056 510.652 73.4166 510.327 72.7171 509.677C71.9994 509.011 71.5241 507.94 71.5241 506.651H70.5241H69.5241C69.5241 508.422 70.1795 510.05 71.3561 511.143C72.5509 512.252 74.22 512.746 76.0632 512.324L75.84 511.349ZM70.5241 506.651L71.5241 506.655L71.5294 505.278L70.5294 505.274L69.5294 505.27L69.5241 506.647L70.5241 506.651ZM70.5294 505.274L71.5294 505.28L71.5428 503.108L70.5428 503.102L69.5428 503.096L69.5294 505.268L70.5294 505.274ZM70.5428 503.102L71.5428 503.108C71.5562 500.929 71.5643 498.986 71.5643 496.95H70.5643H69.5643C69.5643 498.98 69.5562 500.919 69.5428 503.096L70.5428 503.102ZM70.5643 496.95H71.5643C71.5643 494.716 71.0627 492.976 70.1274 492.047L69.4228 492.757L68.7182 493.466C69.0798 493.825 69.5643 494.889 69.5643 496.95H70.5643ZM69.4228 492.757L70.1269 492.046C69.5382 491.463 69.3614 490.578 69.578 489.772C69.7953 488.964 70.3409 488.439 71 488.354L70.8724 487.362L70.7448 486.37C69.0808 486.584 68.0161 487.878 67.6466 489.253C67.2764 490.631 67.5363 492.294 68.7187 493.467L69.4228 492.757ZM70.8724 487.362L71.0004 488.354C75.0782 487.827 78.2763 486.632 80.4219 484.12C82.5594 481.618 83.4904 477.998 83.4904 473.005H82.4904H81.4904C81.4904 477.803 80.586 480.849 78.9012 482.821C77.2246 484.783 74.6137 485.871 70.7444 486.37L70.8724 487.362ZM82.4904 473.005H83.4904C83.4904 469.856 82.5893 467.202 80.828 464.978L80.0441 465.599L79.2601 466.22C80.7195 468.062 81.4904 470.27 81.4904 473.005H82.4904ZM80.0441 465.599L80.8284 464.978C80.6024 464.693 80.4411 464.326 80.3771 463.916L79.3891 464.071L78.4011 464.225C78.5152 464.956 78.8079 465.648 79.2598 466.219L80.0441 465.599ZM79.3891 464.071L80.3771 463.916C80.313 463.507 80.3514 463.086 80.4843 462.706L79.5403 462.376L78.5964 462.046C78.3533 462.741 78.2869 463.495 78.4011 464.225L79.3891 464.071ZM79.5403 462.376L80.4846 462.705C80.9908 461.254 81.1853 459.403 80.7779 457.22L79.7949 457.404L78.8119 457.587C79.16 459.452 78.9794 460.948 78.5961 462.047L79.5403 462.376ZM79.7949 457.404L79.4688 456.458L79.442 456.468L79.7681 457.413L80.0941 458.358L80.1209 458.349L79.7949 457.404ZM79.7681 457.413L79.4586 456.462C77.9899 456.94 76.2267 457.943 74.1735 459.549L74.7897 460.337L75.4059 461.124C77.3611 459.594 78.9151 458.742 80.0776 458.364L79.7681 457.413ZM74.7897 460.337L74.1745 459.548C73.9718 459.707 73.7514 459.804 73.5306 459.846L73.7137 460.829L73.8969 461.812C74.4472 461.709 74.9613 461.471 75.4049 461.125L74.7897 460.337ZM73.7137 460.829L73.5306 459.846C73.3103 459.887 73.0847 459.872 72.8662 459.801L72.5577 460.753L72.2493 461.704C72.7826 461.877 73.3461 461.914 73.8969 461.812L73.7137 460.829ZM72.5577 460.753L72.8615 459.8C70.5019 459.048 68.0617 458.669 65.6094 458.677L65.6127 459.677L65.6159 460.677C67.8574 460.67 70.0906 461.016 72.254 461.705L72.5577 460.753ZM65.6127 459.677V458.677C63.1278 458.677 60.6598 459.056 58.3582 459.805L58.6676 460.756L58.977 461.707C61.0696 461.026 63.3281 460.677 65.6127 460.677V459.677ZM58.6676 460.756L58.3611 459.804C58.1437 459.874 57.9193 459.888 57.7002 459.847L57.5175 460.83L57.3347 461.813C57.8827 461.915 58.4433 461.878 58.9741 461.708L58.6676 460.756ZM57.5175 460.83L57.7002 459.847C57.4805 459.806 57.2613 459.709 57.0593 459.553L56.4464 460.343L55.8334 461.133C56.2756 461.476 56.7873 461.712 57.3347 461.813L57.5175 460.83ZM56.4464 460.343L57.0585 459.552C54.9922 457.952 53.2247 456.954 51.7445 456.474L51.4358 457.425L51.1271 458.376C52.305 458.759 53.8653 459.609 55.8342 461.134L56.4464 460.343ZM51.4358 457.425L50.4535 457.238C50.0393 459.413 50.2378 461.258 50.7404 462.704L51.685 462.376L52.6296 462.048C52.2481 460.95 52.066 459.461 52.4182 457.612L51.4358 457.425ZM51.685 462.376L50.7406 462.705C50.8728 463.085 50.9107 463.505 50.8463 463.914L51.8342 464.07L52.8221 464.225C52.9368 463.495 52.8713 462.742 52.6294 462.047L51.685 462.376ZM51.8342 464.07L50.8463 463.914C50.782 464.323 50.6205 464.69 50.3947 464.975L51.1786 465.596L51.9625 466.217C52.4143 465.646 52.7073 464.955 52.8221 464.225L51.8342 464.07ZM51.1786 465.596L50.3949 464.974C48.6437 467.184 47.7323 469.881 47.7323 473.002H48.7323H49.7323C49.7323 470.294 50.5143 468.044 51.9623 466.217L51.1786 465.596ZM48.7323 473.002H47.7323C47.7323 477.987 48.6642 481.606 50.796 484.11C52.9363 486.624 56.1243 487.825 60.1845 488.351L60.3128 487.359L60.4411 486.367C56.5942 485.869 53.992 484.779 52.3189 482.813C50.6371 480.838 49.7323 477.79 49.7323 473.002H48.7323ZM60.3128 487.359L60.1849 488.351C60.8428 488.435 61.3884 488.959 61.6071 489.766C61.8251 490.569 61.6513 491.452 61.0662 492.037L61.7731 492.744L62.4799 493.452C63.6552 492.277 63.9101 490.616 63.5373 489.242C63.1652 487.87 62.1005 486.581 60.4406 486.367L60.3128 487.359ZM61.7731 492.744L61.0656 492.037C60.6269 492.477 60.2811 493.238 60.0455 494.021C59.7958 494.851 59.6209 495.869 59.6209 496.946H60.6209H61.6209C61.6209 496.077 61.7635 495.253 61.9606 494.597C62.1718 493.896 62.4021 493.529 62.4805 493.451L61.7731 492.744ZM60.6209 496.946H59.6209V506.651H60.6209H61.6209V496.946H60.6209ZM60.6209 506.651H59.6209C59.6209 507.927 59.1528 508.978 58.4441 509.639C57.7503 510.287 56.767 510.62 55.5664 510.378L55.3692 511.359L55.172 512.339C56.9884 512.704 58.631 512.201 59.8088 511.102C60.9716 510.016 61.6209 508.41 61.6209 506.651H60.6209ZM55.3692 511.359L55.5671 510.378C55.2182 510.308 54.8702 510.094 54.6 509.732L53.7983 510.329L52.9966 510.927C53.5346 511.649 54.2972 512.162 55.1713 512.339L55.3692 511.359ZM53.7983 510.329L54.6 509.732C54.3283 509.367 54.1627 508.886 54.1536 508.369L53.1537 508.387L52.1539 508.405C52.17 509.315 52.4602 510.208 52.9966 510.927L53.7983 510.329ZM53.1537 508.387L54.1536 508.369C54.1444 507.852 54.2928 507.362 54.5535 506.982L53.7289 506.416L52.9044 505.85C52.396 506.591 52.1377 507.494 52.1539 508.405L53.1537 508.387ZM53.7289 506.416L54.5535 506.982C54.813 506.604 55.1565 506.371 55.5051 506.284L55.2621 505.314L55.019 504.344C54.1543 504.561 53.414 505.108 52.9044 505.85L53.7289 506.416ZM55.2621 505.314H56.2621V502.264H55.2621H54.2621V505.314H55.2621ZM55.2621 502.264L55.1852 501.267C52.915 501.442 51.1713 501.008 49.8326 499.977L49.2226 500.77L48.6126 501.562C50.4518 502.978 52.7326 503.462 55.3389 503.261L55.2621 502.264Z" fill="#FAC7EF" mask="url(#path-13-inside-2_265_97)"/>
</g>
<g opacity="0.75">
<path d="M359.25 587.98C357.747 588.96 356.02 589.75 354.223 590.38C349.449 592.06 343.183 593 336.5 593C329.817 593 323.541 592.05 318.777 590.38C316.99 589.75 315.253 588.96 313.75 587.98V596.2C313.75 600.62 323.937 604.2 336.5 604.2C349.063 604.2 359.25 600.62 359.25 596.2V587.98ZM359.25 580.2V575.4C359.25 570.98 349.063 567.4 336.5 567.4C323.937 567.4 313.75 570.98 313.75 575.4V580.2C313.75 584.62 323.937 588.2 336.5 588.2C349.063 588.2 359.25 584.62 359.25 580.2ZM354.223 606.38C349.459 608.05 343.193 609 336.5 609C329.807 609 323.541 608.05 318.777 606.38C316.99 605.75 315.253 604.96 313.75 603.98V610.6C313.75 615.02 323.937 618.6 336.5 618.6C349.063 618.6 359.25 615.02 359.25 610.6V603.98C357.747 604.96 356.02 605.75 354.223 606.38Z" fill="#FAC7EF"/>
</g>
<g opacity="0.75">
<path d="M553.874 258.835L532.969 231.588H526.588V254.176H532.235V239.906L549.422 262.305C544.484 265.243 538.612 266.189 533.001 264.95C527.391 263.711 522.463 260.38 519.222 255.636C515.98 250.892 514.668 245.091 515.554 239.414C516.439 233.737 519.454 228.61 523.986 225.078C528.517 221.545 534.225 219.873 539.946 220.4C545.668 220.928 550.973 223.616 554.782 227.918C558.592 232.219 560.619 237.811 560.45 243.554C560.282 249.298 557.932 254.761 553.877 258.832M537.882 271.117C553.476 271.117 566.117 258.476 566.117 242.882C566.117 227.288 553.476 214.647 537.882 214.647C522.288 214.647 509.647 227.288 509.647 242.882C509.647 258.476 522.288 271.117 537.882 271.117ZM543.529 242.882V231.588H549.176V242.882H543.529Z" fill="#FAC7EF"/>
</g>
<g opacity="0.75">
<path fill-rule="evenodd" clip-rule="evenodd" d="M86.8723 52.4521C86.5188 52.4523 86.1698 52.53 85.8496 52.6796C85.5294 52.8291 85.2458 53.047 85.0188 53.3179C84.7918 53.5888 84.627 53.9062 84.5357 54.2476C84.4445 54.589 84.4292 54.9463 84.4908 55.2943L90.2992 88.2084C90.3999 88.797 90.7213 89.3314 91.1937 89.6954L108.619 103.248C109.044 103.579 109.567 103.759 110.106 103.759C110.644 103.759 111.168 103.579 111.593 103.248L129.018 89.6954C129.488 89.3261 129.806 88.7969 129.912 88.2084L135.721 55.2943C135.782 54.9463 135.767 54.589 135.676 54.2476C135.585 53.9062 135.42 53.5888 135.193 53.3179C134.966 53.047 134.682 52.8291 134.362 52.6796C134.042 52.53 133.693 52.4523 133.339 52.4521H86.8723ZM94.9033 86.4504L89.7571 57.2924H130.454L125.308 86.4504L110.106 98.2685L94.9033 86.4504ZM100.425 60.6806C99.6549 60.6806 98.9162 60.9866 98.3716 61.5312C97.8269 62.0759 97.5209 62.8146 97.5209 63.5848C97.5209 64.355 97.8269 65.0937 98.3716 65.6384C98.9162 66.183 99.6549 66.489 100.425 66.489H109.66L102.76 70.8027C102.225 71.1368 101.814 71.6358 101.588 72.2244C101.362 72.8129 101.334 73.459 101.507 74.0651C101.681 74.6712 102.047 75.2043 102.55 75.584C103.054 75.9636 103.667 76.1692 104.297 76.1696H114.946V81.4939L110.106 85.1261L104.104 80.6227C103.799 80.3939 103.451 80.2274 103.082 80.1327C102.713 80.0381 102.328 80.0171 101.951 80.071C101.573 80.125 101.21 80.2527 100.882 80.4471C100.553 80.6414 100.267 80.8984 100.038 81.2035C99.8091 81.5086 99.6426 81.8558 99.5479 82.2253C99.4533 82.5947 99.4323 82.9792 99.4862 83.3567C99.5402 83.7343 99.668 84.0975 99.8623 84.4257C100.057 84.7539 100.314 85.0406 100.619 85.2694L108.363 91.0778C109.397 91.8522 110.814 91.8522 111.848 91.0778L119.593 85.2694C119.953 84.9989 120.246 84.6481 120.448 84.2448C120.649 83.8416 120.754 83.3969 120.754 82.946V73.2654C120.754 72.4952 120.448 71.7565 119.904 71.2119C119.359 70.6672 118.62 70.3612 117.85 70.3612H114.423L121.324 66.0476C121.858 65.7134 122.27 65.2144 122.496 64.6258C122.722 64.0373 122.75 63.3912 122.576 62.7851C122.403 62.179 122.037 61.6459 121.533 61.2662C121.03 60.8866 120.417 60.681 119.786 60.6806H100.425Z" fill="#FAC7EF"/>
</g>
<g opacity="0.75" clip-path="url(#clip0_265_97)">
<path d="M442.882 426.553C433.85 426.553 428.196 431.074 425.941 440.106C429.329 435.585 433.279 433.89 437.8 435.023C440.373 435.669 442.215 437.543 444.259 439.608C447.583 442.975 451.427 446.882 459.823 446.882C468.855 446.882 474.509 442.361 476.764 433.329C473.376 437.85 469.427 439.545 464.906 438.412C462.333 437.766 460.49 435.892 458.447 433.827C455.122 430.46 451.279 426.553 442.882 426.553ZM425.941 446.882C416.909 446.882 411.255 451.403 409 460.435C412.388 455.914 416.338 454.22 420.859 455.353C423.432 455.999 425.274 457.873 427.318 459.937C430.642 463.304 434.486 467.211 442.882 467.211C451.914 467.211 457.568 462.69 459.823 453.659C456.435 458.18 452.486 459.874 447.964 458.741C445.392 458.095 443.549 456.221 441.506 454.156C438.181 450.789 434.337 446.882 425.941 446.882Z" fill="#FAC7EF"/>
</g>
</g>
<path opacity="0.2" d="M482.929 63.0823C482.705 63.0823 482.489 63.1716 482.33 63.3304C482.172 63.4893 482.082 63.7047 482.082 63.9294V96.2868C482.082 96.5918 482.245 96.8696 482.506 97.0221L498.969 106.516C499.095 106.589 499.238 106.628 499.383 106.63C499.528 106.631 499.672 106.596 499.799 106.526L517.218 96.9814C517.352 96.9083 517.463 96.8004 517.541 96.6692C517.618 96.5381 517.659 96.3884 517.659 96.236V63.9294C517.659 63.7047 517.569 63.4893 517.41 63.3304C517.252 63.1716 517.036 63.0823 516.812 63.0823H482.929ZM477 63.9294C477 60.6564 479.656 58 482.929 58H516.812C520.085 58 522.741 60.6564 522.741 63.9294V96.2394C522.741 97.3023 522.454 98.3455 521.913 99.2598C521.371 100.174 520.593 100.926 519.661 101.437L502.242 110.982C501.349 111.472 500.345 111.723 499.327 111.713C498.309 111.702 497.31 111.429 496.428 110.921L479.968 101.423C479.066 100.903 478.317 100.155 477.795 99.253C477.274 98.3513 477 97.3283 477 96.2868V63.9294ZM489.706 72.3999C489.706 71.726 489.974 71.0796 490.45 70.603C490.927 70.1265 491.573 69.8588 492.247 69.8588H507.884C508.558 69.8588 509.204 70.1265 509.68 70.603C510.157 71.0796 510.425 71.726 510.425 72.3999C510.425 73.0739 510.157 73.7202 509.68 74.1968C509.204 74.6733 508.558 74.9411 507.884 74.9411H494.788V80.7417H507.884C508.558 80.7417 509.204 81.0094 509.68 81.486C510.157 81.9626 510.425 82.6089 510.425 83.2829V93.0545C510.425 93.5263 510.294 93.9889 510.046 94.3904C509.798 94.792 509.444 95.1166 509.022 95.328L501.202 99.238C500.85 99.4139 500.461 99.5056 500.067 99.5056C499.673 99.5056 499.284 99.4139 498.932 99.238L491.112 95.328C490.69 95.1173 490.335 94.7934 490.087 94.3925C489.838 93.9916 489.706 93.5295 489.706 93.0579V91.0995C489.706 90.4255 489.974 89.7792 490.45 89.3026C490.927 88.826 491.573 88.5583 492.247 88.5583C492.921 88.5583 493.567 88.826 494.044 89.3026C494.52 89.7792 494.788 90.4255 494.788 91.0995V91.4857L500.067 94.1252L505.342 91.4823V85.824H492.247C491.573 85.824 490.927 85.5563 490.45 85.0797C489.974 84.6032 489.706 83.9568 489.706 83.2829V72.3999Z" fill="#FAC7EF"/>
<path opacity="0.2" d="M426.105 184.172C425.292 184.172 424.467 183.954 423.751 183.541L416.261 179.111C415.144 178.479 415.691 178.261 416.055 178.14C417.548 177.618 417.851 177.508 419.441 176.598C419.611 176.501 419.83 176.537 420 176.646L425.753 180.057C425.96 180.179 426.251 180.179 426.445 180.057L448.865 167.118C449.072 166.996 449.205 166.754 449.205 166.511V140.631C449.205 140.376 449.072 140.146 448.853 140.012L426.445 127.085C426.239 126.963 425.96 126.963 425.753 127.085L403.358 140.024C403.139 140.146 403.006 140.389 403.006 140.643V166.511C403.006 166.754 403.139 166.996 403.358 167.106L409.5 170.65C412.838 172.313 414.877 170.359 414.877 168.38V142.841C414.877 142.476 415.169 142.197 415.533 142.197H418.373C418.725 142.197 419.029 142.476 419.029 142.841V168.392C419.029 172.835 416.601 175.384 412.389 175.384C411.09 175.384 410.07 175.384 407.23 173.976L401.355 170.589C399.898 169.752 399 168.186 399 166.499V140.631C399 138.956 399.898 137.378 401.355 136.541L423.751 123.601C425.171 122.8 427.052 122.8 428.46 123.601L450.88 136.553C452.337 137.39 453.235 138.956 453.235 140.643V166.511C453.235 168.186 452.337 169.752 450.88 170.601L428.46 183.541C427.744 183.954 426.931 184.172 426.105 184.172ZM444.204 158.669C444.204 153.826 440.927 152.539 434.044 151.629C427.077 150.706 426.373 150.233 426.373 148.606C426.373 147.259 426.967 145.462 432.126 145.462C436.727 145.462 438.426 146.458 439.13 149.565C439.191 149.857 439.458 150.075 439.761 150.075H442.675C442.857 150.075 443.027 150.002 443.148 149.869C443.269 149.735 443.33 149.553 443.318 149.371C442.869 144.018 439.312 141.53 432.126 141.53C425.729 141.53 421.918 144.224 421.918 148.752C421.918 153.656 425.717 155.016 431.847 155.622C439.191 156.339 439.761 157.419 439.761 158.863C439.761 161.364 437.746 162.432 433.024 162.432C427.089 162.432 425.79 160.939 425.353 157.989C425.304 157.674 425.037 157.443 424.71 157.443H421.808C421.444 157.443 421.165 157.735 421.165 158.087C421.165 161.862 423.216 166.365 433.037 166.365C440.126 166.353 444.204 163.549 444.204 158.669Z" fill="#FAC7EF"/>
<defs>
<clipPath id="clip0_265_97">
<rect width="67.7643" height="67.7643" fill="white" transform="translate(409 413)"/>
</clipPath>
</defs>
</svg>
