<svg width="672" height="501" viewBox="0 0 672 501" fill="none" xmlns="http://www.w3.org/2000/svg">
<g opacity="0.2">
<g opacity="0.5">
<path d="M333.589 1.5C425.432 1.50007 508.517 27.9584 568.603 70.6602C628.691 113.364 665.677 172.223 665.677 237.076C665.677 301.929 628.691 360.787 568.603 403.491C508.517 446.193 425.432 472.651 333.589 472.651C241.746 472.651 158.661 446.193 98.5752 403.491C38.4864 360.787 1.50015 301.929 1.5 237.076C1.5 172.223 38.4863 113.364 98.5752 70.6602C158.661 27.9585 241.746 1.5 333.589 1.5Z" stroke="#FAC7EF" stroke-width="3"/>
<path d="M340.823 50.4864C414.059 50.4865 480.257 71.5866 528.081 105.574C575.91 139.566 605.193 186.296 605.193 237.647C605.193 288.997 575.911 335.728 528.081 369.72C480.257 403.708 414.059 424.808 340.823 424.808C267.587 424.808 201.389 403.707 153.565 369.72C105.736 335.728 76.4521 288.997 76.4521 237.647C76.4523 186.296 105.736 139.566 153.565 105.574C201.389 71.5867 267.587 50.4864 340.823 50.4864Z" stroke="#FAC7EF" stroke-width="5"/>
<path d="M341.626 87.0475C399.546 87.0475 451.878 103.736 489.665 130.59C527.458 157.449 550.534 194.325 550.534 234.791C550.534 275.257 527.458 312.132 489.665 338.991C451.878 365.845 399.546 382.534 341.626 382.534C283.707 382.534 231.375 365.845 193.588 338.991C155.796 312.132 132.72 275.257 132.72 234.791C132.72 194.325 155.796 157.449 193.588 130.59C231.375 103.736 283.707 87.0476 341.626 87.0475Z" stroke="#FAC7EF" stroke-width="5"/>
</g>
<g opacity="0.75">
<path d="M634.221 316.836C633.371 317.327 632.476 318.679 632.371 321.634C632.342 322.303 632.049 322.933 631.556 323.388C631.064 323.842 630.412 324.084 629.743 324.06C629.074 324.037 628.44 323.75 627.982 323.261C627.523 322.773 627.275 322.124 627.292 321.454C627.421 317.836 628.566 314.234 631.68 312.435C634.804 310.632 638.507 311.452 641.713 313.16C642.308 313.477 642.752 314.018 642.948 314.663C643.145 315.308 643.077 316.004 642.76 316.599C642.442 317.194 641.902 317.638 641.257 317.835C640.612 318.031 639.916 317.963 639.321 317.646C636.702 316.247 635.075 316.348 634.221 316.836ZM647.845 321.237C648.103 321.025 648.399 320.865 648.718 320.767C649.037 320.669 649.372 320.634 649.705 320.666C650.037 320.697 650.36 320.794 650.655 320.95C650.949 321.106 651.211 321.319 651.423 321.576C653.408 323.985 655.187 326.555 656.743 329.261C660.267 335.366 662.438 341.621 663.025 346.866C663.316 349.485 663.228 351.979 662.618 354.117C661.998 356.268 660.799 358.216 658.786 359.379C656.35 360.785 653.534 360.588 650.963 359.65C648.381 358.708 645.721 356.929 643.187 354.615C642.696 354.159 642.406 353.527 642.379 352.858C642.351 352.189 642.589 351.536 643.041 351.042C643.492 350.547 644.12 350.25 644.789 350.216C645.458 350.183 646.113 350.414 646.612 350.861C648.848 352.9 650.946 354.235 652.701 354.872C654.469 355.516 655.581 355.363 656.245 354.977C656.8 354.655 657.363 354.001 657.729 352.717C658.102 351.416 658.22 349.634 657.973 347.432C657.481 343.03 655.601 337.447 652.338 331.802C650.926 329.346 649.311 327.012 647.51 324.826C647.297 324.568 647.137 324.272 647.039 323.953C646.941 323.634 646.907 323.299 646.938 322.966C646.97 322.634 647.066 322.311 647.223 322.016C647.379 321.721 647.592 321.46 647.849 321.248" fill="#FAC7EF"/>
<path d="M666.918 336.603C666.918 335.62 666.193 334.167 663.689 332.605C663.406 332.428 663.16 332.197 662.966 331.925C662.772 331.654 662.633 331.346 662.558 331.021C662.483 330.696 662.473 330.359 662.528 330.029C662.583 329.7 662.702 329.385 662.879 329.101C663.236 328.529 663.806 328.123 664.463 327.971C664.788 327.896 665.125 327.885 665.455 327.94C665.784 327.995 666.099 328.115 666.382 328.292C669.452 330.213 672 333.005 672 336.603C672 340.208 669.439 343.007 666.355 344.928C665.784 345.271 665.1 345.376 664.452 345.219C663.804 345.063 663.243 344.658 662.891 344.092C662.538 343.527 662.422 342.845 662.568 342.194C662.713 341.544 663.109 340.976 663.668 340.615C666.189 339.042 666.918 337.586 666.918 336.603ZM656.289 346.198C656.345 346.527 656.335 346.864 656.261 347.19C656.187 347.515 656.049 347.823 655.856 348.095C655.663 348.367 655.418 348.598 655.135 348.776C654.852 348.953 654.538 349.073 654.209 349.129C651.13 349.64 648.015 349.894 644.894 349.888C637.847 349.888 631.341 348.645 626.506 346.527C624.091 345.473 621.98 344.149 620.435 342.549C618.873 340.943 617.789 338.924 617.789 336.603C617.789 333.791 619.367 331.453 621.465 329.691C623.572 327.926 626.445 326.513 629.715 325.476C630.358 325.272 631.055 325.332 631.653 325.642C631.95 325.795 632.213 326.006 632.428 326.261C632.643 326.516 632.806 326.811 632.907 327.13C633.008 327.448 633.045 327.783 633.017 328.115C632.988 328.448 632.895 328.771 632.741 329.068C632.588 329.364 632.377 329.627 632.122 329.842C631.867 330.058 631.571 330.22 631.253 330.321C628.373 331.236 626.164 332.385 624.734 333.587C623.291 334.794 622.871 335.834 622.871 336.603C622.871 337.247 623.159 338.06 624.087 339.019C625.029 339.991 626.513 340.984 628.543 341.872C632.598 343.647 638.375 344.806 644.894 344.806C647.893 344.806 650.746 344.562 653.358 344.118C653.687 344.062 654.024 344.072 654.349 344.146C654.675 344.22 654.982 344.358 655.254 344.551C655.527 344.744 655.758 344.989 655.935 345.272C656.113 345.555 656.233 345.869 656.289 346.198Z" fill="#FAC7EF"/>
<path d="M634.296 354.981C635.143 355.472 636.766 355.57 639.375 354.184C639.67 354.028 639.992 353.931 640.325 353.899C640.657 353.867 640.992 353.901 641.311 353.999C641.631 354.096 641.927 354.256 642.185 354.468C642.442 354.681 642.656 354.942 642.812 355.236C642.969 355.531 643.066 355.854 643.098 356.186C643.13 356.519 643.096 356.854 642.998 357.173C642.9 357.492 642.741 357.789 642.528 358.047C642.316 358.304 642.055 358.517 641.76 358.674C638.562 360.371 634.869 361.181 631.755 359.385C628.631 357.579 627.486 353.964 627.367 350.332C627.355 349.665 627.605 349.019 628.065 348.535C628.524 348.051 629.156 347.768 629.823 347.745C630.49 347.723 631.139 347.964 631.63 348.416C632.121 348.869 632.414 349.496 632.446 350.163C632.548 353.127 633.442 354.489 634.296 354.981ZM631.301 340.977C630.669 340.743 630.156 340.267 629.876 339.654C629.595 339.042 629.569 338.343 629.803 337.711C630.826 334.95 632.165 332.097 633.801 329.264C637.325 323.159 641.655 318.151 645.904 315.02C648.025 313.458 650.227 312.289 652.386 311.75C654.557 311.208 656.848 311.273 658.857 312.435C661.297 313.841 662.53 316.375 663.004 319.076C663.482 321.783 663.269 324.975 662.53 328.326C662.47 328.663 662.343 328.984 662.156 329.271C661.969 329.558 661.726 329.803 661.441 329.994C661.157 330.184 660.836 330.315 660.5 330.379C660.164 330.442 659.818 330.437 659.484 330.364C659.149 330.291 658.833 330.151 658.554 329.952C658.275 329.754 658.039 329.501 657.861 329.209C657.682 328.917 657.564 328.592 657.514 328.253C657.464 327.914 657.483 327.569 657.57 327.238C658.217 324.283 658.325 321.796 658 319.953C657.675 318.103 656.983 317.219 656.319 316.836C655.764 316.514 654.913 316.355 653.619 316.68C652.304 317.009 650.705 317.798 648.919 319.113C645.355 321.735 641.459 326.16 638.203 331.805C636.779 334.257 635.563 336.825 634.567 339.48C634.332 340.111 633.856 340.624 633.244 340.905C632.631 341.185 631.932 341.212 631.301 340.977Z" fill="#FAC7EF"/>
<path d="M649.841 336.129C649.841 337.351 649.356 338.523 648.491 339.387C647.627 340.251 646.455 340.737 645.233 340.737C644.011 340.737 642.839 340.251 641.975 339.387C641.111 338.523 640.625 337.351 640.625 336.129C640.625 334.906 641.111 333.734 641.975 332.87C642.839 332.006 644.011 331.521 645.233 331.521C646.455 331.521 647.627 332.006 648.491 332.87C649.356 333.734 649.841 334.906 649.841 336.129Z" fill="#FAC7EF"/>
</g>
<g opacity="0.75" clip-path="url(#clip0_11_207)">
<path d="M535.45 278.438C534.636 278.438 533.811 278.219 533.095 277.806L525.605 273.376C524.489 272.745 525.035 272.526 525.399 272.405C526.892 271.883 527.195 271.773 528.786 270.863C528.956 270.766 529.174 270.802 529.344 270.912L535.098 274.323C535.304 274.444 535.595 274.444 535.79 274.323L558.21 261.383C558.416 261.261 558.549 261.019 558.549 260.776V234.896C558.549 234.641 558.416 234.411 558.197 234.277L535.79 221.35C535.583 221.228 535.304 221.228 535.098 221.35L512.702 234.289C512.483 234.411 512.35 234.654 512.35 234.909V260.776C512.35 261.019 512.483 261.261 512.702 261.371L518.844 264.915C522.182 266.578 524.222 264.624 524.222 262.645V237.106C524.222 236.741 524.513 236.462 524.877 236.462H527.717C528.069 236.462 528.373 236.741 528.373 237.106V262.657C528.373 267.1 525.945 269.649 521.733 269.649C520.434 269.649 519.415 269.649 516.574 268.241L510.699 264.854C509.242 264.017 508.344 262.451 508.344 260.764V234.896C508.344 233.221 509.242 231.643 510.699 230.806L533.095 217.866C534.515 217.065 536.397 217.065 537.805 217.866L560.225 230.818C561.681 231.655 562.579 233.221 562.579 234.909V260.776C562.579 262.451 561.681 264.017 560.225 264.867L537.805 277.806C537.088 278.219 536.275 278.438 535.45 278.438ZM553.548 252.934C553.548 248.091 550.271 246.804 543.388 245.894C536.421 244.971 535.717 244.498 535.717 242.871C535.717 241.524 536.312 239.728 541.47 239.728C546.071 239.728 547.77 240.723 548.474 243.83C548.535 244.122 548.802 244.34 549.106 244.34H552.019C552.201 244.34 552.371 244.267 552.492 244.134C552.614 244 552.674 243.818 552.662 243.636C552.213 238.283 548.656 235.795 541.47 235.795C535.073 235.795 531.262 238.489 531.262 243.017C531.262 247.921 535.061 249.281 541.191 249.888C548.535 250.604 549.106 251.684 549.106 253.129C549.106 255.629 547.091 256.697 542.369 256.697C536.433 256.697 535.134 255.204 534.697 252.255C534.649 251.939 534.382 251.708 534.054 251.708H531.153C530.788 251.708 530.509 252 530.509 252.352C530.509 256.127 532.561 260.63 542.381 260.63C549.47 260.618 553.548 257.814 553.548 252.934Z" fill="#FAC7EF"/>
</g>
<path opacity="0.75" d="M311.437 432.419L317.425 445.245L311.027 458.732H315.538L319.968 449.678L324.397 458.732H328.908L322.51 445.245L328.416 432.419H323.905L319.968 440.813L316.03 432.419H311.437ZM298.97 432.985C303.826 430.935 307.555 433.55 308.648 436.568L305.121 439.209C304.6 438.127 303.489 437.021 302.206 436.942C301.042 436.87 299.961 437.569 299.926 439.379C299.995 442.015 303.01 442.015 306.625 444.648C309.274 446.577 309.77 448.051 310.015 450.717C310.196 452.692 309.873 456.105 306.493 457.829C302.815 459.706 296.289 459.022 294.048 453.356L297.739 450.904C299.585 454.936 304.371 454.926 305.311 452.271C306.229 449.678 303.46 448.664 300.025 446.912C298.531 446.026 296.219 444.631 295.525 441.221C295.001 438.648 295.468 434.76 298.97 432.985ZM281.335 451.375L277.562 454.016C279.134 457.427 281.664 458.974 284.78 458.873C288.778 458.744 290.955 456.131 291.424 452.13V432.607H286.83V451.658C286.83 451.658 286.61 453.064 285.908 453.592C285.139 454.169 283.959 454.087 283.396 453.863C282.329 453.438 281.335 451.375 281.335 451.375ZM335.306 458.26V400.919C335.221 396.984 333.021 392.7 328.088 392.619H278.218C274.404 392.586 271.051 396.018 271 400.919V458.26C271.051 463.161 274.404 466.593 278.218 466.56H328.088C333.021 466.479 335.221 462.195 335.306 458.26ZM331.533 458.26C331.5 459.844 330.818 461.898 328.088 462.127H278.218C276.424 462.111 274.896 460.713 274.855 458.26V400.919C274.896 398.466 276.424 397.068 278.218 397.052H328.088C330.818 397.281 331.5 399.334 331.533 400.919V458.26Z" fill="#FAC7EF"/>
<g opacity="0.75">
<path d="M401.563 72.7675H373.328C370.833 72.7675 368.81 74.7901 368.81 77.2851V105.52C368.81 108.015 370.833 110.038 373.328 110.038H401.563C404.058 110.038 406.08 108.015 406.08 105.52V77.2851C406.08 74.7901 404.058 72.7675 401.563 72.7675Z" stroke="#FAC7EF" stroke-width="3" stroke-linecap="round" stroke-linejoin="round"/>
<path d="M399.304 89.7086H394.786C394.187 89.7086 393.613 89.9466 393.189 90.3702C392.765 90.7938 392.527 91.3683 392.527 91.9674V94.2262C392.527 94.8253 392.765 95.3998 393.189 95.8234C393.613 96.2471 394.187 96.485 394.786 96.485H397.045C397.644 96.485 398.219 96.723 398.642 97.1466C399.066 97.5702 399.304 98.1448 399.304 98.7438V101.003C399.304 101.602 399.066 102.176 398.642 102.6C398.219 103.023 397.644 103.261 397.045 103.261H392.527M381.798 89.7086V103.261M377.281 89.7086H386.316" stroke="#FAC7EF" stroke-width="3" stroke-linecap="round" stroke-linejoin="round"/>
</g>
<path opacity="0.75" d="M184.833 293.317L160.885 320.847L163.916 324.332L187.859 296.802L184.833 293.317ZM160.885 331.302L184.828 358.838L187.859 355.348L163.916 327.817L160.885 331.302ZM193.925 358.833L217.869 331.307L214.838 327.817L190.895 355.348L193.925 358.833ZM217.869 320.842L193.925 293.317L190.895 296.802L214.838 324.332L217.869 320.842ZM217.869 331.307C218.466 330.621 218.94 329.8 219.264 328.903C219.587 328.006 219.754 327.044 219.754 326.072C219.754 325.101 219.587 324.139 219.264 323.242C218.94 322.344 218.466 321.529 217.869 320.842L214.838 324.327C215.037 324.556 215.196 324.828 215.304 325.128C215.412 325.427 215.468 325.748 215.468 326.072C215.468 326.397 215.412 326.718 215.304 327.017C215.196 327.316 215.037 327.588 214.838 327.817L217.869 331.307ZM184.828 358.838C185.425 359.525 186.139 360.07 186.919 360.442C187.7 360.814 188.536 361.005 189.381 361.005C190.226 361.005 191.063 360.814 191.843 360.442C192.623 360.07 193.333 359.525 193.93 358.838L190.895 355.353C190.695 355.582 190.463 355.764 190.203 355.889C189.942 356.013 189.663 356.077 189.381 356.077C189.099 356.077 188.82 356.013 188.56 355.889C188.299 355.764 188.063 355.582 187.864 355.353L184.828 358.838ZM160.885 320.847C160.287 321.534 159.813 322.354 159.49 323.251C159.166 324.149 159 325.111 159 326.082C159 327.054 159.166 328.015 159.49 328.913C159.813 329.81 160.287 330.626 160.885 331.312L163.916 327.822C163.716 327.593 163.558 327.326 163.45 327.027C163.342 326.727 163.286 326.406 163.286 326.082C163.286 325.758 163.342 325.437 163.45 325.138C163.558 324.838 163.716 324.561 163.916 324.332L160.885 320.847ZM187.859 296.807C188.058 296.577 188.295 296.395 188.555 296.271C188.816 296.147 189.095 296.083 189.377 296.083C189.659 296.083 189.938 296.147 190.198 296.271C190.459 296.395 190.695 296.577 190.895 296.807L193.925 293.317C193.328 292.63 192.615 292.084 191.834 291.713C191.054 291.341 190.217 291.149 189.373 291.149C188.528 291.149 187.691 291.341 186.911 291.713C186.13 292.084 185.421 292.63 184.824 293.317L187.859 296.807ZM179.285 303.18L183.572 308.11L186.607 304.62L182.32 299.69L179.285 303.18ZM189.377 313.754C188.808 313.754 188.263 313.494 187.861 313.032C187.459 312.57 187.233 311.943 187.233 311.289H182.946C182.946 313.25 183.624 315.131 184.83 316.518C186.036 317.904 187.671 318.683 189.377 318.683V313.754ZM191.52 311.289C191.52 311.943 191.295 312.57 190.893 313.032C190.491 313.494 189.945 313.754 189.377 313.754V318.683C191.082 318.683 192.718 317.904 193.924 316.518C195.13 315.131 195.808 313.25 195.808 311.289H191.52ZM189.377 308.824C189.945 308.824 190.491 309.084 190.893 309.546C191.295 310.009 191.52 310.635 191.52 311.289H195.808C195.808 309.328 195.13 307.447 193.924 306.061C192.718 304.674 191.082 303.895 189.377 303.895V308.824ZM189.377 303.895C187.671 303.895 186.036 304.674 184.83 306.061C183.624 307.447 182.946 309.328 182.946 311.289H187.233C187.233 310.635 187.459 310.009 187.861 309.546C188.263 309.084 188.808 308.824 189.377 308.824V303.895ZM192.146 317.964L198.577 325.358L201.608 321.868L195.177 314.474L192.146 317.964ZM202.238 328.542C201.67 328.542 201.124 328.282 200.722 327.82C200.32 327.358 200.095 326.731 200.095 326.077H195.808C195.808 328.038 196.485 329.919 197.691 331.306C198.897 332.692 200.533 333.471 202.238 333.471V328.542ZM204.382 326.077C204.382 326.731 204.156 327.358 203.754 327.82C203.352 328.282 202.807 328.542 202.238 328.542V333.471C203.944 333.471 205.579 332.692 206.785 331.306C207.991 329.919 208.669 328.038 208.669 326.077H204.382ZM202.238 323.613C202.807 323.613 203.352 323.872 203.754 324.334C204.156 324.797 204.382 325.424 204.382 326.077H208.669C208.669 324.116 207.991 322.236 206.785 320.849C205.579 319.462 203.944 318.683 202.238 318.683V323.613ZM202.238 318.683C200.533 318.683 198.897 319.462 197.691 320.849C196.485 322.236 195.808 324.116 195.808 326.077H200.095C200.095 325.424 200.32 324.797 200.722 324.334C201.124 323.872 201.67 323.613 202.238 323.613V318.683ZM187.233 316.219V335.936H191.52V316.219H187.233ZM189.377 343.33C188.808 343.33 188.263 343.07 187.861 342.608C187.459 342.146 187.233 341.519 187.233 340.865H182.946C182.946 342.826 183.624 344.707 184.83 346.094C186.036 347.48 187.671 348.259 189.377 348.259V343.33ZM191.52 340.865C191.52 341.519 191.295 342.146 190.893 342.608C190.491 343.07 189.945 343.33 189.377 343.33V348.259C191.082 348.259 192.718 347.48 193.924 346.094C195.13 344.707 195.808 342.826 195.808 340.865H191.52ZM189.377 338.401C189.945 338.401 190.491 338.66 190.893 339.123C191.295 339.585 191.52 340.212 191.52 340.865H195.808C195.808 338.904 195.13 337.024 193.924 335.637C192.718 334.25 191.082 333.471 189.377 333.471V338.401ZM189.377 333.471C187.671 333.471 186.036 334.25 184.83 335.637C183.624 337.024 182.946 338.904 182.946 340.865H187.233C187.233 340.212 187.459 339.585 187.861 339.123C188.263 338.66 188.808 338.401 189.377 338.401V333.471Z" fill="#FAC7EF"/>
<path opacity="0.75" d="M93.2199 394.295C92.4161 393.678 91.7248 392.893 90.9156 391.781C90.4957 391.19 90.0795 390.595 89.667 389.997C88.4265 388.225 87.6441 387.406 86.8376 387.07C86.4982 386.941 86.1848 386.735 85.9157 386.464C85.6466 386.194 85.4273 385.864 85.2707 385.495C85.1142 385.125 85.0235 384.723 85.004 384.313C84.9845 383.903 85.0366 383.492 85.1573 383.105C85.278 382.718 85.4648 382.363 85.7067 382.06C85.9485 381.758 86.2406 381.514 86.5657 381.343C86.8908 381.172 87.2424 381.078 87.5997 381.066C87.957 381.053 88.3128 381.124 88.6462 381.272C90.6611 382.104 92.0249 383.536 93.863 386.164C93.6111 385.804 94.774 387.48 95.0232 387.825C95.5323 388.524 95.9074 388.949 96.2021 389.174C96.7487 389.596 97.7776 389.778 99.2835 389.606C99.3478 388.429 99.5354 387.286 99.8247 386.232C91.8722 383.995 87.3708 378.099 87.3708 366.527C87.3708 362.707 88.3621 359.268 90.2056 356.385C89.6215 353.63 89.7099 350.3 91.0148 346.551C91.1629 346.127 91.3912 345.746 91.6831 345.435C91.9751 345.125 92.3234 344.894 92.7028 344.758C92.9198 344.684 93.0431 344.65 93.2601 344.613C95.4117 344.231 98.4502 345.137 102.41 347.989C104.77 347.354 107.186 347.036 109.61 347.04C112.054 347.04 114.484 347.361 116.802 347.989C120.759 345.115 123.806 344.209 125.971 344.613C126.199 344.654 126.394 344.705 126.555 344.767C126.927 344.908 127.267 345.141 127.552 345.45C127.838 345.758 128.06 346.135 128.205 346.554C129.51 350.3 129.599 353.627 129.014 356.382C130.866 359.265 131.849 362.682 131.849 366.527C131.849 378.102 127.364 383.98 119.411 386.22C119.746 387.498 119.92 388.925 119.92 390.471C119.92 392.52 119.915 394.473 119.902 396.664C119.902 397.249 119.896 397.878 119.888 398.839C120.49 398.989 121.028 399.374 121.413 399.927C121.797 400.481 122.003 401.169 121.998 401.878C121.992 402.586 121.774 403.27 121.381 403.815C120.988 404.36 120.444 404.733 119.84 404.871C116.785 405.571 114.524 403.232 114.524 400.173L114.529 398.796L114.543 396.624C114.556 394.446 114.564 392.505 114.564 390.471C114.564 388.324 114.071 386.922 113.423 386.278C111.652 384.522 112.549 381.183 114.872 380.884C122.82 379.858 126.49 376.318 126.49 366.527C126.49 363.585 125.654 361.154 124.044 359.121C123.705 358.692 123.478 358.163 123.389 357.593C123.3 357.023 123.352 356.435 123.54 355.898C123.985 354.622 124.173 352.95 123.795 350.925L123.768 350.935C122.452 351.363 120.794 352.29 118.79 353.858C118.467 354.111 118.099 354.279 117.714 354.35C117.328 354.422 116.934 354.396 116.558 354.274C114.296 353.553 111.96 353.192 109.613 353.199C107.228 353.199 104.865 353.563 102.668 354.277C102.293 354.398 101.901 354.423 101.517 354.352C101.134 354.281 100.768 354.114 100.446 353.865C98.4288 352.303 96.7648 351.378 95.4358 350.947C95.0527 352.959 95.2429 354.626 95.685 355.898C95.8721 356.435 95.9238 357.022 95.8342 357.591C95.7446 358.161 95.5174 358.69 95.1786 359.117C93.579 361.135 92.7323 363.609 92.7323 366.524C92.7323 376.296 96.4058 379.858 104.313 380.881C106.63 381.179 107.533 384.507 105.773 386.266C105.256 386.784 104.621 388.521 104.621 390.468V400.173C104.621 403.208 102.386 405.487 99.3692 404.88C98.7577 404.757 98.2024 404.393 97.7983 403.851C97.3942 403.309 97.1664 402.623 97.1537 401.909C97.1411 401.195 97.3444 400.498 97.7289 399.938C98.1135 399.377 98.6554 398.988 99.2621 398.836V395.786C96.8238 395.974 94.8115 395.515 93.2226 394.292" fill="#FAC7EF"/>
<g opacity="0.75">
<path d="M442.25 463.129C440.747 464.109 439.02 464.899 437.223 465.529C432.449 467.209 426.183 468.149 419.5 468.149C412.817 468.149 406.541 467.199 401.777 465.529C399.99 464.899 398.253 464.109 396.75 463.129V471.349C396.75 475.769 406.937 479.349 419.5 479.349C432.063 479.349 442.25 475.769 442.25 471.349V463.129ZM442.25 455.349V450.549C442.25 446.129 432.063 442.549 419.5 442.549C406.937 442.549 396.75 446.129 396.75 450.549V455.349C396.75 459.769 406.937 463.349 419.5 463.349C432.063 463.349 442.25 459.769 442.25 455.349ZM437.223 481.529C432.459 483.199 426.193 484.149 419.5 484.149C412.807 484.149 406.541 483.199 401.777 481.529C399.99 480.899 398.253 480.109 396.75 479.129V485.749C396.75 490.169 406.937 493.749 419.5 493.749C432.063 493.749 442.25 490.169 442.25 485.749V479.129C440.747 480.109 439.02 480.899 437.223 481.529Z" fill="#FAC7EF"/>
</g>
<g opacity="0.75">
<path d="M557.874 65.9843L536.969 38.7374H530.588V61.3255H536.235V47.0555L553.422 69.4544C548.484 72.3924 542.612 73.3381 537.001 72.0992C531.391 70.8602 526.463 67.5297 523.222 62.7856C519.98 58.0415 518.668 52.2404 519.554 46.5632C520.439 40.886 523.454 35.7594 527.986 32.2271C532.517 28.6947 538.225 27.0221 543.946 27.5498C549.668 28.0774 554.973 30.7656 558.782 35.0671C562.592 39.3687 564.619 44.9602 564.45 50.7035C564.282 56.4468 561.932 61.9102 557.877 65.9815M541.882 78.2666C557.476 78.2666 570.117 65.6257 570.117 50.0315C570.117 34.4372 557.476 21.7964 541.882 21.7964C526.288 21.7964 513.647 34.4372 513.647 50.0315C513.647 65.6257 526.288 78.2666 541.882 78.2666ZM547.529 50.0315V38.7374H553.176V50.0315H547.529Z" fill="#FAC7EF"/>
</g>
<g opacity="0.75">
<path d="M176.165 6.23165C175.94 6.23165 175.725 6.32089 175.566 6.47974C175.407 6.6386 175.318 6.85405 175.318 7.0787V39.4362C175.318 39.7411 175.48 40.0189 175.741 40.1714L192.204 49.6652C192.33 49.738 192.473 49.7772 192.618 49.7789C192.764 49.7807 192.907 49.745 193.035 49.6754L210.453 40.1308C210.587 40.0576 210.699 39.9498 210.776 39.8186C210.854 39.6874 210.894 39.5377 210.894 39.3853V7.0787C210.894 6.85405 210.805 6.6386 210.646 6.47974C210.487 6.32089 210.271 6.23165 210.047 6.23165H176.165ZM170.235 7.0787C170.235 3.80569 172.892 1.14932 176.165 1.14932H210.047C213.32 1.14932 215.976 3.80569 215.976 7.0787V39.3887C215.976 40.4516 215.69 41.4948 215.148 42.4092C214.606 43.3235 213.828 44.0755 212.896 44.5863L195.477 54.1309C194.585 54.6209 193.581 54.8727 192.562 54.862C191.544 54.8513 190.546 54.5785 189.663 54.0699L173.203 44.5727C172.301 44.0526 171.552 43.304 171.031 42.4023C170.51 41.5006 170.235 40.4776 170.235 39.4362V7.0787ZM182.941 15.5492C182.941 14.8753 183.209 14.2289 183.685 13.7524C184.162 13.2758 184.808 13.0081 185.482 13.0081H201.119C201.793 13.0081 202.439 13.2758 202.916 13.7524C203.392 14.2289 203.66 14.8753 203.66 15.5492C203.66 16.2232 203.392 16.8696 202.916 17.3461C202.439 17.8227 201.793 18.0904 201.119 18.0904H188.023V23.891H201.119C201.793 23.891 202.439 24.1588 202.916 24.6353C203.392 25.1119 203.66 25.7582 203.66 26.4322V36.2038C203.66 36.6756 203.529 37.1382 203.282 37.5397C203.034 37.9413 202.679 38.2659 202.257 38.4773L194.437 42.3873C194.085 42.5633 193.696 42.6549 193.302 42.6549C192.908 42.6549 192.52 42.5633 192.167 42.3873L184.347 38.4773C183.925 38.2667 183.57 37.9427 183.322 37.5418C183.074 37.1409 182.942 36.6788 182.941 36.2072V34.2488C182.941 33.5749 183.209 32.9285 183.685 32.4519C184.162 31.9754 184.808 31.7076 185.482 31.7076C186.156 31.7076 186.803 31.9754 187.279 32.4519C187.756 32.9285 188.023 33.5749 188.023 34.2488V34.6351L193.302 37.2745L198.578 34.6317V28.9734H185.482C184.808 28.9734 184.162 28.7056 183.685 28.2291C183.209 27.7525 182.941 27.1061 182.941 26.4322V15.5492Z" fill="#FAC7EF"/>
</g>
<g opacity="0.75">
<path fill-rule="evenodd" clip-rule="evenodd" d="M158.432 120.591C158.078 120.591 157.729 120.669 157.409 120.818C157.089 120.968 156.805 121.186 156.578 121.457C156.351 121.727 156.186 122.045 156.095 122.386C156.004 122.728 155.989 123.085 156.05 123.433L161.859 156.347C161.959 156.936 162.281 157.47 162.753 157.834L180.178 171.387C180.603 171.718 181.126 171.897 181.665 171.897C182.204 171.897 182.727 171.718 183.152 171.387L200.577 157.834C201.047 157.465 201.366 156.936 201.472 156.347L207.28 123.433C207.342 123.085 207.326 122.728 207.235 122.386C207.144 122.045 206.979 121.727 206.752 121.457C206.525 121.186 206.241 120.968 205.921 120.818C205.601 120.669 205.252 120.591 204.899 120.591H158.432ZM166.463 154.589L161.316 125.431H202.014L196.868 154.589L181.665 166.407L166.463 154.589ZM171.984 128.819C171.214 128.819 170.476 129.125 169.931 129.67C169.386 130.214 169.08 130.953 169.08 131.723C169.08 132.494 169.386 133.232 169.931 133.777C170.476 134.322 171.214 134.628 171.984 134.628H181.22L174.319 138.941C173.785 139.275 173.373 139.774 173.147 140.363C172.921 140.952 172.893 141.598 173.067 142.204C173.24 142.81 173.606 143.343 174.11 143.723C174.613 144.102 175.226 144.308 175.857 144.308H186.505V149.633L181.665 153.265L175.663 148.761C175.358 148.532 175.011 148.366 174.641 148.271C174.272 148.177 173.887 148.156 173.51 148.21C173.132 148.264 172.769 148.391 172.441 148.586C172.113 148.78 171.826 149.037 171.597 149.342C171.368 149.647 171.202 149.994 171.107 150.364C171.013 150.733 170.992 151.118 171.046 151.495C171.1 151.873 171.227 152.236 171.422 152.564C171.616 152.892 171.873 153.179 172.178 153.408L179.923 159.216C180.956 159.991 182.374 159.991 183.408 159.216L191.152 153.408C191.513 153.137 191.806 152.787 192.007 152.383C192.209 151.98 192.314 151.536 192.314 151.085V141.404C192.314 140.634 192.008 139.895 191.463 139.35C190.918 138.806 190.18 138.5 189.41 138.5H185.983L192.883 134.186C193.418 133.852 193.829 133.353 194.055 132.764C194.281 132.176 194.309 131.53 194.136 130.924C193.962 130.318 193.596 129.785 193.093 129.405C192.589 129.025 191.976 128.82 191.346 128.819H171.984Z" fill="#FAC7EF"/>
</g>
<g opacity="0.75" clip-path="url(#clip1_11_207)">
<path d="M500.882 363.702C491.85 363.702 486.196 368.223 483.941 377.255C487.329 372.734 491.279 371.04 495.8 372.173C498.373 372.819 500.215 374.693 502.259 376.757C505.583 380.124 509.427 384.031 517.823 384.031C526.855 384.031 532.509 379.51 534.764 370.479C531.376 375 527.427 376.694 522.906 375.561C520.333 374.915 518.49 373.041 516.447 370.976C513.122 367.609 509.279 363.702 500.882 363.702ZM483.941 384.031C474.909 384.031 469.255 388.553 467 397.584C470.388 393.063 474.338 391.369 478.859 392.502C481.432 393.148 483.274 395.022 485.318 397.087C488.642 400.454 492.486 404.361 500.882 404.361C509.914 404.361 515.568 399.84 517.823 390.808C514.435 395.329 510.486 397.023 505.964 395.89C503.392 395.244 501.549 393.37 499.506 391.306C496.181 387.939 492.337 384.031 483.941 384.031Z" fill="#FAC7EF"/>
</g>
</g>
<defs>
<clipPath id="clip0_11_207">
<rect width="54.3809" height="62.1496" fill="white" transform="translate(508.259 216.774)"/>
</clipPath>
<clipPath id="clip1_11_207">
<rect width="67.7643" height="67.7643" fill="white" transform="translate(467 350.149)"/>
</clipPath>
</defs>
</svg>
