<svg width="600" height="641" viewBox="0 0 600 641" fill="none" xmlns="http://www.w3.org/2000/svg">
<g opacity="0.2">
<g opacity="0.5">
<circle cx="304" cy="324" r="197.5" fill="#D9D9D9" stroke="#9B3586" stroke-width="5"/>
<circle cx="304" cy="319" r="247.5" stroke="#9B3586" stroke-width="5"/>
<circle cx="300" cy="316" r="297.5" stroke="#9B3586" stroke-width="5"/>
</g>
<g opacity="0.75">
<path d="M543.433 454.037C542.583 454.528 541.688 455.88 541.583 458.835C541.553 459.504 541.26 460.134 540.768 460.589C540.276 461.043 539.624 461.285 538.955 461.261C538.285 461.237 537.652 460.95 537.193 460.462C536.734 459.974 536.487 459.325 536.504 458.655C536.633 455.036 537.778 451.435 540.892 449.636C544.016 447.833 547.719 448.653 550.924 450.361C551.519 450.678 551.964 451.218 552.16 451.863C552.356 452.508 552.288 453.205 551.971 453.8C551.654 454.395 551.114 454.839 550.469 455.035C549.824 455.232 549.127 455.164 548.532 454.847C545.913 453.447 544.287 453.549 543.433 454.037ZM557.057 458.438C557.314 458.225 557.611 458.065 557.93 457.967C558.249 457.869 558.584 457.835 558.916 457.866C559.248 457.898 559.571 457.995 559.866 458.151C560.161 458.307 560.422 458.52 560.635 458.777C562.619 461.185 564.399 463.756 565.954 466.461C569.478 472.567 571.65 478.822 572.236 484.067C572.528 486.686 572.439 489.179 571.83 491.317C571.21 493.469 570.01 495.417 567.998 496.579C565.561 497.985 562.746 497.789 560.174 496.85C557.592 495.908 554.933 494.13 552.398 491.815C551.908 491.359 551.618 490.728 551.59 490.059C551.563 489.39 551.801 488.737 552.252 488.242C552.703 487.748 553.332 487.451 554.001 487.417C554.669 487.383 555.325 487.615 555.824 488.061C558.06 490.101 560.157 491.436 561.912 492.073C563.681 492.717 564.792 492.564 565.456 492.178C566.012 491.856 566.574 491.202 566.94 489.918C567.313 488.617 567.432 486.835 567.184 484.632C566.693 480.231 564.813 474.647 561.55 469.003C560.138 466.547 558.523 464.213 556.722 462.026C556.509 461.769 556.349 461.473 556.251 461.154C556.153 460.835 556.118 460.499 556.15 460.167C556.181 459.835 556.278 459.512 556.434 459.217C556.59 458.922 556.803 458.661 557.06 458.448" fill="#9B3586"/>
<path d="M576.129 473.804C576.129 472.821 575.404 471.368 572.9 469.806C572.617 469.629 572.371 469.398 572.177 469.126C571.983 468.854 571.845 468.547 571.77 468.222C571.694 467.896 571.684 467.559 571.739 467.23C571.794 466.901 571.914 466.585 572.09 466.302C572.448 465.73 573.017 465.324 573.674 465.172C574 465.097 574.337 465.086 574.666 465.141C574.995 465.196 575.311 465.316 575.594 465.492C578.664 467.414 581.211 470.205 581.211 473.804C581.211 477.409 578.65 480.207 575.567 482.129C574.995 482.472 574.312 482.576 573.663 482.42C573.015 482.264 572.455 481.859 572.102 481.293C571.75 480.727 571.634 480.046 571.779 479.395C571.925 478.745 572.32 478.177 572.88 477.815C575.401 476.243 576.129 474.786 576.129 473.804ZM565.5 483.399C565.556 483.728 565.547 484.065 565.472 484.39C565.398 484.716 565.26 485.023 565.067 485.295C564.874 485.568 564.629 485.799 564.346 485.977C564.064 486.154 563.749 486.274 563.42 486.33C560.342 486.841 557.226 487.095 554.106 487.089C547.058 487.089 540.553 485.845 535.718 483.728C533.302 482.674 531.191 481.349 529.646 479.75C528.084 478.144 527 476.125 527 473.804C527 470.991 528.579 468.654 530.676 466.892C532.784 465.126 535.657 463.714 538.927 462.677C539.569 462.473 540.266 462.532 540.865 462.843C541.161 462.996 541.424 463.206 541.639 463.462C541.855 463.717 542.017 464.012 542.118 464.33C542.219 464.648 542.257 464.983 542.228 465.316C542.2 465.648 542.106 465.972 541.953 466.269C541.799 466.565 541.589 466.828 541.333 467.043C541.078 467.258 540.783 467.421 540.465 467.522C537.585 468.437 535.376 469.585 533.946 470.788C532.502 471.994 532.082 473.035 532.082 473.804C532.082 474.447 532.37 475.261 533.299 476.22C534.241 477.192 535.725 478.185 537.754 479.072C541.81 480.848 547.587 482.007 554.106 482.007C557.104 482.007 559.957 481.763 562.569 481.319C562.899 481.263 563.235 481.272 563.561 481.347C563.886 481.421 564.194 481.559 564.466 481.752C564.738 481.945 564.969 482.19 565.147 482.473C565.324 482.755 565.444 483.07 565.5 483.399Z" fill="#9B3586"/>
<path d="M543.507 492.181C544.355 492.673 545.977 492.771 548.586 491.385C548.881 491.229 549.204 491.131 549.536 491.1C549.868 491.068 550.204 491.102 550.523 491.199C550.842 491.297 551.139 491.457 551.396 491.669C551.654 491.881 551.867 492.142 552.024 492.437C552.18 492.732 552.277 493.055 552.309 493.387C552.341 493.719 552.307 494.055 552.21 494.374C552.112 494.693 551.952 494.99 551.74 495.247C551.528 495.505 551.266 495.718 550.972 495.875C547.773 497.572 544.08 498.382 540.966 496.586C537.842 494.78 536.697 491.165 536.579 487.533C536.566 486.865 536.817 486.22 537.276 485.736C537.736 485.252 538.368 484.968 539.035 484.946C539.702 484.924 540.351 485.165 540.841 485.617C541.332 486.069 541.625 486.697 541.657 487.363C541.759 490.328 542.654 491.69 543.507 492.181ZM540.512 478.178C539.881 477.943 539.368 477.467 539.087 476.855C538.806 476.242 538.78 475.543 539.015 474.912C540.038 472.15 541.376 469.297 543.013 466.465C546.537 460.359 550.867 455.351 555.115 452.221C557.237 450.659 559.439 449.49 561.597 448.951C563.769 448.409 566.059 448.473 568.069 449.636C570.508 451.042 571.741 453.576 572.216 456.276C572.694 458.984 572.48 462.175 571.741 465.526C571.682 465.863 571.554 466.185 571.367 466.472C571.18 466.758 570.937 467.004 570.653 467.195C570.368 467.385 570.048 467.516 569.712 467.58C569.375 467.643 569.029 467.638 568.695 467.565C568.361 467.492 568.045 467.351 567.766 467.153C567.487 466.954 567.251 466.701 567.072 466.409C566.893 466.118 566.775 465.792 566.725 465.454C566.675 465.115 566.694 464.77 566.781 464.439C567.428 461.484 567.537 458.997 567.211 457.154C566.886 455.304 566.195 454.42 565.531 454.037C564.975 453.715 564.125 453.556 562.83 453.881C561.516 454.21 559.917 454.999 558.131 456.314C554.567 458.936 550.67 463.361 547.414 469.006C545.99 471.458 544.774 474.025 543.779 476.68C543.544 477.312 543.068 477.825 542.455 478.105C541.843 478.386 541.144 478.412 540.512 478.178Z" fill="#9B3586"/>
<path d="M559.053 473.329C559.053 474.551 558.567 475.724 557.703 476.588C556.839 477.452 555.667 477.937 554.445 477.937C553.223 477.937 552.05 477.452 551.186 476.588C550.322 475.724 549.837 474.551 549.837 473.329C549.837 472.107 550.322 470.935 551.186 470.071C552.05 469.207 553.223 468.721 554.445 468.721C555.667 468.721 556.839 469.207 557.703 470.071C558.567 470.935 559.053 472.107 559.053 473.329Z" fill="#9B3586"/>
</g>
<path opacity="0.75" d="M199.062 473.016H240.938C243.005 473.046 244.498 473.871 245.483 475.059C246.469 476.247 246.949 477.799 246.984 479.286V522.714L246.973 522.993C246.887 524.394 246.408 525.828 245.483 526.941C244.498 528.129 243.005 528.954 240.938 528.984H199.062C195.868 529.009 193.058 526.417 193.016 522.714V479.286C193.058 475.583 195.868 472.991 199.062 473.016ZM199.062 476.342C198.305 476.348 197.602 476.617 197.086 477.118C196.569 477.62 196.239 478.353 196.222 479.286V522.715C196.239 523.647 196.569 524.38 197.086 524.882C197.602 525.383 198.304 525.652 199.062 525.658H240.939C242.089 525.571 242.811 525.138 243.247 524.573C243.683 524.009 243.833 523.317 243.847 522.715V479.286C243.833 478.684 243.683 477.991 243.247 477.427C242.838 476.898 242.179 476.484 241.15 476.362L240.939 476.342H199.062ZM210.135 503.302V518.071C209.938 519.583 209.384 520.831 208.462 521.713C207.539 522.595 206.247 523.114 204.571 523.163C203.266 523.201 202.083 522.928 201.062 522.323C200.045 521.721 199.188 520.788 198.53 519.505L201.672 517.521C201.673 517.523 201.674 517.524 201.675 517.525C201.681 517.537 201.69 517.554 201.702 517.575C201.727 517.619 201.763 517.681 201.81 517.757C201.902 517.909 202.035 518.114 202.195 518.33C202.356 518.546 202.545 518.772 202.75 518.965C202.955 519.157 203.177 519.317 203.403 519.398C203.642 519.484 204.01 519.542 204.399 519.524C204.789 519.506 205.201 519.412 205.527 519.191C205.826 518.989 206.021 518.619 206.142 518.302C206.202 518.143 206.244 517.997 206.271 517.891C206.284 517.837 206.294 517.794 206.3 517.764L206.309 517.72V503.302H210.135ZM216.492 503.585C220.555 502.039 223.672 504.007 224.594 506.279L221.658 508.263C221.215 507.445 220.283 506.613 219.205 506.553C218.714 506.525 218.238 506.645 217.882 506.945C217.525 507.246 217.289 507.725 217.274 508.414L217.287 508.598C217.334 509.011 217.496 509.335 217.755 509.61C218.05 509.924 218.469 510.174 218.979 510.424C220.001 510.924 221.39 511.422 222.907 512.418C224.018 513.148 224.676 513.79 225.082 514.501C225.488 515.212 225.643 515.994 225.746 517.002C225.898 518.495 225.627 521.072 222.798 522.374C221.257 523.083 219.119 523.308 217.131 522.82C215.147 522.334 213.314 521.138 212.374 519.005L215.448 517.164C216.227 518.686 217.619 519.447 218.917 519.575C220.218 519.704 221.428 519.198 221.826 518.184C222.02 517.69 222.02 517.269 221.863 516.896C221.707 516.523 221.396 516.2 220.973 515.897C220.126 515.293 218.821 514.768 217.38 514.105H217.381C216.126 513.434 214.19 512.38 213.609 509.806C213.171 507.861 213.563 504.926 216.493 503.586L216.492 503.585ZM230.804 503.158L234.105 509.507L234.12 509.534L234.134 509.507L237.436 503.158H241.188L236.241 512.85L236.237 512.857L236.241 512.864L241.602 523.056H237.849L234.134 516.207L234.12 516.182L234.105 516.207L230.391 523.056H226.638L231.998 512.864L232.002 512.857L231.998 512.85L226.982 503.158H230.804Z" fill="#9B3586" stroke="#9B3586" stroke-width="0.03125"/>
<g opacity="0.75">
<path d="M305.223 50.4705H276.988C274.493 50.4705 272.47 52.4931 272.47 54.9882V83.2233C272.47 85.7183 274.493 87.7409 276.988 87.7409H305.223C307.718 87.7409 309.741 85.7183 309.741 83.2233V54.9882C309.741 52.4931 307.718 50.4705 305.223 50.4705Z" stroke="#9B3586" stroke-width="3" stroke-linecap="round" stroke-linejoin="round"/>
<path d="M302.964 67.4116H298.447C297.848 67.4116 297.273 67.6496 296.849 68.0732C296.426 68.4968 296.188 69.0714 296.188 69.6704V71.9292C296.188 72.5283 296.426 73.1029 296.849 73.5265C297.273 73.9501 297.848 74.1881 298.447 74.1881H300.706C301.305 74.1881 301.879 74.426 302.303 74.8496C302.726 75.2733 302.964 75.8478 302.964 76.4469V78.7057C302.964 79.3047 302.726 79.8793 302.303 80.3029C301.879 80.7265 301.305 80.9645 300.706 80.9645H296.188M285.459 67.4116V80.9645M280.941 67.4116H289.976" stroke="#9B3586" stroke-width="3" stroke-linecap="round" stroke-linejoin="round"/>
</g>
<g opacity="0.75">
<mask id="path-11-inside-1_185_69" fill="white">
<path d="M59.8326 252.167L35.8849 279.698L38.9159 283.183L62.8593 255.652L59.8326 252.167ZM35.8849 290.153L59.8283 317.688L62.8593 314.198L38.9159 286.668L35.8849 290.153ZM68.9255 317.684L92.8688 290.158L89.8379 286.668L65.8945 314.198L68.9255 317.684ZM92.8688 279.693L68.9255 252.167L65.8945 255.652L89.8379 283.183L92.8688 279.693ZM92.8688 290.158C93.4664 289.471 93.9405 288.651 94.2639 287.754C94.5873 286.856 94.7538 285.894 94.7538 284.923C94.7538 283.952 94.5873 282.99 94.2639 282.092C93.9405 281.195 93.4664 280.38 92.8688 279.693L89.8379 283.178C90.0375 283.407 90.1959 283.679 90.3039 283.978C90.412 284.278 90.4676 284.599 90.4676 284.923C90.4676 285.247 90.412 285.568 90.3039 285.868C90.1959 286.167 90.0375 286.439 89.8379 286.668L92.8688 290.158ZM59.8283 317.688C60.4255 318.376 61.1389 318.921 61.9193 319.293C62.6998 319.664 63.5363 319.856 64.3812 319.856C65.226 319.856 66.0626 319.664 66.843 319.293C67.6235 318.921 68.3326 318.376 68.9298 317.688L65.8945 314.203C65.6954 314.433 65.4631 314.615 65.2027 314.739C64.9423 314.864 64.6631 314.928 64.3812 314.928C64.0992 314.928 63.82 314.864 63.5596 314.739C63.2992 314.615 63.0627 314.433 62.8635 314.203L59.8283 317.688ZM35.8849 279.698C35.2874 280.385 34.8133 281.205 34.4899 282.102C34.1665 283 34 283.961 34 284.933C34 285.904 34.1665 286.866 34.4899 287.764C34.8133 288.661 35.2874 289.476 35.8849 290.163L38.9159 286.673C38.7163 286.444 38.5579 286.177 38.4499 285.877C38.3418 285.578 38.2862 285.257 38.2862 284.933C38.2862 284.609 38.3418 284.288 38.4499 283.988C38.5579 283.689 38.7163 283.412 38.9159 283.183L35.8849 279.698ZM62.8593 255.657C63.0584 255.428 63.2949 255.246 63.5553 255.121C63.8158 254.997 64.0949 254.933 64.3769 254.933C64.6588 254.933 64.938 254.997 65.1984 255.121C65.4589 255.246 65.6954 255.428 65.8945 255.657L68.9255 252.167C68.3283 251.48 67.6149 250.935 66.8344 250.563C66.054 250.191 65.2174 250 64.3726 250C63.5278 250 62.6912 250.191 61.9108 250.563C61.1303 250.935 60.4212 251.48 59.824 252.167L62.8593 255.657ZM54.2851 262.031L58.5722 266.96L61.6074 263.47L57.3204 258.541L54.2851 262.031ZM64.3769 272.605C63.8084 272.605 63.2632 272.345 62.8612 271.883C62.4592 271.42 62.2333 270.793 62.2333 270.14H57.9463C57.9463 272.101 58.6238 273.982 59.8298 275.368C61.0357 276.755 62.6714 277.534 64.3769 277.534V272.605ZM66.5204 270.14C66.5204 270.793 66.2946 271.42 65.8926 271.883C65.4906 272.345 64.9454 272.605 64.3769 272.605V277.534C66.0824 277.534 67.7181 276.755 68.924 275.368C70.13 273.982 70.8075 272.101 70.8075 270.14H66.5204ZM64.3769 267.675C64.9454 267.675 65.4906 267.935 65.8926 268.397C66.2946 268.859 66.5204 269.486 66.5204 270.14H70.8075C70.8075 268.179 70.13 266.298 68.924 264.911C67.7181 263.525 66.0824 262.746 64.3769 262.746V267.675ZM64.3769 262.746C62.6714 262.746 61.0357 263.525 59.8298 264.911C58.6238 266.298 57.9463 268.179 57.9463 270.14H62.2333C62.2333 269.486 62.4592 268.859 62.8612 268.397C63.2632 267.935 63.8084 267.675 64.3769 267.675V262.746ZM67.1463 276.814L73.577 284.208L76.6079 280.718L70.1773 273.324L67.1463 276.814ZM77.2381 287.393C76.6696 287.393 76.1244 287.133 75.7224 286.671C75.3204 286.208 75.0946 285.582 75.0946 284.928H70.8075C70.8075 286.889 71.485 288.77 72.691 290.156C73.897 291.543 75.5326 292.322 77.2381 292.322V287.393ZM79.3817 284.928C79.3817 285.582 79.1558 286.208 78.7538 286.671C78.3519 287.133 77.8066 287.393 77.2381 287.393V292.322C78.9436 292.322 80.5793 291.543 81.7853 290.156C82.9912 288.77 83.6688 286.889 83.6688 284.928H79.3817ZM77.2381 282.463C77.8066 282.463 78.3519 282.723 78.7538 283.185C79.1558 283.647 79.3817 284.274 79.3817 284.928H83.6688C83.6688 282.967 82.9912 281.086 81.7853 279.7C80.5793 278.313 78.9436 277.534 77.2381 277.534V282.463ZM77.2381 277.534C75.5326 277.534 73.897 278.313 72.691 279.7C71.485 281.086 70.8075 282.967 70.8075 284.928H75.0946C75.0946 284.274 75.3204 283.647 75.7224 283.185C76.1244 282.723 76.6696 282.463 77.2381 282.463V277.534ZM62.2333 275.069V294.787H66.5204V275.069H62.2333ZM64.3769 302.181C63.8084 302.181 63.2632 301.921 62.8612 301.459C62.4592 300.997 62.2333 300.37 62.2333 299.716H57.9463C57.9463 301.677 58.6238 303.558 59.8298 304.944C61.0357 306.331 62.6714 307.11 64.3769 307.11V302.181ZM66.5204 299.716C66.5204 300.37 66.2946 300.997 65.8926 301.459C65.4906 301.921 64.9454 302.181 64.3769 302.181V307.11C66.0824 307.11 67.7181 306.331 68.924 304.944C70.13 303.558 70.8075 301.677 70.8075 299.716H66.5204ZM64.3769 297.251C64.9454 297.251 65.4906 297.511 65.8926 297.973C66.2946 298.435 66.5204 299.062 66.5204 299.716H70.8075C70.8075 297.755 70.13 295.874 68.924 294.488C67.7181 293.101 66.0824 292.322 64.3769 292.322V297.251ZM64.3769 292.322C62.6714 292.322 61.0357 293.101 59.8298 294.488C58.6238 295.874 57.9463 297.755 57.9463 299.716H62.2333C62.2333 299.062 62.4592 298.435 62.8612 297.973C63.2632 297.511 63.8084 297.251 64.3769 297.251V292.322Z"/>
</mask>
<path d="M59.8326 252.167L35.8849 279.698L38.9159 283.183L62.8593 255.652L59.8326 252.167ZM35.8849 290.153L59.8283 317.688L62.8593 314.198L38.9159 286.668L35.8849 290.153ZM68.9255 317.684L92.8688 290.158L89.8379 286.668L65.8945 314.198L68.9255 317.684ZM92.8688 279.693L68.9255 252.167L65.8945 255.652L89.8379 283.183L92.8688 279.693ZM92.8688 290.158C93.4664 289.471 93.9405 288.651 94.2639 287.754C94.5873 286.856 94.7538 285.894 94.7538 284.923C94.7538 283.952 94.5873 282.99 94.2639 282.092C93.9405 281.195 93.4664 280.38 92.8688 279.693L89.8379 283.178C90.0375 283.407 90.1959 283.679 90.3039 283.978C90.412 284.278 90.4676 284.599 90.4676 284.923C90.4676 285.247 90.412 285.568 90.3039 285.868C90.1959 286.167 90.0375 286.439 89.8379 286.668L92.8688 290.158ZM59.8283 317.688C60.4255 318.376 61.1389 318.921 61.9193 319.293C62.6998 319.664 63.5363 319.856 64.3812 319.856C65.226 319.856 66.0626 319.664 66.843 319.293C67.6235 318.921 68.3326 318.376 68.9298 317.688L65.8945 314.203C65.6954 314.433 65.4631 314.615 65.2027 314.739C64.9423 314.864 64.6631 314.928 64.3812 314.928C64.0992 314.928 63.82 314.864 63.5596 314.739C63.2992 314.615 63.0627 314.433 62.8635 314.203L59.8283 317.688ZM35.8849 279.698C35.2874 280.385 34.8133 281.205 34.4899 282.102C34.1665 283 34 283.961 34 284.933C34 285.904 34.1665 286.866 34.4899 287.764C34.8133 288.661 35.2874 289.476 35.8849 290.163L38.9159 286.673C38.7163 286.444 38.5579 286.177 38.4499 285.877C38.3418 285.578 38.2862 285.257 38.2862 284.933C38.2862 284.609 38.3418 284.288 38.4499 283.988C38.5579 283.689 38.7163 283.412 38.9159 283.183L35.8849 279.698ZM62.8593 255.657C63.0584 255.428 63.2949 255.246 63.5553 255.121C63.8158 254.997 64.0949 254.933 64.3769 254.933C64.6588 254.933 64.938 254.997 65.1984 255.121C65.4589 255.246 65.6954 255.428 65.8945 255.657L68.9255 252.167C68.3283 251.48 67.6149 250.935 66.8344 250.563C66.054 250.191 65.2174 250 64.3726 250C63.5278 250 62.6912 250.191 61.9108 250.563C61.1303 250.935 60.4212 251.48 59.824 252.167L62.8593 255.657ZM54.2851 262.031L58.5722 266.96L61.6074 263.47L57.3204 258.541L54.2851 262.031ZM64.3769 272.605C63.8084 272.605 63.2632 272.345 62.8612 271.883C62.4592 271.42 62.2333 270.793 62.2333 270.14H57.9463C57.9463 272.101 58.6238 273.982 59.8298 275.368C61.0357 276.755 62.6714 277.534 64.3769 277.534V272.605ZM66.5204 270.14C66.5204 270.793 66.2946 271.42 65.8926 271.883C65.4906 272.345 64.9454 272.605 64.3769 272.605V277.534C66.0824 277.534 67.7181 276.755 68.924 275.368C70.13 273.982 70.8075 272.101 70.8075 270.14H66.5204ZM64.3769 267.675C64.9454 267.675 65.4906 267.935 65.8926 268.397C66.2946 268.859 66.5204 269.486 66.5204 270.14H70.8075C70.8075 268.179 70.13 266.298 68.924 264.911C67.7181 263.525 66.0824 262.746 64.3769 262.746V267.675ZM64.3769 262.746C62.6714 262.746 61.0357 263.525 59.8298 264.911C58.6238 266.298 57.9463 268.179 57.9463 270.14H62.2333C62.2333 269.486 62.4592 268.859 62.8612 268.397C63.2632 267.935 63.8084 267.675 64.3769 267.675V262.746ZM67.1463 276.814L73.577 284.208L76.6079 280.718L70.1773 273.324L67.1463 276.814ZM77.2381 287.393C76.6696 287.393 76.1244 287.133 75.7224 286.671C75.3204 286.208 75.0946 285.582 75.0946 284.928H70.8075C70.8075 286.889 71.485 288.77 72.691 290.156C73.897 291.543 75.5326 292.322 77.2381 292.322V287.393ZM79.3817 284.928C79.3817 285.582 79.1558 286.208 78.7538 286.671C78.3519 287.133 77.8066 287.393 77.2381 287.393V292.322C78.9436 292.322 80.5793 291.543 81.7853 290.156C82.9912 288.77 83.6688 286.889 83.6688 284.928H79.3817ZM77.2381 282.463C77.8066 282.463 78.3519 282.723 78.7538 283.185C79.1558 283.647 79.3817 284.274 79.3817 284.928H83.6688C83.6688 282.967 82.9912 281.086 81.7853 279.7C80.5793 278.313 78.9436 277.534 77.2381 277.534V282.463ZM77.2381 277.534C75.5326 277.534 73.897 278.313 72.691 279.7C71.485 281.086 70.8075 282.967 70.8075 284.928H75.0946C75.0946 284.274 75.3204 283.647 75.7224 283.185C76.1244 282.723 76.6696 282.463 77.2381 282.463V277.534ZM62.2333 275.069V294.787H66.5204V275.069H62.2333ZM64.3769 302.181C63.8084 302.181 63.2632 301.921 62.8612 301.459C62.4592 300.997 62.2333 300.37 62.2333 299.716H57.9463C57.9463 301.677 58.6238 303.558 59.8298 304.944C61.0357 306.331 62.6714 307.11 64.3769 307.11V302.181ZM66.5204 299.716C66.5204 300.37 66.2946 300.997 65.8926 301.459C65.4906 301.921 64.9454 302.181 64.3769 302.181V307.11C66.0824 307.11 67.7181 306.331 68.924 304.944C70.13 303.558 70.8075 301.677 70.8075 299.716H66.5204ZM64.3769 297.251C64.9454 297.251 65.4906 297.511 65.8926 297.973C66.2946 298.435 66.5204 299.062 66.5204 299.716H70.8075C70.8075 297.755 70.13 295.874 68.924 294.488C67.7181 293.101 66.0824 292.322 64.3769 292.322V297.251ZM64.3769 292.322C62.6714 292.322 61.0357 293.101 59.8298 294.488C58.6238 295.874 57.9463 297.755 57.9463 299.716H62.2333C62.2333 299.062 62.4592 298.435 62.8612 297.973C63.2632 297.511 63.8084 297.251 64.3769 297.251V292.322Z" fill="#9B3586"/>
<path d="M35.8849 279.698L36.2622 279.37L35.5072 280.025L35.8849 279.698ZM92.8688 290.158L92.4913 290.486L93.2466 289.83L92.8688 290.158ZM61.3459 253.907L60.9682 254.235L62.4815 255.98L62.8593 255.652L63.237 255.325L61.7237 253.58L61.3459 253.907ZM37.3983 281.443L37.776 281.115L36.2627 279.37L35.8849 279.698L35.5072 280.025L37.0205 281.77L37.3983 281.443ZM37.3983 288.413L37.7751 288.742L39.2927 287.002L38.9159 286.673L38.5391 286.344L37.0215 288.084L37.3983 288.413ZM61.3459 315.948L60.9691 315.62L59.4515 317.36L59.8283 317.688L60.2051 318.017L61.7227 316.277L61.3459 315.948ZM67.4079 315.948L67.7856 315.621L66.2723 313.876L65.8945 314.203L65.5168 314.531L67.0301 316.276L67.4079 315.948ZM91.3555 288.413L90.9778 288.741L92.4911 290.486L92.8688 290.158L93.2466 289.83L91.7332 288.085L91.3555 288.413ZM91.3555 281.443L90.9787 281.114L89.4611 282.854L89.8379 283.183L90.2147 283.512L91.7323 281.772L91.3555 281.443ZM67.4079 253.907L67.7847 254.236L69.3023 252.496L68.9255 252.167L68.5487 251.839L67.031 253.579L67.4079 253.907ZM35.8849 279.698L35.5077 280.026L38.5386 283.511L38.9159 283.183L39.2932 282.855L36.2622 279.37L35.8849 279.698ZM92.8688 290.158L93.2463 289.83L90.2154 286.34L89.8379 286.668L89.4604 286.996L92.4913 290.486L92.8688 290.158ZM62.2333 270.14V269.64H57.9463V270.14V270.64H62.2333V270.14ZM64.3769 277.534H64.8769V272.604H64.3769H63.8769V277.534H64.3769ZM70.8075 270.14V269.64H66.5204V270.14V270.64H70.8075V270.14ZM64.3769 262.746H63.8769V267.675H64.3769H64.8769V262.746H64.3769ZM75.0946 284.928V284.428H70.8075V284.928V285.428H75.0946V284.928ZM77.2381 292.322H77.7381V287.393H77.2381H76.7381V292.322H77.2381ZM83.6688 284.928V284.428H79.3817V284.928V285.428H83.6688V284.928ZM77.2381 277.534H76.7381V282.463H77.2381H77.7381V277.534H77.2381ZM62.2333 299.716V299.216H57.9463V299.716V300.216H62.2333V299.716ZM64.3769 307.11H64.8769V302.181H64.3769H63.8769V307.11H64.3769ZM70.8075 299.716V299.216H66.5204V299.716V300.216H70.8075V299.716ZM64.3769 292.322H63.8769V297.251H64.3769H64.8769V292.322H64.3769ZM62.8593 255.652L63.6138 256.309L64.1841 255.653L63.6143 254.997L62.8593 255.652ZM35.8849 279.698L36.6393 280.354L36.6394 280.354L35.8849 279.698ZM38.9159 286.673L39.6709 287.329L40.2415 286.672L39.6696 286.016L38.9159 286.673ZM65.8945 314.203L66.6486 313.547L65.893 312.679L65.1391 313.548L65.8945 314.203ZM92.8688 290.158L92.1145 289.501L92.1143 289.502L92.8688 290.158ZM89.8379 283.183L89.0833 283.839L89.8384 284.707L90.5929 283.839L89.8379 283.183ZM59.8326 252.167L60.5876 251.512L59.8332 250.643L59.0781 251.511L59.8326 252.167ZM38.9159 283.183L39.6696 283.84L39.6705 283.839L38.9159 283.183ZM35.8849 290.153L35.1304 289.497L34.5597 290.153L35.1303 290.809L35.8849 290.153ZM62.8593 314.199L63.6143 314.854L64.1841 314.198L63.6138 313.542L62.8593 314.199ZM38.9159 286.668L39.6705 286.012L38.9159 285.144L38.1614 286.012L38.9159 286.668ZM68.9255 317.684L68.1709 318.34L68.9254 319.207L69.68 318.34L68.9255 317.684ZM89.8379 286.668L89.0841 286.011L89.0833 286.012L89.8379 286.668ZM65.8945 314.199L65.14 313.542L64.5692 314.198L65.14 314.855L65.8945 314.199ZM65.8945 255.652L65.14 254.996L64.5692 255.652L65.14 256.309L65.8945 255.652ZM89.8379 283.178L89.0833 282.522L88.5119 283.179L89.0841 283.835L89.8379 283.178ZM68.9298 317.688L69.6845 318.344L70.2553 317.688L69.6839 317.032L68.9298 317.688ZM62.8635 314.203L63.6189 313.548L62.865 312.679L62.1095 313.547L62.8635 314.203ZM34 284.933H35H34ZM35.8849 290.163L35.1306 290.819L35.8857 291.687L36.64 290.819L35.8849 290.163ZM62.8593 255.657L62.1047 256.314L62.8602 257.182L63.6146 256.313L62.8593 255.657ZM65.8945 255.657L65.1391 256.313L65.8941 257.183L66.6495 256.313L65.8945 255.657ZM64.3726 250V251V250ZM59.824 252.167L59.0692 251.511L58.4989 252.168L59.0695 252.824L59.824 252.167ZM54.2851 262.031L53.5305 261.375L52.9598 262.031L53.5305 262.687L54.2851 262.031ZM58.5722 266.96L57.8176 267.617L58.5722 268.484L59.3267 267.617L58.5722 266.96ZM61.6074 263.47L62.362 264.127L62.9327 263.47L62.362 262.814L61.6074 263.47ZM57.3204 258.541L58.0749 257.885L57.3204 257.017L56.5658 257.885L57.3204 258.541ZM70.8075 270.14H71.8075H70.8075ZM64.3769 267.675V268.675V267.675ZM67.1463 276.814L66.3913 276.158L65.8215 276.815L66.3918 277.47L67.1463 276.814ZM73.577 284.208L72.8224 284.864L73.5775 285.733L74.332 284.864L73.577 284.208ZM76.6079 280.718L77.3629 281.374L77.9328 280.718L77.3625 280.062L76.6079 280.718ZM70.1773 273.324L70.9319 272.668L70.1768 271.8L69.4223 272.668L70.1773 273.324ZM70.8075 284.928H69.8075H70.8075ZM77.2381 292.322V293.322V292.322ZM83.6688 284.928H84.6688H83.6688ZM62.2333 275.069V274.069H61.2333V275.069H62.2333ZM62.2333 294.787H61.2333V295.787H62.2333V294.787ZM66.5204 294.787V295.787H67.5204V294.787H66.5204ZM66.5204 275.069H67.5204V274.069H66.5204V275.069ZM64.3769 307.11V308.11V307.11ZM70.8075 299.716H71.8075H70.8075ZM64.3769 292.322V291.322V292.322ZM59.8326 252.167L59.0781 251.511L35.1304 279.042L35.8849 279.698L36.6394 280.354L60.5871 252.824L59.8326 252.167ZM38.9159 283.183L39.6705 283.839L63.6138 256.309L62.8593 255.652L62.1047 254.996L38.1614 282.527L38.9159 283.183ZM62.8593 255.652L63.6143 254.997L60.5876 251.512L59.8326 252.167L59.0776 252.823L62.1042 256.308L62.8593 255.652ZM35.8849 290.153L35.1303 290.809L59.0737 318.345L59.8283 317.688L60.5829 317.032L36.6396 289.497L35.8849 290.153ZM59.8283 317.688L60.5833 318.344L63.6143 314.854L62.8593 314.199L62.1042 313.543L59.0733 317.033L59.8283 317.688ZM62.8593 314.199L63.6138 313.542L39.6705 286.012L38.9159 286.668L38.1614 287.324L62.1047 314.855L62.8593 314.199ZM38.9159 286.668L38.1614 286.012L35.1304 289.497L35.8849 290.153L36.6395 290.809L39.6705 287.324L38.9159 286.668ZM68.9255 317.684L69.68 318.34L93.6233 290.814L92.8688 290.158L92.1143 289.502L68.171 317.027L68.9255 317.684ZM89.8379 286.668L89.0833 286.012L65.14 313.542L65.8945 314.199L66.6491 314.855L90.5924 287.324L89.8379 286.668ZM65.8945 314.199L65.14 314.855L68.1709 318.34L68.9255 317.684L69.68 317.027L66.6491 313.542L65.8945 314.199ZM92.8688 279.693L93.6233 279.037L69.68 251.511L68.9255 252.167L68.171 252.824L92.1143 280.349L92.8688 279.693ZM68.9255 252.167L68.1709 251.511L65.14 254.996L65.8945 255.652L66.6491 256.309L69.68 252.824L68.9255 252.167ZM65.8945 255.652L65.14 256.309L89.0833 283.839L89.8379 283.183L90.5924 282.527L66.6491 254.996L65.8945 255.652ZM89.8379 283.183L90.5929 283.839L93.6238 280.349L92.8688 279.693L92.1138 279.037L89.0829 282.527L89.8379 283.183ZM92.8688 290.158L93.6232 290.814C94.307 290.029 94.8419 289.099 95.2046 288.093L94.2639 287.754L93.3231 287.415C93.039 288.203 92.6258 288.914 92.1145 289.501L92.8688 290.158ZM94.2639 287.754L95.2046 288.093C95.568 287.085 95.7538 286.008 95.7538 284.923H94.7538H93.7538C93.7538 285.781 93.6066 286.628 93.3231 287.415L94.2639 287.754ZM94.7538 284.923H95.7538C95.7538 283.838 95.568 282.761 95.2046 281.753L94.2639 282.092L93.3231 282.431C93.6066 283.218 93.7538 284.065 93.7538 284.923H94.7538ZM94.2639 282.092L95.2046 281.753C94.8413 280.745 94.3059 279.821 93.6232 279.036L92.8688 279.693L92.1145 280.349C92.627 280.938 93.0396 281.645 93.3231 282.431L94.2639 282.092ZM92.8688 279.693L92.1143 279.037L89.0833 282.522L89.8379 283.178L90.5924 283.834L93.6234 280.349L92.8688 279.693ZM89.8379 283.178L89.0841 283.835C89.1984 283.966 89.2953 284.129 89.3633 284.318L90.3039 283.978L91.2445 283.639C91.0965 283.229 90.8765 282.848 90.5916 282.521L89.8379 283.178ZM90.3039 283.978L89.3633 284.318C89.4314 284.506 89.4676 284.712 89.4676 284.923H90.4676H91.4676C91.4676 284.485 91.3926 284.049 91.2445 283.639L90.3039 283.978ZM90.4676 284.923H89.4676C89.4676 285.134 89.4314 285.34 89.3633 285.528L90.3039 285.868L91.2445 286.207C91.3926 285.797 91.4676 285.361 91.4676 284.923H90.4676ZM90.3039 285.868L89.3633 285.528C89.2953 285.717 89.1984 285.88 89.0841 286.011L89.8379 286.668L90.5916 287.325C90.8765 286.998 91.0965 286.617 91.2445 286.207L90.3039 285.868ZM59.8283 317.688L59.0735 318.344C59.7573 319.131 60.58 319.762 61.4892 320.195L61.9193 319.293L62.3495 318.39C61.6978 318.079 61.0937 317.62 60.5831 317.032L59.8283 317.688ZM61.9193 319.293L61.4892 320.195C62.4008 320.63 63.384 320.856 64.3812 320.856V319.856V318.856C63.6887 318.856 62.9988 318.699 62.3495 318.39L61.9193 319.293ZM64.3812 319.856V320.856C65.3784 320.856 66.3616 320.63 67.2732 320.195L66.843 319.293L66.4129 318.39C65.7635 318.699 65.0736 318.856 64.3812 318.856V319.856ZM66.843 319.293L67.2732 320.195C68.1842 319.761 69.0021 319.13 69.6845 318.344L68.9298 317.688L68.175 317.032C67.6631 317.622 67.0628 318.08 66.4129 318.39L66.843 319.293ZM68.9298 317.688L69.6839 317.032L66.6486 313.547L65.8945 314.203L65.1404 314.86L68.1757 318.345L68.9298 317.688ZM65.8945 314.203L65.1391 313.548C65.0211 313.684 64.8966 313.777 64.7721 313.837L65.2027 314.739L65.6333 315.642C66.0297 315.453 66.3697 315.182 66.6499 314.859L65.8945 314.203ZM65.2027 314.739L64.7721 313.837C64.6429 313.898 64.5106 313.928 64.3812 313.928V314.928V315.928C64.8157 315.928 65.2417 315.829 65.6333 315.642L65.2027 314.739ZM64.3812 314.928V313.928C64.2518 313.928 64.1194 313.898 63.9902 313.837L63.5596 314.739L63.129 315.642C63.5207 315.829 63.9467 315.928 64.3812 315.928V314.928ZM63.5596 314.739L63.9902 313.837C63.8605 313.775 63.7328 313.679 63.6189 313.548L62.8635 314.203L62.1082 314.859C62.3925 315.187 62.738 315.455 63.129 315.642L63.5596 314.739ZM62.8635 314.203L62.1095 313.547L59.0742 317.032L59.8283 317.688L60.5824 318.345L63.6176 314.86L62.8635 314.203ZM35.8849 279.698L35.1306 279.041C34.4468 279.827 33.9119 280.757 33.5491 281.763L34.4899 282.102L35.4307 282.441C35.7148 281.653 36.128 280.942 36.6393 280.354L35.8849 279.698ZM34.4899 282.102L33.5491 281.763C33.1858 282.771 33 283.848 33 284.933H34H35C35 284.075 35.1472 283.228 35.4307 282.441L34.4899 282.102ZM34 284.933H33C33 286.018 33.1858 287.094 33.5491 288.103L34.4899 287.764L35.4307 287.424C35.1472 286.638 35 285.791 35 284.933H34ZM34.4899 287.764L33.5491 288.103C33.9125 289.111 34.4479 290.035 35.1306 290.819L35.8849 290.163L36.6393 289.506C36.1268 288.918 35.7142 288.211 35.4307 287.424L34.4899 287.764ZM35.8849 290.163L36.64 290.819L39.6709 287.329L38.9159 286.673L38.1609 286.017L35.1299 289.507L35.8849 290.163ZM38.9159 286.673L39.6696 286.016C39.5518 285.881 39.4566 285.721 39.3905 285.538L38.4499 285.877L37.5092 286.217C37.6592 286.632 37.8808 287.007 38.1622 287.33L38.9159 286.673ZM38.4499 285.877L39.3905 285.538C39.3224 285.349 39.2862 285.143 39.2862 284.933H38.2862H37.2862C37.2862 285.371 37.3611 285.807 37.5092 286.217L38.4499 285.877ZM38.2862 284.933H39.2862C39.2862 284.722 39.3224 284.516 39.3905 284.328L38.4499 283.988L37.5092 283.649C37.3612 284.059 37.2862 284.495 37.2862 284.933H38.2862ZM38.4499 283.988L39.3905 284.328C39.4604 284.134 39.5588 283.967 39.6696 283.84L38.9159 283.183L38.1622 282.526C37.8738 282.856 37.6554 283.244 37.5092 283.649L38.4499 283.988ZM62.8593 255.657L63.6146 256.313C63.7285 256.181 63.8562 256.086 63.986 256.024L63.5553 255.121L63.1247 254.219C62.7337 254.406 62.3882 254.674 62.1039 255.002L62.8593 255.657ZM63.5553 255.121L63.986 256.024C64.1151 255.962 64.2475 255.933 64.3769 255.933V254.933V253.933C63.9424 253.933 63.5164 254.032 63.1247 254.219L63.5553 255.121ZM64.3769 254.933V255.933C64.5063 255.933 64.6386 255.962 64.7678 256.024L65.1984 255.121L65.6291 254.219C65.2374 254.032 64.8114 253.933 64.3769 253.933V254.933ZM65.1984 255.121L64.7678 256.024C64.8976 256.086 65.0253 256.181 65.1391 256.313L65.8945 255.657L66.6499 255.002C66.3655 254.674 66.0201 254.405 65.6291 254.219L65.1984 255.121ZM65.8945 255.657L66.6495 256.313L69.6805 252.823L68.9255 252.167L68.1705 251.512L65.1395 255.002L65.8945 255.657ZM68.9255 252.167L69.6802 251.511C68.9965 250.725 68.1738 250.094 67.2646 249.661L66.8344 250.563L66.4043 251.466C67.056 251.777 67.6601 252.236 68.1707 252.823L68.9255 252.167ZM66.8344 250.563L67.2646 249.661C66.353 249.226 65.3698 249 64.3726 249V250V251C65.0651 251 65.755 251.157 66.4043 251.466L66.8344 250.563ZM64.3726 250V249C63.3754 249 62.3922 249.226 61.4806 249.661L61.9108 250.563L62.3409 251.466C62.9902 251.157 63.6801 251 64.3726 251V250ZM61.9108 250.563L61.4806 249.661C60.5696 250.095 59.7517 250.726 59.0692 251.511L59.824 252.167L60.5788 252.823C61.0907 252.234 61.691 251.776 62.3409 251.466L61.9108 250.563ZM59.824 252.167L59.0695 252.824L62.1047 256.314L62.8593 255.657L63.6138 255.001L60.5786 251.511L59.824 252.167ZM54.2851 262.031L53.5305 262.687L57.8176 267.617L58.5722 266.96L59.3267 266.304L55.0397 261.375L54.2851 262.031ZM58.5722 266.96L59.3267 267.617L62.362 264.127L61.6074 263.47L60.8529 262.814L57.8176 266.304L58.5722 266.96ZM61.6074 263.47L62.362 262.814L58.0749 257.885L57.3204 258.541L56.5658 259.197L60.8529 264.127L61.6074 263.47ZM57.3204 258.541L56.5658 257.885L53.5305 261.375L54.2851 262.031L55.0397 262.687L58.0749 259.197L57.3204 258.541ZM64.3769 272.604V271.604C64.1222 271.604 63.8444 271.489 63.6157 271.226L62.8612 271.883L62.1066 272.539C62.6819 273.2 63.4945 273.604 64.3769 273.604V272.604ZM62.8612 271.883L63.6157 271.226C63.3832 270.959 63.2333 270.57 63.2333 270.14H62.2333H61.2333C61.2333 271.017 61.5352 271.882 62.1066 272.539L62.8612 271.883ZM57.9463 270.14H56.9463C56.9463 272.324 57.6998 274.443 59.0752 276.024L59.8298 275.368L60.5843 274.712C59.5478 273.52 58.9463 271.877 58.9463 270.14H57.9463ZM59.8298 275.368L59.0752 276.024C60.4545 277.61 62.3575 278.534 64.3769 278.534V277.534V276.534C62.9852 276.534 61.617 275.899 60.5843 274.712L59.8298 275.368ZM66.5204 270.14H65.5204C65.5204 270.57 65.3706 270.959 65.138 271.226L65.8926 271.883L66.6472 272.539C67.2186 271.882 67.5204 271.017 67.5204 270.14H66.5204ZM65.8926 271.883L65.138 271.226C64.9093 271.489 64.6315 271.604 64.3769 271.604V272.604V273.604C65.2592 273.604 66.0719 273.2 66.6472 272.539L65.8926 271.883ZM64.3769 277.534V278.534C66.3962 278.534 68.2993 277.61 69.6786 276.024L68.924 275.368L68.1695 274.712C67.1368 275.899 65.7685 276.534 64.3769 276.534V277.534ZM68.924 275.368L69.6786 276.024C71.054 274.443 71.8075 272.324 71.8075 270.14H70.8075H69.8075C69.8075 271.877 69.206 273.52 68.1695 274.712L68.924 275.368ZM64.3769 267.675V268.675C64.6315 268.675 64.9093 268.79 65.138 269.053L65.8926 268.397L66.6472 267.741C66.0719 267.079 65.2592 266.675 64.3769 266.675V267.675ZM65.8926 268.397L65.138 269.053C65.3706 269.321 65.5204 269.71 65.5204 270.14H66.5204H67.5204C67.5204 269.263 67.2186 268.398 66.6472 267.741L65.8926 268.397ZM70.8075 270.14H71.8075C71.8075 267.955 71.054 265.837 69.6786 264.255L68.924 264.911L68.1695 265.568C69.206 266.76 69.8075 268.402 69.8075 270.14H70.8075ZM68.924 264.911L69.6786 264.255C68.2993 262.669 66.3962 261.746 64.3769 261.746V262.746V263.746C65.7685 263.746 67.1368 264.38 68.1695 265.568L68.924 264.911ZM64.3769 262.746V261.746C62.3575 261.746 60.4544 262.669 59.0752 264.255L59.8298 264.911L60.5843 265.568C61.617 264.38 62.9852 263.746 64.3769 263.746V262.746ZM59.8298 264.911L59.0752 264.255C57.6998 265.837 56.9463 267.955 56.9463 270.14H57.9463H58.9463C58.9463 268.402 59.5478 266.76 60.5843 265.568L59.8298 264.911ZM62.2333 270.14H63.2333C63.2333 269.71 63.3832 269.321 63.6157 269.053L62.8612 268.397L62.1066 267.741C61.5352 268.398 61.2333 269.263 61.2333 270.14H62.2333ZM62.8612 268.397L63.6157 269.053C63.8444 268.79 64.1222 268.675 64.3769 268.675V267.675V266.675C63.4945 266.675 62.6819 267.079 62.1066 267.741L62.8612 268.397ZM67.1463 276.814L66.3918 277.47L72.8224 284.864L73.577 284.208L74.3315 283.552L67.9009 276.158L67.1463 276.814ZM73.577 284.208L74.332 284.864L77.3629 281.374L76.6079 280.718L75.8529 280.063L72.822 283.553L73.577 284.208ZM76.6079 280.718L77.3625 280.062L70.9319 272.668L70.1773 273.324L69.4228 273.98L75.8534 281.374L76.6079 280.718ZM70.1773 273.324L69.4223 272.668L66.3913 276.158L67.1463 276.814L67.9014 277.47L70.9323 273.98L70.1773 273.324ZM77.2381 287.393V286.393C76.9835 286.393 76.7057 286.277 76.477 286.014L75.7224 286.671L74.9679 287.327C75.5431 287.988 76.3558 288.393 77.2381 288.393V287.393ZM75.7224 286.671L76.477 286.014C76.2444 285.747 76.0946 285.358 76.0946 284.928H75.0946H74.0946C74.0946 285.805 74.3964 286.67 74.9679 287.327L75.7224 286.671ZM70.8075 284.928H69.8075C69.8075 287.113 70.561 289.231 71.9364 290.813L72.691 290.156L73.4456 289.5C72.409 288.308 71.8075 286.665 71.8075 284.928H70.8075ZM72.691 290.156L71.9364 290.813C73.3157 292.398 75.2188 293.322 77.2381 293.322V292.322V291.322C75.8465 291.322 74.4782 290.687 73.4456 289.5L72.691 290.156ZM79.3817 284.928H78.3817C78.3817 285.358 78.2319 285.747 77.9993 286.014L78.7538 286.671L79.5084 287.327C80.0798 286.67 80.3817 285.805 80.3817 284.928H79.3817ZM78.7538 286.671L77.9993 286.014C77.7706 286.277 77.4928 286.393 77.2381 286.393V287.393V288.393C78.1205 288.393 78.9331 287.988 79.5084 287.327L78.7538 286.671ZM77.2381 292.322V293.322C79.2575 293.322 81.1606 292.398 82.5398 290.813L81.7853 290.156L81.0307 289.5C79.998 290.687 78.6298 291.322 77.2381 291.322V292.322ZM81.7853 290.156L82.5398 290.813C83.9152 289.231 84.6688 287.113 84.6688 284.928H83.6688H82.6688C82.6688 286.665 82.0673 288.308 81.0307 289.5L81.7853 290.156ZM77.2381 282.463V283.463C77.4928 283.463 77.7706 283.578 77.9993 283.841L78.7538 283.185L79.5084 282.529C78.9331 281.867 78.1205 281.463 77.2381 281.463V282.463ZM78.7538 283.185L77.9993 283.841C78.2318 284.109 78.3817 284.498 78.3817 284.928H79.3817H80.3817C80.3817 284.051 80.0798 283.186 79.5084 282.529L78.7538 283.185ZM83.6688 284.928H84.6688C84.6688 282.743 83.9152 280.625 82.5398 279.043L81.7853 279.7L81.0307 280.356C82.0673 281.548 82.6688 283.191 82.6688 284.928H83.6688ZM81.7853 279.7L82.5398 279.043C81.1606 277.457 79.2575 276.534 77.2381 276.534V277.534V278.534C78.6298 278.534 79.998 279.168 81.0307 280.356L81.7853 279.7ZM77.2381 277.534V276.534C75.2188 276.534 73.3157 277.457 71.9364 279.043L72.691 279.7L73.4456 280.356C74.4782 279.168 75.8465 278.534 77.2381 278.534V277.534ZM72.691 279.7L71.9364 279.043C70.561 280.625 69.8075 282.743 69.8075 284.928H70.8075H71.8075C71.8075 283.191 72.409 281.548 73.4456 280.356L72.691 279.7ZM75.0946 284.928H76.0946C76.0946 284.498 76.2444 284.109 76.477 283.841L75.7224 283.185L74.9679 282.529C74.3964 283.186 74.0946 284.051 74.0946 284.928H75.0946ZM75.7224 283.185L76.477 283.841C76.7057 283.578 76.9835 283.463 77.2381 283.463V282.463V281.463C76.3558 281.463 75.5431 281.867 74.9679 282.529L75.7224 283.185ZM62.2333 275.069H61.2333V294.787H62.2333H63.2333V275.069H62.2333ZM62.2333 294.787V295.787H66.5204V294.787V293.787H62.2333V294.787ZM66.5204 294.787H67.5204V275.069H66.5204H65.5204V294.787H66.5204ZM66.5204 275.069V274.069H62.2333V275.069V276.069H66.5204V275.069ZM64.3769 302.181V301.181C64.1222 301.181 63.8444 301.066 63.6157 300.803L62.8612 301.459L62.1066 302.115C62.6819 302.777 63.4945 303.181 64.3769 303.181V302.181ZM62.8612 301.459L63.6157 300.803C63.3832 300.535 63.2333 300.146 63.2333 299.716H62.2333H61.2333C61.2333 300.593 61.5352 301.458 62.1066 302.115L62.8612 301.459ZM57.9463 299.716H56.9463C56.9463 301.901 57.6998 304.019 59.0752 305.601L59.8298 304.944L60.5843 304.288C59.5478 303.096 58.9463 301.453 58.9463 299.716H57.9463ZM59.8298 304.944L59.0752 305.601C60.4545 307.187 62.3575 308.11 64.3769 308.11V307.11V306.11C62.9852 306.11 61.617 305.476 60.5843 304.288L59.8298 304.944ZM66.5204 299.716H65.5204C65.5204 300.146 65.3706 300.535 65.138 300.803L65.8926 301.459L66.6472 302.115C67.2186 301.458 67.5204 300.593 67.5204 299.716H66.5204ZM65.8926 301.459L65.138 300.803C64.9093 301.066 64.6315 301.181 64.3769 301.181V302.181V303.181C65.2592 303.181 66.0719 302.777 66.6472 302.115L65.8926 301.459ZM64.3769 307.11V308.11C66.3962 308.11 68.2993 307.187 69.6786 305.601L68.924 304.944L68.1695 304.288C67.1368 305.476 65.7685 306.11 64.3769 306.11V307.11ZM68.924 304.944L69.6786 305.601C71.054 304.019 71.8075 301.901 71.8075 299.716H70.8075H69.8075C69.8075 301.453 69.206 303.096 68.1695 304.288L68.924 304.944ZM64.3769 297.251V298.251C64.6315 298.251 64.9093 298.366 65.138 298.629L65.8926 297.973L66.6472 297.317C66.0719 296.656 65.2592 296.251 64.3769 296.251V297.251ZM65.8926 297.973L65.138 298.629C65.3706 298.897 65.5204 299.286 65.5204 299.716H66.5204H67.5204C67.5204 298.839 67.2186 297.974 66.6472 297.317L65.8926 297.973ZM70.8075 299.716H71.8075C71.8075 297.531 71.054 295.413 69.6786 293.831L68.924 294.488L68.1695 295.144C69.206 296.336 69.8075 297.979 69.8075 299.716H70.8075ZM68.924 294.488L69.6786 293.831C68.2993 292.246 66.3962 291.322 64.3769 291.322V292.322V293.322C65.7685 293.322 67.1368 293.956 68.1695 295.144L68.924 294.488ZM64.3769 292.322V291.322C62.3575 291.322 60.4545 292.246 59.0752 293.831L59.8298 294.488L60.5843 295.144C61.617 293.956 62.9852 293.322 64.3769 293.322V292.322ZM59.8298 294.488L59.0752 293.831C57.6998 295.413 56.9463 297.531 56.9463 299.716H57.9463H58.9463C58.9463 297.979 59.5478 296.336 60.5843 295.144L59.8298 294.488ZM62.2333 299.716H63.2333C63.2333 299.286 63.3832 298.897 63.6157 298.629L62.8612 297.973L62.1066 297.317C61.5352 297.974 61.2333 298.839 61.2333 299.716H62.2333ZM62.8612 297.973L63.6157 298.629C63.8444 298.366 64.1222 298.251 64.3769 298.251V297.251V296.251C63.4945 296.251 62.6819 296.656 62.1066 297.317L62.8612 297.973Z" fill="#9B3586" mask="url(#path-11-inside-1_185_69)"/>
</g>
<g opacity="0.75">
<mask id="path-13-inside-2_185_69" fill="white">
<path d="M49.2199 516.773C48.4161 516.157 47.7248 515.371 46.9156 514.259C46.4957 513.668 46.0795 513.073 45.667 512.475C44.4265 510.704 43.6441 509.884 42.8376 509.548C42.4982 509.419 42.1848 509.213 41.9157 508.943C41.6466 508.672 41.4273 508.342 41.2707 507.973C41.1142 507.603 41.0235 507.202 41.004 506.791C40.9845 506.381 41.0366 505.97 41.1573 505.583C41.278 505.196 41.4648 504.841 41.7067 504.539C41.9485 504.236 42.2406 503.992 42.5657 503.821C42.8908 503.65 43.2424 503.556 43.5997 503.544C43.957 503.532 44.3128 503.602 44.6462 503.75C46.6611 504.582 48.0249 506.015 49.863 508.643C49.6111 508.282 50.774 509.958 51.0232 510.303C51.5323 511.002 51.9074 511.428 52.2021 511.652C52.7487 512.075 53.7776 512.256 55.2835 512.084C55.3478 510.907 55.5354 509.764 55.8247 508.71C47.8722 506.474 43.3708 500.577 43.3708 489.005C43.3708 485.185 44.3621 481.747 46.2056 478.863C45.6215 476.109 45.7099 472.778 47.0148 469.029C47.1629 468.605 47.3912 468.224 47.6831 467.914C47.9751 467.604 48.3234 467.372 48.7028 467.236C48.9198 467.162 49.0431 467.128 49.2601 467.091C51.4117 466.709 54.4502 467.615 58.4104 470.468C60.7703 469.832 63.1863 469.514 65.61 469.519C68.0536 469.519 70.4839 469.839 72.8016 470.468C76.7591 467.593 79.8056 466.687 81.9706 467.091C82.1992 467.132 82.3939 467.183 82.5547 467.245C82.9267 467.386 83.2672 467.619 83.5524 467.928C83.8376 468.237 84.0604 468.614 84.2052 469.032C85.5101 472.778 85.5985 476.106 85.0144 478.86C86.8659 481.744 87.8492 485.16 87.8492 489.005C87.8492 500.58 83.3639 506.458 75.4113 508.698C75.7463 509.977 75.9204 511.403 75.9204 512.95C75.9204 514.998 75.9151 516.952 75.9017 519.142C75.9017 519.727 75.8963 520.356 75.8883 521.317C76.4901 521.468 77.0284 521.852 77.4126 522.406C77.7968 522.959 78.0035 523.648 77.9978 524.356C77.9921 525.064 77.7745 525.748 77.3815 526.293C76.9885 526.839 76.4441 527.212 75.84 527.349C72.7855 528.049 70.5241 525.71 70.5241 522.651L70.5294 521.274L70.5428 519.102C70.5562 516.924 70.5643 514.983 70.5643 512.95C70.5643 510.802 70.0712 509.4 69.4228 508.756C67.6517 507 68.5493 503.661 70.8724 503.362C78.8196 502.336 82.4904 498.796 82.4904 489.005C82.4904 486.063 81.6544 483.632 80.0441 481.599C79.7052 481.17 79.4782 480.641 79.3891 480.071C79.3 479.501 79.3524 478.913 79.5403 478.376C79.9851 477.101 80.1727 475.428 79.7949 473.404L79.7681 473.413C78.4525 473.841 76.7939 474.769 74.7897 476.337C74.4665 476.589 74.0993 476.757 73.7137 476.829C73.3282 476.9 72.9337 476.874 72.5577 476.753C70.2962 476.032 67.9595 475.67 65.6127 475.677C63.228 475.677 60.8647 476.041 58.6676 476.756C58.2935 476.876 57.901 476.902 57.5175 476.83C57.1339 476.759 56.7684 476.593 56.4464 476.343C54.4287 474.781 52.7648 473.857 51.4358 473.425C51.0527 475.437 51.2429 477.104 51.685 478.376C51.8721 478.913 51.9238 479.5 51.8342 480.07C51.7446 480.639 51.5174 481.168 51.1786 481.596C49.579 483.614 48.7323 486.088 48.7323 489.002C48.7323 498.775 52.4058 502.336 60.3128 503.359C62.6305 503.658 63.5334 506.985 61.7731 508.744C61.2559 509.262 60.6209 510.999 60.6209 512.946V522.651C60.6209 525.686 58.3863 527.966 55.3692 527.359C54.7577 527.235 54.2024 526.871 53.7983 526.329C53.3942 525.787 53.1664 525.101 53.1537 524.387C53.1411 523.673 53.3444 522.977 53.7289 522.416C54.1135 521.856 54.6554 521.466 55.2621 521.314V518.264C52.8238 518.452 50.8115 517.993 49.2226 516.77"/>
</mask>
<path d="M49.2199 516.773C48.4161 516.157 47.7248 515.371 46.9156 514.259C46.4957 513.668 46.0795 513.073 45.667 512.475C44.4265 510.704 43.6441 509.884 42.8376 509.548C42.4982 509.419 42.1848 509.213 41.9157 508.943C41.6466 508.672 41.4273 508.342 41.2707 507.973C41.1142 507.603 41.0235 507.202 41.004 506.791C40.9845 506.381 41.0366 505.97 41.1573 505.583C41.278 505.196 41.4648 504.841 41.7067 504.539C41.9485 504.236 42.2406 503.992 42.5657 503.821C42.8908 503.65 43.2424 503.556 43.5997 503.544C43.957 503.532 44.3128 503.602 44.6462 503.75C46.6611 504.582 48.0249 506.015 49.863 508.643C49.6111 508.282 50.774 509.958 51.0232 510.303C51.5323 511.002 51.9074 511.428 52.2021 511.652C52.7487 512.075 53.7776 512.256 55.2835 512.084C55.3478 510.907 55.5354 509.764 55.8247 508.71C47.8722 506.474 43.3708 500.577 43.3708 489.005C43.3708 485.185 44.3621 481.747 46.2056 478.863C45.6215 476.109 45.7099 472.778 47.0148 469.029C47.1629 468.605 47.3912 468.224 47.6831 467.914C47.9751 467.604 48.3234 467.372 48.7028 467.236C48.9198 467.162 49.0431 467.128 49.2601 467.091C51.4117 466.709 54.4502 467.615 58.4104 470.468C60.7703 469.832 63.1863 469.514 65.61 469.519C68.0536 469.519 70.4839 469.839 72.8016 470.468C76.7591 467.593 79.8056 466.687 81.9706 467.091C82.1992 467.132 82.3939 467.183 82.5547 467.245C82.9267 467.386 83.2672 467.619 83.5524 467.928C83.8376 468.237 84.0604 468.614 84.2052 469.032C85.5101 472.778 85.5985 476.106 85.0144 478.86C86.8659 481.744 87.8492 485.16 87.8492 489.005C87.8492 500.58 83.3639 506.458 75.4113 508.698C75.7463 509.977 75.9204 511.403 75.9204 512.95C75.9204 514.998 75.9151 516.952 75.9017 519.142C75.9017 519.727 75.8963 520.356 75.8883 521.317C76.4901 521.468 77.0284 521.852 77.4126 522.406C77.7968 522.959 78.0035 523.648 77.9978 524.356C77.9921 525.064 77.7745 525.748 77.3815 526.293C76.9885 526.839 76.4441 527.212 75.84 527.349C72.7855 528.049 70.5241 525.71 70.5241 522.651L70.5294 521.274L70.5428 519.102C70.5562 516.924 70.5643 514.983 70.5643 512.95C70.5643 510.802 70.0712 509.4 69.4228 508.756C67.6517 507 68.5493 503.661 70.8724 503.362C78.8196 502.336 82.4904 498.796 82.4904 489.005C82.4904 486.063 81.6544 483.632 80.0441 481.599C79.7052 481.17 79.4782 480.641 79.3891 480.071C79.3 479.501 79.3524 478.913 79.5403 478.376C79.9851 477.101 80.1727 475.428 79.7949 473.404L79.7681 473.413C78.4525 473.841 76.7939 474.769 74.7897 476.337C74.4665 476.589 74.0993 476.757 73.7137 476.829C73.3282 476.9 72.9337 476.874 72.5577 476.753C70.2962 476.032 67.9595 475.67 65.6127 475.677C63.228 475.677 60.8647 476.041 58.6676 476.756C58.2935 476.876 57.901 476.902 57.5175 476.83C57.1339 476.759 56.7684 476.593 56.4464 476.343C54.4287 474.781 52.7648 473.857 51.4358 473.425C51.0527 475.437 51.2429 477.104 51.685 478.376C51.8721 478.913 51.9238 479.5 51.8342 480.07C51.7446 480.639 51.5174 481.168 51.1786 481.596C49.579 483.614 48.7323 486.088 48.7323 489.002C48.7323 498.775 52.4058 502.336 60.3128 503.359C62.6305 503.658 63.5334 506.985 61.7731 508.744C61.2559 509.262 60.6209 510.999 60.6209 512.946V522.651C60.6209 525.686 58.3863 527.966 55.3692 527.359C54.7577 527.235 54.2024 526.871 53.7983 526.329C53.3942 525.787 53.1664 525.101 53.1537 524.387C53.1411 523.673 53.3444 522.977 53.7289 522.416C54.1135 521.856 54.6554 521.466 55.2621 521.314V518.264C52.8238 518.452 50.8115 517.993 49.2226 516.77" fill="#9B3586"/>
<path d="M46.9156 514.259L46.1004 514.838L46.107 514.847L46.9156 514.259ZM45.667 512.475L46.4903 511.907L46.4861 511.901L45.667 512.475ZM42.8376 509.548L43.2219 508.625L43.2077 508.619L43.1932 508.614L42.8376 509.548ZM44.6462 503.75L44.2397 504.664L44.2521 504.669L44.2646 504.674L44.6462 503.75ZM49.863 508.643L49.0436 509.216L50.6827 508.07L49.863 508.643ZM51.0232 510.303L50.2125 510.889L50.2147 510.892L51.0232 510.303ZM52.2021 511.653L52.8133 510.861L52.8088 510.858L52.2021 511.653ZM55.2835 512.084L55.3973 513.077L56.2359 512.981L56.282 512.138L55.2835 512.084ZM55.8247 508.71L56.789 508.975L57.0522 508.017L56.0955 507.748L55.8247 508.71ZM46.2056 478.863L47.0481 479.402L47.2688 479.056L47.1838 478.656L46.2056 478.863ZM47.0148 469.029L46.0707 468.699L46.0703 468.7L47.0148 469.029ZM48.7028 467.236L48.3803 466.289L48.3726 466.292L48.365 466.295L48.7028 467.236ZM49.2601 467.091L49.4281 468.077L49.435 468.076L49.2601 467.091ZM58.4104 470.468L57.8259 471.279L58.2114 471.557L58.6703 471.433L58.4104 470.468ZM65.61 469.519L65.608 470.519H65.61V469.519ZM72.8016 470.468L72.5399 471.433L73.0019 471.558L73.3892 471.277L72.8016 470.468ZM81.9706 467.091L81.7873 468.074L81.7937 468.075L81.9706 467.091ZM82.5547 467.245L82.1968 468.179L82.2002 468.18L82.5547 467.245ZM84.2052 469.032L83.2602 469.359L83.2609 469.361L84.2052 469.032ZM85.0144 478.86L84.0362 478.652L83.9509 479.054L84.1729 479.4L85.0144 478.86ZM75.4113 508.698L75.1402 507.735L74.1952 508.002L74.444 508.951L75.4113 508.698ZM75.9017 519.142L74.9017 519.136V519.142H75.9017ZM75.8883 521.317L74.8883 521.309L74.8817 522.096L75.6455 522.287L75.8883 521.317ZM75.84 527.349L75.6176 526.375L75.6169 526.375L75.84 527.349ZM70.5241 522.651L69.5241 522.647V522.651H70.5241ZM70.5294 521.274L69.5294 521.268L69.5294 521.27L70.5294 521.274ZM70.5428 519.102L71.5428 519.108V519.108L70.5428 519.102ZM69.4228 508.757L70.1274 508.047L70.1269 508.046L69.4228 508.757ZM70.8724 503.362L71 504.354L71.0004 504.354L70.8724 503.362ZM80.0441 481.599L79.2598 482.219L79.2601 482.22L80.0441 481.599ZM79.5403 478.376L80.4843 478.706L80.4846 478.705L79.5403 478.376ZM79.7949 473.404L80.7779 473.22L80.5651 472.08L79.4688 472.458L79.7949 473.404ZM79.7681 473.413L80.0776 474.364L80.0859 474.361L80.0941 474.358L79.7681 473.413ZM74.7897 476.337L75.4049 477.125L75.4059 477.124L74.7897 476.337ZM72.5577 476.753L72.8662 475.801L72.8615 475.8L72.5577 476.753ZM65.6127 475.677V476.677L65.6159 476.677L65.6127 475.677ZM58.6676 476.756L58.9741 477.708L58.977 477.707L58.6676 476.756ZM56.4464 476.343L57.0593 475.553L57.0585 475.552L56.4464 476.343ZM51.4358 473.425L51.7445 472.474L50.6657 472.124L50.4535 473.238L51.4358 473.425ZM51.685 478.376L50.7404 478.704L50.7406 478.705L51.685 478.376ZM51.1786 481.596L51.9623 482.217L51.9625 482.217L51.1786 481.596ZM60.3128 503.359L60.1845 504.351L60.1849 504.351L60.3128 503.359ZM61.7731 508.744L61.0662 508.037L61.0656 508.037L61.7731 508.744ZM55.3692 527.359L55.1713 528.339L55.172 528.339L55.3692 527.359ZM55.2621 521.314L55.5051 522.284L56.2621 522.094V521.314H55.2621ZM55.2621 518.264H56.2621V517.184L55.1852 517.267L55.2621 518.264ZM49.2199 516.773L49.8283 515.979C49.1343 515.447 48.5087 514.749 47.7243 513.671L46.9156 514.259L46.107 514.847C46.9409 515.993 47.698 516.866 48.6116 517.567L49.2199 516.773ZM46.9156 514.259L47.7308 513.68C47.3136 513.092 46.9 512.502 46.4903 511.907L45.667 512.475L44.8438 513.043C45.2589 513.645 45.6778 514.243 46.1004 514.838L46.9156 514.259ZM45.667 512.475L46.4861 511.901C45.2591 510.149 44.33 509.086 43.2219 508.625L42.8376 509.548L42.4532 510.471C42.9581 510.682 43.5938 511.258 44.8479 513.049L45.667 512.475ZM42.8376 509.548L43.1932 508.614C42.9933 508.538 42.7988 508.413 42.6247 508.238L41.9157 508.943L41.2067 509.648C41.5707 510.014 42.0031 510.301 42.4819 510.483L42.8376 509.548ZM41.9157 508.943L42.6247 508.238C42.4502 508.062 42.3008 507.841 42.1915 507.583L41.2707 507.973L40.35 508.363C40.5538 508.844 40.8429 509.282 41.2067 509.648L41.9157 508.943ZM41.2707 507.973L42.1915 507.583C42.0821 507.325 42.0169 507.039 42.0029 506.744L41.004 506.791L40.0051 506.839C40.03 507.364 40.1462 507.882 40.35 508.363L41.2707 507.973ZM41.004 506.791L42.0029 506.744C41.9888 506.449 42.0266 506.155 42.1119 505.881L41.1573 505.583L40.2027 505.286C40.0467 505.786 39.9802 506.313 40.0051 506.839L41.004 506.791ZM41.1573 505.583L42.1119 505.881C42.1973 505.607 42.3271 505.364 42.4878 505.163L41.7067 504.539L40.9255 503.914C40.6025 504.318 40.3586 504.786 40.2027 505.286L41.1573 505.583ZM41.7067 504.539L42.4878 505.163C42.6483 504.962 42.8346 504.81 43.0309 504.707L42.5657 503.821L42.1006 502.936C41.6466 503.175 41.2488 503.51 40.9255 503.914L41.7067 504.539ZM42.5657 503.821L43.0309 504.707C43.2265 504.604 43.4312 504.55 43.6339 504.543L43.5997 503.544L43.5655 502.545C43.0536 502.562 42.5552 502.697 42.1006 502.936L42.5657 503.821ZM43.5997 503.544L43.6339 504.543C43.8365 504.536 44.0419 504.576 44.2397 504.664L44.6462 503.75L45.0526 502.836C44.5837 502.628 44.0774 502.527 43.5655 502.545L43.5997 503.544ZM44.6462 503.75L44.2646 504.674C46.0057 505.393 47.2327 506.627 49.0436 509.216L49.863 508.643L50.6825 508.069C48.8171 505.402 47.3165 503.771 45.0278 502.826L44.6462 503.75ZM49.863 508.643L50.6827 508.07C50.6671 508.047 50.6555 508.031 50.6485 508.021C50.6468 508.018 50.6442 508.015 50.6416 508.011C50.6404 508.01 50.6377 508.006 50.6343 508.001C50.6327 507.999 50.6293 507.994 50.6248 507.988C50.6226 507.985 50.6172 507.978 50.614 507.974C50.609 507.968 50.595 507.951 50.5859 507.94C50.5654 507.917 50.4569 507.815 50.3606 507.746C49.3623 507.707 48.8445 508.775 48.9102 508.99C48.9275 509.028 48.9545 509.08 48.963 509.095C48.9677 509.103 48.9755 509.115 48.9785 509.12C48.9876 509.135 48.9954 509.147 48.9955 509.147C48.9992 509.152 49.0027 509.157 49.0039 509.159C49.0149 509.175 49.0434 509.217 49.0811 509.271C49.1591 509.384 49.289 509.571 49.4345 509.78C49.7224 510.193 50.0816 510.707 50.2125 510.889L51.0232 510.303L51.8339 509.718C51.7157 509.554 51.3688 509.058 51.0759 508.637C50.931 508.429 50.8019 508.243 50.7249 508.132C50.6851 508.074 50.6621 508.041 50.6567 508.033C50.6559 508.032 50.6579 508.035 50.6607 508.039C50.6616 508.04 50.6632 508.043 50.6652 508.046C50.6666 508.048 50.6711 508.055 50.6767 508.064C50.6797 508.069 50.6875 508.082 50.6921 508.09C50.7005 508.104 50.7275 508.156 50.7448 508.194C50.8106 508.409 50.2927 509.477 49.2944 509.438C49.1982 509.369 49.0896 509.267 49.0692 509.244C49.0601 509.233 49.0462 509.216 49.0412 509.21C49.0381 509.206 49.0327 509.199 49.0306 509.196C49.0263 509.19 49.023 509.186 49.0216 509.184C49.0186 509.18 49.0164 509.177 49.016 509.176C49.0147 509.174 49.0142 509.174 49.0151 509.175C49.0186 509.18 49.0274 509.193 49.0433 509.215L49.863 508.643ZM51.0232 510.303L50.2147 510.892C50.7291 511.598 51.1762 512.127 51.5955 512.447L52.2021 511.653L52.8088 510.858C52.6386 510.728 52.3355 510.407 51.8317 509.715L51.0232 510.303ZM52.2021 511.653L51.591 512.444C52.4628 513.117 53.836 513.256 55.3973 513.077L55.2835 512.084L55.1697 511.09C53.7193 511.256 53.0347 511.032 52.8133 510.861L52.2021 511.653ZM55.2835 512.084L56.282 512.138C56.3425 511.031 56.519 509.958 56.789 508.975L55.8247 508.71L54.8604 508.445C54.5517 509.569 54.3531 510.783 54.285 512.029L55.2835 512.084ZM55.8247 508.71L56.0955 507.748C52.3036 506.681 49.4119 504.77 47.4493 501.806C45.474 498.824 44.3708 494.671 44.3708 489.005H43.3708H42.3708C42.3708 494.911 43.5183 499.493 45.7818 502.91C48.058 506.347 51.3934 508.503 55.554 509.673L55.8247 508.71ZM43.3708 489.005H44.3708C44.3708 485.362 45.3147 482.113 47.0481 479.402L46.2056 478.863L45.363 478.324C43.4096 481.38 42.3708 485.008 42.3708 489.005H43.3708ZM46.2056 478.863L47.1838 478.656C46.639 476.087 46.7119 472.941 47.9592 469.358L47.0148 469.029L46.0703 468.7C44.7078 472.615 44.6039 476.131 45.2273 479.07L46.2056 478.863ZM47.0148 469.029L47.9589 469.359C48.0633 469.059 48.2207 468.802 48.4112 468.599L47.6831 467.914L46.955 467.228C46.5617 467.646 46.2624 468.15 46.0707 468.699L47.0148 469.029ZM47.6831 467.914L48.4112 468.599C48.6014 468.397 48.8181 468.257 49.0407 468.177L48.7028 467.236L48.365 466.295C47.8287 466.487 47.3488 466.81 46.955 467.228L47.6831 467.914ZM48.7028 467.236L49.0253 468.182C49.2029 468.122 49.2738 468.103 49.4281 468.077L49.2601 467.091L49.0922 466.105C48.8124 466.153 48.6368 466.202 48.3803 466.289L48.7028 467.236ZM49.2601 467.091L49.435 468.076C51.1806 467.766 53.9339 468.475 57.8259 471.279L58.4104 470.468L58.9949 469.656C54.9664 466.754 51.6428 465.652 49.0853 466.106L49.2601 467.091ZM58.4104 470.468L58.6703 471.433C60.9455 470.821 63.2735 470.514 65.608 470.519L65.61 469.519L65.612 468.519C63.0991 468.514 60.595 468.844 58.1504 469.502L58.4104 470.468ZM65.61 469.519V470.519C67.9669 470.519 70.3091 470.828 72.5399 471.433L72.8016 470.468L73.0633 469.502C70.6587 468.85 68.1404 468.519 65.61 468.519V469.519ZM72.8016 470.468L73.3892 471.277C77.2777 468.452 80.0344 467.747 81.7873 468.074L81.9706 467.091L82.1538 466.108C79.5768 465.628 76.2405 466.734 72.2139 469.659L72.8016 470.468ZM81.9706 467.091L81.7937 468.075C81.9805 468.109 82.1109 468.146 82.1968 468.179L82.5547 467.245L82.9126 466.311C82.6769 466.221 82.418 466.155 82.1474 466.107L81.9706 467.091ZM82.5547 467.245L82.2002 468.18C82.4191 468.263 82.6317 468.405 82.8178 468.606L83.5524 467.928L84.287 467.249C83.9028 466.833 83.4342 466.509 82.9092 466.31L82.5547 467.245ZM83.5524 467.928L82.8178 468.606C83.0044 468.808 83.1581 469.064 83.2602 469.359L84.2052 469.032L85.1502 468.705C84.9627 468.163 84.6708 467.665 84.287 467.249L83.5524 467.928ZM84.2052 469.032L83.2609 469.361C84.508 472.941 84.581 476.083 84.0362 478.652L85.0144 478.86L85.9926 479.067C86.616 476.128 86.5122 472.615 85.1496 468.703L84.2052 469.032ZM85.0144 478.86L84.1729 479.4C85.9128 482.11 86.8492 485.336 86.8492 489.005H87.8492H88.8492C88.8492 484.984 87.8189 481.377 85.8559 478.32L85.0144 478.86ZM87.8492 489.005H86.8492C86.8492 494.673 85.7498 498.822 83.7786 501.8C81.8202 504.759 78.9328 506.667 75.1402 507.735L75.4113 508.698L75.6824 509.661C79.8424 508.489 83.174 506.338 85.4464 502.904C87.706 499.49 88.8492 494.912 88.8492 489.005H87.8492ZM75.4113 508.698L74.444 508.951C74.7545 510.137 74.9204 511.477 74.9204 512.95H75.9204H76.9204C76.9204 511.329 76.738 509.816 76.3787 508.445L75.4113 508.698ZM75.9204 512.95H74.9204C74.9204 514.996 74.9151 516.948 74.9017 519.136L75.9017 519.142L76.9016 519.148C76.9151 516.956 76.9204 515 76.9204 512.95H75.9204ZM75.9017 519.142H74.9017C74.9017 519.722 74.8964 520.346 74.8883 521.309L75.8883 521.317L76.8882 521.326C76.8963 520.366 76.9017 519.733 76.9017 519.142H75.9017ZM75.8883 521.317L75.6455 522.287C75.9914 522.374 76.3322 522.603 76.5911 522.976L77.4126 522.406L78.234 521.835C77.7246 521.101 76.9887 520.562 76.131 520.347L75.8883 521.317ZM77.4126 522.406L76.5911 522.976C76.8513 523.351 77.0019 523.835 76.9978 524.348L77.9978 524.356L78.9978 524.364C79.005 523.46 78.7423 522.567 78.234 521.835L77.4126 522.406ZM77.9978 524.356L76.9978 524.348C76.9937 524.861 76.8354 525.341 76.5703 525.709L77.3815 526.293L78.1927 526.878C78.7136 526.156 78.9905 525.267 78.9978 524.364L77.9978 524.356ZM77.3815 526.293L76.5703 525.709C76.3065 526.075 75.9636 526.296 75.6176 526.375L75.84 527.349L76.0625 528.324C76.9247 528.128 77.6705 527.603 78.1927 526.878L77.3815 526.293ZM75.84 527.349L75.6169 526.375C74.4056 526.652 73.4166 526.327 72.7171 525.677C71.9994 525.011 71.5241 523.94 71.5241 522.651H70.5241H69.5241C69.5241 524.422 70.1795 526.05 71.3561 527.143C72.5509 528.252 74.22 528.746 76.0632 528.324L75.84 527.349ZM70.5241 522.651L71.5241 522.655L71.5294 521.278L70.5294 521.274L69.5294 521.27L69.5241 522.647L70.5241 522.651ZM70.5294 521.274L71.5294 521.28L71.5428 519.108L70.5428 519.102L69.5428 519.096L69.5294 521.268L70.5294 521.274ZM70.5428 519.102L71.5428 519.108C71.5562 516.929 71.5643 514.986 71.5643 512.95H70.5643H69.5643C69.5643 514.98 69.5562 516.919 69.5428 519.096L70.5428 519.102ZM70.5643 512.95H71.5643C71.5643 510.716 71.0627 508.976 70.1274 508.047L69.4228 508.757L68.7182 509.466C69.0798 509.825 69.5643 510.889 69.5643 512.95H70.5643ZM69.4228 508.757L70.1269 508.046C69.5382 507.463 69.3614 506.578 69.578 505.772C69.7953 504.964 70.3409 504.439 71 504.354L70.8724 503.362L70.7448 502.37C69.0808 502.584 68.0161 503.878 67.6466 505.253C67.2764 506.631 67.5363 508.294 68.7187 509.467L69.4228 508.757ZM70.8724 503.362L71.0004 504.354C75.0782 503.827 78.2763 502.632 80.4219 500.12C82.5594 497.618 83.4904 493.998 83.4904 489.005H82.4904H81.4904C81.4904 493.803 80.586 496.849 78.9012 498.821C77.2246 500.783 74.6137 501.871 70.7444 502.37L70.8724 503.362ZM82.4904 489.005H83.4904C83.4904 485.856 82.5893 483.202 80.828 480.978L80.0441 481.599L79.2601 482.22C80.7195 484.062 81.4904 486.27 81.4904 489.005H82.4904ZM80.0441 481.599L80.8284 480.978C80.6024 480.693 80.4411 480.326 80.3771 479.916L79.3891 480.071L78.4011 480.225C78.5152 480.956 78.8079 481.648 79.2598 482.219L80.0441 481.599ZM79.3891 480.071L80.3771 479.916C80.313 479.507 80.3514 479.086 80.4843 478.706L79.5403 478.376L78.5964 478.046C78.3533 478.741 78.2869 479.495 78.4011 480.225L79.3891 480.071ZM79.5403 478.376L80.4846 478.705C80.9908 477.254 81.1853 475.403 80.7779 473.22L79.7949 473.404L78.8119 473.587C79.16 475.452 78.9794 476.948 78.5961 478.047L79.5403 478.376ZM79.7949 473.404L79.4688 472.458L79.442 472.468L79.7681 473.413L80.0941 474.358L80.1209 474.349L79.7949 473.404ZM79.7681 473.413L79.4586 472.462C77.9899 472.94 76.2267 473.943 74.1735 475.549L74.7897 476.337L75.4059 477.124C77.3611 475.594 78.9151 474.742 80.0776 474.364L79.7681 473.413ZM74.7897 476.337L74.1745 475.548C73.9718 475.707 73.7514 475.804 73.5306 475.846L73.7137 476.829L73.8969 477.812C74.4472 477.709 74.9613 477.471 75.4049 477.125L74.7897 476.337ZM73.7137 476.829L73.5306 475.846C73.3103 475.887 73.0847 475.872 72.8662 475.801L72.5577 476.753L72.2493 477.704C72.7826 477.877 73.3461 477.914 73.8969 477.812L73.7137 476.829ZM72.5577 476.753L72.8615 475.8C70.5019 475.048 68.0617 474.669 65.6094 474.677L65.6127 475.677L65.6159 476.677C67.8574 476.67 70.0906 477.016 72.254 477.705L72.5577 476.753ZM65.6127 475.677V474.677C63.1278 474.677 60.6598 475.056 58.3582 475.805L58.6676 476.756L58.977 477.707C61.0696 477.026 63.3281 476.677 65.6127 476.677V475.677ZM58.6676 476.756L58.3611 475.804C58.1437 475.874 57.9193 475.888 57.7002 475.847L57.5175 476.83L57.3347 477.813C57.8827 477.915 58.4433 477.878 58.9741 477.708L58.6676 476.756ZM57.5175 476.83L57.7002 475.847C57.4805 475.806 57.2613 475.709 57.0593 475.553L56.4464 476.343L55.8334 477.133C56.2756 477.476 56.7873 477.712 57.3347 477.813L57.5175 476.83ZM56.4464 476.343L57.0585 475.552C54.9922 473.952 53.2247 472.954 51.7445 472.474L51.4358 473.425L51.1271 474.376C52.305 474.759 53.8653 475.609 55.8342 477.134L56.4464 476.343ZM51.4358 473.425L50.4535 473.238C50.0393 475.413 50.2378 477.258 50.7404 478.704L51.685 478.376L52.6296 478.048C52.2481 476.95 52.066 475.461 52.4182 473.612L51.4358 473.425ZM51.685 478.376L50.7406 478.705C50.8728 479.085 50.9107 479.505 50.8463 479.914L51.8342 480.07L52.8221 480.225C52.9368 479.495 52.8713 478.742 52.6294 478.047L51.685 478.376ZM51.8342 480.07L50.8463 479.914C50.782 480.323 50.6205 480.69 50.3947 480.975L51.1786 481.596L51.9625 482.217C52.4143 481.646 52.7073 480.955 52.8221 480.225L51.8342 480.07ZM51.1786 481.596L50.3949 480.974C48.6437 483.184 47.7323 485.881 47.7323 489.002H48.7323H49.7323C49.7323 486.294 50.5143 484.044 51.9623 482.217L51.1786 481.596ZM48.7323 489.002H47.7323C47.7323 493.987 48.6642 497.606 50.796 500.11C52.9363 502.624 56.1243 503.825 60.1845 504.351L60.3128 503.359L60.4411 502.367C56.5942 501.869 53.992 500.779 52.3189 498.813C50.6371 496.838 49.7323 493.79 49.7323 489.002H48.7323ZM60.3128 503.359L60.1849 504.351C60.8428 504.435 61.3884 504.959 61.6071 505.766C61.8251 506.569 61.6513 507.452 61.0662 508.037L61.7731 508.744L62.4799 509.452C63.6552 508.277 63.9101 506.616 63.5373 505.242C63.1652 503.87 62.1005 502.581 60.4406 502.367L60.3128 503.359ZM61.7731 508.744L61.0656 508.037C60.6269 508.477 60.2811 509.238 60.0455 510.021C59.7958 510.851 59.6209 511.869 59.6209 512.946H60.6209H61.6209C61.6209 512.077 61.7635 511.253 61.9606 510.597C62.1718 509.896 62.4021 509.529 62.4805 509.451L61.7731 508.744ZM60.6209 512.946H59.6209V522.651H60.6209H61.6209V512.946H60.6209ZM60.6209 522.651H59.6209C59.6209 523.927 59.1528 524.978 58.4441 525.639C57.7503 526.287 56.767 526.62 55.5664 526.378L55.3692 527.359L55.172 528.339C56.9884 528.704 58.631 528.201 59.8088 527.102C60.9716 526.016 61.6209 524.41 61.6209 522.651H60.6209ZM55.3692 527.359L55.5671 526.378C55.2182 526.308 54.8702 526.094 54.6 525.732L53.7983 526.329L52.9966 526.927C53.5346 527.649 54.2972 528.162 55.1713 528.339L55.3692 527.359ZM53.7983 526.329L54.6 525.732C54.3283 525.367 54.1627 524.886 54.1536 524.369L53.1537 524.387L52.1539 524.405C52.17 525.315 52.4602 526.208 52.9966 526.927L53.7983 526.329ZM53.1537 524.387L54.1536 524.369C54.1444 523.852 54.2928 523.362 54.5535 522.982L53.7289 522.416L52.9044 521.85C52.396 522.591 52.1377 523.494 52.1539 524.405L53.1537 524.387ZM53.7289 522.416L54.5535 522.982C54.813 522.604 55.1565 522.371 55.5051 522.284L55.2621 521.314L55.019 520.344C54.1543 520.561 53.414 521.108 52.9044 521.85L53.7289 522.416ZM55.2621 521.314H56.2621V518.264H55.2621H54.2621V521.314H55.2621ZM55.2621 518.264L55.1852 517.267C52.915 517.442 51.1713 517.008 49.8326 515.977L49.2226 516.77L48.6126 517.562C50.4518 518.978 52.7326 519.462 55.3389 519.261L55.2621 518.264Z" fill="#9B3586" mask="url(#path-13-inside-2_185_69)"/>
</g>
<g opacity="0.75">
<path d="M359.25 603.98C357.747 604.96 356.02 605.75 354.223 606.38C349.449 608.06 343.183 609 336.5 609C329.817 609 323.541 608.05 318.777 606.38C316.99 605.75 315.253 604.96 313.75 603.98V612.2C313.75 616.62 323.937 620.2 336.5 620.2C349.063 620.2 359.25 616.62 359.25 612.2V603.98ZM359.25 596.2V591.4C359.25 586.98 349.063 583.4 336.5 583.4C323.937 583.4 313.75 586.98 313.75 591.4V596.2C313.75 600.62 323.937 604.2 336.5 604.2C349.063 604.2 359.25 600.62 359.25 596.2ZM354.223 622.38C349.459 624.05 343.193 625 336.5 625C329.807 625 323.541 624.05 318.777 622.38C316.99 621.75 315.253 620.96 313.75 619.98V626.6C313.75 631.02 323.937 634.6 336.5 634.6C349.063 634.6 359.25 631.02 359.25 626.6V619.98C357.747 620.96 356.02 621.75 354.223 622.38Z" fill="#9B3586"/>
</g>
<g opacity="0.75">
<path d="M553.874 274.835L532.969 247.588H526.588V270.176H532.235V255.906L549.422 278.305C544.484 281.243 538.612 282.189 533.001 280.95C527.391 279.711 522.463 276.38 519.222 271.636C515.98 266.892 514.668 261.091 515.554 255.414C516.439 249.737 519.454 244.61 523.986 241.078C528.517 237.545 534.225 235.873 539.946 236.4C545.668 236.928 550.973 239.616 554.782 243.918C558.592 248.219 560.619 253.811 560.45 259.554C560.282 265.298 557.932 270.761 553.877 274.832M537.882 287.117C553.476 287.117 566.117 274.476 566.117 258.882C566.117 243.288 553.476 230.647 537.882 230.647C522.288 230.647 509.647 243.288 509.647 258.882C509.647 274.476 522.288 287.117 537.882 287.117ZM543.529 258.882V247.588H549.176V258.882H543.529Z" fill="#9B3586"/>
</g>
<g opacity="0.75">
<path fill-rule="evenodd" clip-rule="evenodd" d="M86.8721 68.4521C86.5187 68.4523 86.1696 68.53 85.8494 68.6796C85.5292 68.8291 85.2457 69.047 85.0187 69.3179C84.7917 69.5888 84.6268 69.9062 84.5356 70.2476C84.4444 70.589 84.4291 70.9463 84.4907 71.2943L90.2991 104.208C90.3998 104.797 90.7211 105.331 91.1936 105.695L108.619 119.248C109.044 119.579 109.567 119.759 110.106 119.759C110.644 119.759 111.168 119.579 111.593 119.248L129.018 105.695C129.488 105.326 129.806 104.797 129.912 104.208L135.721 71.2943C135.782 70.9463 135.767 70.589 135.676 70.2476C135.584 69.9062 135.42 69.5888 135.193 69.3179C134.966 69.047 134.682 68.8291 134.362 68.6796C134.042 68.53 133.693 68.4523 133.339 68.4521H86.8721ZM94.9032 102.45L89.757 73.2924H130.454L125.308 102.45L110.106 114.269L94.9032 102.45ZM100.425 76.6806C99.6548 76.6806 98.9161 76.9866 98.3714 77.5312C97.8268 78.0759 97.5208 78.8146 97.5208 79.5848C97.5208 80.355 97.8268 81.0937 98.3714 81.6384C98.9161 82.183 99.6548 82.489 100.425 82.489H109.66L102.76 86.8027C102.225 87.1368 101.814 87.6358 101.588 88.2244C101.362 88.8129 101.334 89.459 101.507 90.0651C101.681 90.6712 102.047 91.2043 102.55 91.584C103.054 91.9636 103.667 92.1692 104.297 92.1696H114.946V97.4939L110.106 101.126L104.104 96.6227C103.799 96.3939 103.451 96.2274 103.082 96.1327C102.712 96.0381 102.328 96.0171 101.95 96.071C101.573 96.125 101.21 96.2527 100.881 96.4471C100.553 96.6414 100.267 96.8984 100.038 97.2035C99.8089 97.5086 99.6424 97.8558 99.5478 98.2253C99.4531 98.5947 99.4322 98.9792 99.4861 99.3567C99.5401 99.7343 99.6678 100.098 99.8621 100.426C100.056 100.754 100.314 101.041 100.619 101.269L108.363 107.078C109.397 107.852 110.814 107.852 111.848 107.078L119.593 101.269C119.953 100.999 120.246 100.648 120.448 100.245C120.649 99.8416 120.754 99.3969 120.754 98.946V89.2654C120.754 88.4952 120.448 87.7565 119.904 87.2118C119.359 86.6672 118.62 86.3612 117.85 86.3612H114.423L121.324 82.0475C121.858 81.7134 122.27 81.2144 122.495 80.6258C122.721 80.0373 122.75 79.3912 122.576 78.7851C122.403 78.179 122.037 77.6459 121.533 77.2662C121.03 76.8866 120.417 76.681 119.786 76.6806H100.425Z" fill="#9B3586"/>
</g>
<g opacity="0.75" clip-path="url(#clip0_185_69)">
<path d="M442.882 442.553C433.85 442.553 428.196 447.074 425.941 456.106C429.329 451.585 433.279 449.89 437.8 451.023C440.373 451.669 442.215 453.543 444.259 455.608C447.583 458.975 451.427 462.882 459.823 462.882C468.855 462.882 474.509 458.361 476.764 449.329C473.376 453.85 469.427 455.545 464.906 454.412C462.333 453.766 460.49 451.892 458.447 449.827C455.122 446.46 451.279 442.553 442.882 442.553ZM425.941 462.882C416.909 462.882 411.255 467.403 409 476.435C412.388 471.914 416.338 470.22 420.859 471.353C423.432 471.999 425.274 473.873 427.318 475.937C430.642 479.304 434.486 483.211 442.882 483.211C451.914 483.211 457.568 478.69 459.823 469.659C456.435 474.18 452.486 475.874 447.964 474.741C445.392 474.095 443.549 472.221 441.506 470.156C438.181 466.789 434.337 462.882 425.941 462.882Z" fill="#9B3586"/>
</g>
</g>
<defs>
<clipPath id="clip0_185_69">
<rect width="67.7643" height="67.7643" fill="white" transform="translate(409 429)"/>
</clipPath>
</defs>
</svg>
