<svg width="67" height="68" viewBox="0 0 67 68" fill="none" xmlns="http://www.w3.org/2000/svg">
<rect width="67" height="68" rx="25" fill="url(#paint0_linear_55_1169)"/>
<path d="M21.875 49V19.9091H34.4318C36.5909 19.9091 38.4801 20.3021 40.0994 21.0881C41.7188 21.8741 42.9782 23.0057 43.8778 24.483C44.7775 25.9602 45.2273 27.7311 45.2273 29.7955C45.2273 31.8788 44.7633 33.6354 43.8352 35.0653C42.9167 36.4953 41.6241 37.5748 39.9574 38.304C38.3002 39.0331 36.3636 39.3977 34.1477 39.3977H26.6477V33.2614H32.5568C33.4848 33.2614 34.2756 33.1477 34.929 32.9205C35.5919 32.6837 36.0985 32.3097 36.4489 31.7983C36.8087 31.2869 36.9886 30.6193 36.9886 29.7955C36.9886 28.9621 36.8087 28.285 36.4489 27.7642C36.0985 27.2339 35.5919 26.8456 34.929 26.5994C34.2756 26.3437 33.4848 26.2159 32.5568 26.2159H29.7727V49H21.875ZM38.9205 35.6477L46.1932 49H37.6136L30.5114 35.6477H38.9205Z" fill="#262425"/>
<defs>
<linearGradient id="paint0_linear_55_1169" x1="11.9643" y1="48.28" x2="139.237" y2="26.9455" gradientUnits="userSpaceOnUse">
<stop stop-color="#9B3586"/>
<stop offset="1" stop-color="#35122E"/>
</linearGradient>
</defs>
</svg>
